<?xml version="1.0" ?><svg viewBox="0 0 32 32" xmlns="http://www.w3.org/2000/svg"><defs><style>.cls-1{fill:#ffb92c;}.cls-2{fill:#201a1a;}</style></defs><title/><g id="barista"><path class="cls-1" d="M7,4H18a0,0,0,0,1,0,0V4a4,4,0,0,1-4,4H5A0,0,0,0,1,5,8V6A2,2,0,0,1,7,4Z"/><path class="cls-1" d="M14.4,11.89s-3.32.47-2.39,1.76C12,13.65,15.2,13.52,14.4,11.89Z"/><path class="cls-1" d="M13.58,21.21v0c0,1.54-.31,4.15-3.5,4.87a2.71,2.71,0,0,1-.41.09l-.46.07a6.29,6.29,0,0,1-.73,0,3.44,3.44,0,0,1-.46,0,3.81,3.81,0,0,1-.7-.1,5.84,5.84,0,0,1-.92-.3A4,4,0,0,1,5.06,25l.38-.59L5.71,24,9,18.92a1,1,0,0,1,1.23-.46,4,4,0,0,0,1.88.15l.34-.06.36-.09a6.57,6.57,0,0,1,.75,2.42C13.58,21,13.58,21.1,13.58,21.21Z"/><path class="cls-1" d="M25.17,15.24l-1.93,4.12a.13.13,0,0,0,.05.16,2.08,2.08,0,0,1,1.1,1.19,2.11,2.11,0,0,1-.07,1.62l-1,2.58A3.09,3.09,0,0,0,24,25c2.21,0,4-2.24,4-5A5,5,0,0,0,25.17,15.24Zm1,7.23-.08,0a.24.24,0,0,1-.15-.32c.21-.58.23-1.62-.29-2a1.1,1.1,0,0,1-.51-1.42l.42-.84a.25.25,0,0,1,.33-.11.23.23,0,0,1,.11.33l-.42.85c-.17.34.16.63.36.78a2.37,2.37,0,0,1,.47,2.58A.25.25,0,0,1,26.21,22.47Z"/><path class="cls-2" d="M18.79,3.38A1,1,0,0,0,18,3H7A3,3,0,0,0,4,6V8A1,1,0,0,0,5,9h9v4a2,2,0,0,1-2,2,4,4,0,0,1-4-4,1,1,0,0,0-1-1H5.5a2.5,2.5,0,0,0,0,5,1,1,0,0,0,0-2,.5.5,0,0,1,0-1h.58A6,6,0,0,0,12,17a4,4,0,0,0,4-4V8.51a5,5,0,0,0,2.73-3.3l.24-1A1,1,0,0,0,18.79,3.38ZM13.88,7H6V6A1,1,0,0,1,7,5h9.71A3,3,0,0,1,13.88,7Z"/><path class="cls-2" d="M26,30H20a1,1,0,0,1-.83-.45L17.46,27H7a4,4,0,0,1-3.2-6.4l2.4-3.2a1,1,0,1,1,1.6,1.2L5.4,21.8A2,2,0,0,0,7,25H18a1,1,0,0,1,.83.45L20.54,28H26a1,1,0,0,1,0,2Z"/><path class="cls-2" d="M12,12l-.2,0-.18-.06-.18-.09-.15-.12a1,1,0,0,1,0-1.42,1,1,0,0,1,1.42,1.42A1.05,1.05,0,0,1,12,12Z"/><path class="cls-2" d="M26,13a.93.93,0,0,1-.45-.11,1,1,0,0,1-.44-1.34l.5-1a.15.15,0,0,0-.06-.16,2.11,2.11,0,0,1-.94-2.84l.5-1a1,1,0,1,1,1.78.9l-.5,1a.15.15,0,0,0,.06.16,2.11,2.11,0,0,1,.94,2.84l-.5,1A1,1,0,0,1,26,13Z"/><path class="cls-2" d="M22,13a.93.93,0,0,1-.45-.11,1,1,0,0,1-.44-1.34l.5-1a.15.15,0,0,0-.06-.16,2.11,2.11,0,0,1-.94-2.84l.5-1a1,1,0,1,1,1.78.9l-.5,1a.15.15,0,0,0,.06.16,2.11,2.11,0,0,1,.94,2.84l-.5,1A1,1,0,0,1,22,13Z"/><path class="cls-2" d="M13,24a.93.93,0,0,1-.45-.11,1,1,0,0,1-.44-1.34l.1-.21a3,3,0,0,0,0-2.68l-.1-.21a1,1,0,0,1,1.78-.9l.11.21a5,5,0,0,1,0,4.48l-.11.21A1,1,0,0,1,13,24Z"/><path class="cls-2" d="M25.84,14.42A4.23,4.23,0,0,0,24,14c-2.76,0-5,2.69-5,6,0,2.8,1.58,5.2,3.84,5.84l.16,0a1,1,0,0,0,.25.05,1,1,0,0,0,.91-.6l1.23-2.86a2.11,2.11,0,0,0-.94-2.84.14.14,0,0,1-.06-.15l.51-1a1,1,0,1,0-1.78-.92l-.51,1a2.11,2.11,0,0,0,.94,2.84.15.15,0,0,1,0,.21l-.86,2A4.27,4.27,0,0,1,21,20c0-2.21,1.35-4,3-4a2.31,2.31,0,0,1,1,.23,1,1,0,1,0,.85-1.81Z"/></g></svg>