<?xml version="1.0" ?><svg viewBox="0 0 32 32" xmlns="http://www.w3.org/2000/svg"><defs><style>.cls-1{fill:#ffb92c;}.cls-2{fill:#201a1a;}</style></defs><title/><g data-name="coffee bean" id="coffee_bean"><path class="cls-1" d="M23.44,7.64,16,11.2a4,4,0,0,0-2.19,3.13l-.21,1.89a4,4,0,0,1-2.4,3.23L4.6,22.39a8,8,0,0,0,.92,1.1A9,9,0,0,0,11.91,26a12.58,12.58,0,0,0,7.15-2.36c0-.21-.06-.42-.06-.63a5,5,0,0,1,4.81-5C25.49,14.45,25.42,10.5,23.44,7.64Zm-1.67,2.93-4.71,2.35a1.71,1.71,0,0,0-.93,1.33L15.94,16a6.44,6.44,0,0,1-3.86,5.19l-1.64.71-.1,0a.26.26,0,0,1-.23-.15.26.26,0,0,1,.13-.33l1.65-.71a5.93,5.93,0,0,0,3.55-4.79l.19-1.73a2.22,2.22,0,0,1,1.21-1.73l4.7-2.35a.26.26,0,0,1,.34.11A.26.26,0,0,1,21.77,10.57Z"/><path class="cls-2" d="M24,29a6,6,0,1,1,6-6A6,6,0,0,1,24,29Zm0-10a4,4,0,1,0,4,4A4,4,0,0,0,24,19Z"/><path class="cls-2" d="M24,25.41a1,1,0,0,1-.71-.29l-1.41-1.41a1,1,0,0,1,0-1.42,1,1,0,0,1,1.41,0l.64.64,1.3-1.57a1,1,0,0,1,1.54,1.28l-2,2.41a1,1,0,0,1-.72.36Z"/><path class="cls-2" d="M4.6,23.4A1,1,0,0,1,3.78,23h0C.63,18.54,1.68,11.76,6.22,7.22c5.07-5.07,12.69-5.7,17-1.41a10.4,10.4,0,0,1,2.66,9.37,1,1,0,0,1-1.16.8,1,1,0,0,1-.81-1.16,8.44,8.44,0,0,0-2.1-7.6C18.27,3.71,11.92,4.35,7.64,8.64,4,12.26,3,17.47,5,21.12l5.77-2.58a3,3,0,0,0,1.82-2.43l.21-1.89A5,5,0,0,1,15.5,10.3l3.71-1.85a1,1,0,0,1,.89,1.79l-3.71,1.85a3,3,0,0,0-1.64,2.35l-.21,1.89a5,5,0,0,1-3,4L5.12,23.25A1,1,0,0,1,4.6,23.4Z"/></g></svg>