<svg xmlns="http://www.w3.org/2000/svg" xmlns:xlink="http://www.w3.org/1999/xlink" viewBox="0 0 481.06 492.63"><defs><style>.cls-1{isolation:isolate;}.cls-2{fill:#dce1f1;}.cls-3{fill:#d3daed;}.cls-4{fill:url(#linear-gradient);}.cls-5{fill:url(#linear-gradient-2);}.cls-6{fill:#48486a;}.cls-7,.cls-81{fill:#231f20;}.cls-7,.cls-83,.cls-89{opacity:0.3;}.cls-8{fill:#edf0f8;}.cls-9{fill:#f6f8fb;}.cls-10{fill:#e5e9f4;}.cls-11{opacity:0.4;mix-blend-mode:multiply;}.cls-12,.cls-69,.cls-83{fill:#fff;}.cls-12{opacity:0;}.cls-13{fill:#fbfbfc;opacity:0.02;}.cls-14{fill:#f8f8f9;opacity:0.04;}.cls-15{fill:#f4f4f6;opacity:0.06;}.cls-16{fill:#f1f1f3;opacity:0.08;}.cls-17{fill:#ededf0;opacity:0.1;}.cls-18{fill:#e9e9ed;opacity:0.12;}.cls-19{fill:#e6e6eb;opacity:0.14;}.cls-20{fill:#e2e2e8;opacity:0.16;}.cls-21{fill:#dfdfe5;opacity:0.18;}.cls-22{fill:#dbdbe2;opacity:0.2;}.cls-23{fill:#d8d8df;opacity:0.22;}.cls-24{fill:#d4d4dc;opacity:0.24;}.cls-25{fill:#d0d0d9;opacity:0.25;}.cls-26{fill:#cdcdd6;opacity:0.27;}.cls-27{fill:#c9c9d3;opacity:0.29;}.cls-28{fill:#c6c6d0;opacity:0.31;}.cls-29{fill:#c2c2cd;opacity:0.33;}.cls-30{fill:#bebeca;opacity:0.35;}.cls-31{fill:#bbbbc7;opacity:0.37;}.cls-32{fill:#b7b7c5;opacity:0.39;}.cls-33{fill:#b4b4c2;opacity:0.41;}.cls-34{fill:#b0b0bf;opacity:0.43;}.cls-35{fill:#acacbc;opacity:0.45;}.cls-36{fill:#a9a9b9;opacity:0.47;}.cls-37{fill:#a5a5b6;opacity:0.49;}.cls-38{fill:#a2a2b3;opacity:0.51;}.cls-39{fill:#9e9eb0;opacity:0.53;}.cls-40{fill:#9b9bad;opacity:0.55;}.cls-41{fill:#9797aa;opacity:0.57;}.cls-42{fill:#9393a7;opacity:0.59;}.cls-43{fill:#9090a4;opacity:0.61;}.cls-44{fill:#8c8ca2;opacity:0.63;}.cls-45{fill:#89899f;opacity:0.65;}.cls-46{fill:#85859c;opacity:0.67;}.cls-47{fill:#818199;opacity:0.69;}.cls-48{fill:#7e7e96;opacity:0.71;}.cls-49{fill:#7a7a93;opacity:0.73;}.cls-50{fill:#777790;opacity:0.75;}.cls-51{fill:#73738d;opacity:0.76;}.cls-52{fill:#6f6f8a;opacity:0.78;}.cls-53{fill:#6c6c87;opacity:0.8;}.cls-54{fill:#686884;opacity:0.82;}.cls-55{fill:#656581;opacity:0.84;}.cls-56{fill:#61617e;opacity:0.86;}.cls-57{fill:#5e5e7c;opacity:0.88;}.cls-58,.cls-87,.cls-89{fill:#5a5a79;}.cls-58{opacity:0.9;}.cls-59{fill:#565676;opacity:0.92;}.cls-60{fill:#535373;opacity:0.94;}.cls-61{fill:#4f4f70;opacity:0.96;}.cls-62{fill:#4c4c6d;opacity:0.98;}.cls-63{fill:url(#linear-gradient-3);}.cls-64{fill:url(#linear-gradient-4);}.cls-65{fill:#bf9105;}.cls-66{fill:#363650;}.cls-67{fill:#1e327a;}.cls-68{fill:#2842a2;}.cls-70{fill:url(#linear-gradient-5);}.cls-71{fill:url(#linear-gradient-6);}.cls-72{fill:#99a7d8;}.cls-73{fill:#adb9e0;}.cls-74{fill:url(#linear-gradient-7);}.cls-75{fill:url(#linear-gradient-8);}.cls-76{fill:url(#linear-gradient-9);}.cls-77{fill:#ffcd39;}.cls-78{fill:url(#linear-gradient-10);}.cls-79{fill:#c2cae8;}.cls-80{fill:url(#linear-gradient-11);}.cls-81{opacity:0.1;}.cls-82{fill:url(#linear-gradient-12);}.cls-84{fill:url(#linear-gradient-13);}.cls-85{fill:#9ea4b2;}.cls-86{fill:url(#linear-gradient-14);}.cls-88{fill:#d7deef;}.cls-90{fill:url(#linear-gradient-15);}.cls-91{fill:url(#linear-gradient-16);}.cls-92{fill:#515171;}.cls-93{fill:#6d6d88;}.cls-94{fill:#a3b0dc;}.cls-95{fill:#919ecc;}.cls-96{fill:#d6dcef;}.cls-97{fill:url(#linear-gradient-17);}.cls-98{fill:url(#linear-gradient-18);}.cls-99{fill:url(#linear-gradient-19);}.cls-100{fill:#f1f3f9;}.cls-101{fill:url(#linear-gradient-20);}.cls-102{fill:url(#linear-gradient-21);}.cls-103{fill:url(#linear-gradient-22);}.cls-104{fill:url(#linear-gradient-23);}.cls-105{fill:url(#linear-gradient-24);}.cls-106{fill:url(#linear-gradient-25);}.cls-107{fill:#7d81b1;}.cls-108{fill:#5c629e;}.cls-109{fill:#6c72a8;}.cls-110{fill:url(#linear-gradient-26);}.cls-111{fill:url(#linear-gradient-27);}.cls-112{fill:url(#linear-gradient-28);}.cls-113{fill:url(#linear-gradient-29);}.cls-114{fill:url(#linear-gradient-30);}.cls-115{fill:url(#linear-gradient-31);}.cls-116{fill:url(#linear-gradient-32);}.cls-117{fill:url(#linear-gradient-33);}.cls-118{fill:url(#linear-gradient-34);}.cls-119{fill:url(#linear-gradient-35);}</style><linearGradient id="linear-gradient" x1="106.08" y1="178.31" x2="323.43" y2="178.31" gradientUnits="userSpaceOnUse"><stop offset="0.04" stop-color="#99a7d8"/><stop offset="1" stop-color="#d3daed"/></linearGradient><linearGradient id="linear-gradient-2" x1="322.84" y1="209.55" x2="431.05" y2="209.55" xlink:href="#linear-gradient"/><linearGradient id="linear-gradient-3" x1="102.86" y1="312.54" x2="119.97" y2="312.54" gradientUnits="userSpaceOnUse"><stop offset="0" stop-color="#99a7d8"/><stop offset="0.06" stop-color="#a2afdb"/><stop offset="0.24" stop-color="#b8c2e3"/><stop offset="0.44" stop-color="#c7d0e9"/><stop offset="0.67" stop-color="#d0d8ec"/><stop offset="1" stop-color="#d3daed"/></linearGradient><linearGradient id="linear-gradient-4" x1="148.61" y1="339.14" x2="169.02" y2="339.14" xlink:href="#linear-gradient-3"/><linearGradient id="linear-gradient-5" x1="58.93" y1="356.92" x2="96.51" y2="356.92" xlink:href="#linear-gradient-3"/><linearGradient id="linear-gradient-6" x1="96.51" y1="352.71" x2="148.71" y2="352.71" xlink:href="#linear-gradient-3"/><linearGradient id="linear-gradient-7" x1="32.9" y1="377.66" x2="64.21" y2="377.66" gradientUnits="userSpaceOnUse"><stop offset="0.48" stop-color="#ffc107"/><stop offset="1" stop-color="#ff9800"/></linearGradient><linearGradient id="linear-gradient-8" x1="64.21" y1="380.42" x2="89.32" y2="380.42" xlink:href="#linear-gradient-7"/><linearGradient id="linear-gradient-9" x1="32.9" y1="355.96" x2="89.32" y2="355.96" xlink:href="#linear-gradient-7"/><linearGradient id="linear-gradient-10" x1="89.23" y1="378.49" x2="127.7" y2="378.49" xlink:href="#linear-gradient-7"/><linearGradient id="linear-gradient-11" x1="174.94" y1="280.86" x2="223.9" y2="280.86" xlink:href="#linear-gradient-7"/><linearGradient id="linear-gradient-12" x1="181.84" y1="267.14" x2="197.67" y2="267.14" xlink:href="#linear-gradient-7"/><linearGradient id="linear-gradient-13" x1="173.12" y1="261.05" x2="197.67" y2="261.05" gradientUnits="userSpaceOnUse"><stop offset="0" stop-color="#ff9800"/><stop offset="0.52" stop-color="#ffc107"/></linearGradient><linearGradient id="linear-gradient-14" x1="171.22" y1="284.72" x2="210.51" y2="284.72" xlink:href="#linear-gradient-7"/><linearGradient id="linear-gradient-15" x1="201.25" y1="275.63" x2="223.95" y2="275.63" xlink:href="#linear-gradient-13"/><linearGradient id="linear-gradient-16" x1="208.76" y1="289.17" x2="225.52" y2="289.17" xlink:href="#linear-gradient-7"/><linearGradient id="linear-gradient-17" x1="108.96" y1="185.62" x2="156.2" y2="185.62" gradientUnits="userSpaceOnUse"><stop offset="0.15" stop-color="#ff9800"/><stop offset="1" stop-color="#ffc107"/></linearGradient><linearGradient id="linear-gradient-18" x1="108.96" y1="204.21" x2="125.99" y2="204.21" xlink:href="#linear-gradient-17"/><linearGradient id="linear-gradient-19" x1="125.99" y1="200.44" x2="156.2" y2="200.44" xlink:href="#linear-gradient-17"/><linearGradient id="linear-gradient-20" x1="427.83" y1="250.99" x2="447.4" y2="250.99" xlink:href="#linear-gradient-17"/><linearGradient id="linear-gradient-21" x1="427.83" y1="259.49" x2="437.61" y2="259.49" xlink:href="#linear-gradient-17"/><linearGradient id="linear-gradient-22" x1="437.61" y1="259.49" x2="447.4" y2="259.49" xlink:href="#linear-gradient-17"/><linearGradient id="linear-gradient-23" x1="416.09" y1="214.3" x2="435.65" y2="214.3" xlink:href="#linear-gradient-17"/><linearGradient id="linear-gradient-24" x1="416.09" y1="222.79" x2="425.87" y2="222.79" xlink:href="#linear-gradient-17"/><linearGradient id="linear-gradient-25" x1="425.87" y1="222.79" x2="435.65" y2="222.79" xlink:href="#linear-gradient-17"/><linearGradient id="linear-gradient-26" x1="56.46" y1="206.06" x2="83.76" y2="206.06" xlink:href="#linear-gradient-17"/><linearGradient id="linear-gradient-27" x1="56.46" y1="217.91" x2="70.11" y2="217.91" xlink:href="#linear-gradient-17"/><linearGradient id="linear-gradient-28" x1="70.11" y1="217.91" x2="83.76" y2="217.91" xlink:href="#linear-gradient-17"/><linearGradient id="linear-gradient-29" x1="460.45" y1="318.6" x2="467.13" y2="318.6" xlink:href="#linear-gradient-3"/><linearGradient id="linear-gradient-30" x1="234.9" y1="382.68" x2="285.31" y2="382.68" xlink:href="#linear-gradient-3"/><linearGradient id="linear-gradient-31" x1="285.31" y1="340.95" x2="481.06" y2="340.95" xlink:href="#linear-gradient-3"/><linearGradient id="linear-gradient-32" x1="199.24" y1="410.82" x2="241.24" y2="410.82" xlink:href="#linear-gradient-7"/><linearGradient id="linear-gradient-33" x1="241.24" y1="414.52" x2="274.91" y2="414.52" xlink:href="#linear-gradient-7"/><linearGradient id="linear-gradient-34" x1="199.24" y1="381.72" x2="274.91" y2="381.72" xlink:href="#linear-gradient-7"/><linearGradient id="linear-gradient-35" x1="274.8" y1="421.37" x2="293.9" y2="421.37" xlink:href="#linear-gradient-7"/></defs><title>Logistics industry</title><g class="cls-1"><g id="Layer_2" data-name="Layer 2"><g id="Layer_1-2" data-name="Layer 1"><polygon class="cls-2" points="215.8 5.73 431.05 130.78 323.43 193.01 107.42 68.3 215.8 5.73"/><polygon class="cls-3" points="215.8 5.73 431.05 130.78 323.43 193.01 106.32 68.99 215.8 5.73"/><polygon class="cls-4" points="106.08 68.3 106.08 162.04 322.84 288.32 323.43 193.01 106.08 68.3"/><polygon class="cls-5" points="322.84 288.32 430.42 224.15 431.05 130.78 323.43 193.01 322.84 288.32"/><polygon class="cls-6" points="128.09 105.19 146.94 115.62 146.94 137.83 128.09 126.95 128.09 105.19"/><polygon class="cls-6" points="165.53 126.21 184.38 136.65 184.38 158.86 165.53 147.97 165.53 126.21"/><polygon class="cls-6" points="202.97 147.24 221.82 157.67 221.82 179.88 202.97 169 202.97 147.24"/><polygon class="cls-6" points="240.42 168.26 259.26 178.69 259.26 200.9 240.42 190.02 240.42 168.26"/><polygon class="cls-6" points="277.86 189.28 296.71 199.72 296.71 221.93 277.86 211.05 277.86 189.28"/><polygon class="cls-6" points="128.09 141.75 146.94 152.18 146.94 174.4 128.09 163.51 128.09 141.75"/><polygon class="cls-6" points="165.53 162.77 184.38 173.21 184.38 195.42 165.53 184.54 165.53 162.77"/><polygon class="cls-6" points="202.97 183.8 221.82 194.23 221.82 216.44 202.97 205.56 202.97 183.8"/><polygon class="cls-6" points="240.42 204.82 259.26 215.26 259.26 237.47 240.42 226.59 240.42 204.82"/><polygon class="cls-6" points="277.86 225.85 296.71 236.28 296.71 258.49 277.86 247.61 277.86 225.85"/><polygon class="cls-7" points="106.08 80.83 323.37 205.21 323.42 194.79 106.08 70.39 106.08 80.83"/><polygon class="cls-8" points="104.19 66.96 321.08 191.1 321.08 197.38 104.08 73.17 104.19 66.96"/><polygon class="cls-8" points="206.6 7.64 423.49 131.79 423.49 138.06 206.49 13.85 206.6 7.64"/><polygon class="cls-7" points="323.39 198.2 431.02 135.84 431.05 130.78 323.43 193.01 323.39 198.2"/><polygon class="cls-9" points="321.08 191.1 434.88 125.01 434.88 131.43 321.08 197.38 321.08 191.1"/><polygon class="cls-9" points="120.97 70.43 219.89 14.71 219.89 21.13 120.97 76.7 120.97 70.43"/><polygon class="cls-10" points="117.18 59.33 332.43 184.38 321.29 190.98 104.19 66.96 117.18 59.33"/><polygon class="cls-10" points="421.89 117.48 309.94 184.38 321.08 190.98 434.88 125.11 421.89 117.48"/><polygon class="cls-10" points="219.37 0 104.19 66.96 115.32 73.56 232.36 7.63 219.37 0"/><polygon class="cls-10" points="219.63 0 434.88 125.05 423.75 131.65 206.64 7.63 219.63 0"/><g class="cls-11"><polygon class="cls-12" points="75.04 341.54 0 386.13 57.72 419.29 132.77 374.71 75.04 341.54"/><polygon class="cls-13" points="75.04 341.54 1.42 385.28 59.14 418.45 132.77 374.71 75.04 341.54"/><polygon class="cls-14" points="75.04 341.54 2.84 384.44 60.56 417.6 132.77 374.71 75.04 341.54"/><polygon class="cls-15" points="75.04 341.54 4.26 383.6 61.98 416.76 132.77 374.71 75.04 341.54"/><polygon class="cls-16" points="75.04 341.54 5.69 382.75 63.41 415.92 132.77 374.71 75.04 341.54"/><polygon class="cls-17" points="75.04 341.54 7.11 381.91 64.83 415.07 132.77 374.71 75.04 341.54"/><polygon class="cls-18" points="75.04 341.54 8.53 381.06 66.25 414.23 132.77 374.71 75.04 341.54"/><polygon class="cls-19" points="75.04 341.54 9.95 380.22 67.67 413.38 132.77 374.71 75.04 341.54"/><polygon class="cls-20" points="75.04 341.54 11.37 379.38 69.09 412.54 132.77 374.71 75.04 341.54"/><polygon class="cls-21" points="75.04 341.54 12.79 378.53 70.51 411.7 132.77 374.71 75.04 341.54"/><polygon class="cls-22" points="75.04 341.54 14.22 377.69 71.94 410.85 132.77 374.71 75.04 341.54"/><polygon class="cls-23" points="75.04 341.54 15.64 376.85 73.36 410.01 132.77 374.71 75.04 341.54"/><polygon class="cls-24" points="75.04 341.54 17.06 376 74.78 409.16 132.77 374.71 75.04 341.54"/><polygon class="cls-25" points="75.04 341.54 18.48 375.16 76.2 408.32 132.77 374.71 75.04 341.54"/><polygon class="cls-26" points="75.04 341.54 19.9 374.31 77.62 407.48 132.77 374.71 75.04 341.54"/><polygon class="cls-27" points="75.04 341.54 21.32 373.47 79.04 406.63 132.77 374.71 75.04 341.54"/><polygon class="cls-28" points="75.04 341.54 22.75 372.63 80.47 405.79 132.77 374.71 75.04 341.54"/><polygon class="cls-29" points="75.04 341.54 24.17 371.78 81.89 404.94 132.77 374.71 75.04 341.54"/><polygon class="cls-30" points="75.04 341.54 25.59 370.94 83.31 404.1 132.77 374.71 75.04 341.54"/><polygon class="cls-31" points="75.04 341.54 27.01 370.09 84.73 403.26 132.77 374.71 75.04 341.54"/><polygon class="cls-32" points="75.04 341.54 28.43 369.25 86.15 402.41 132.77 374.71 75.04 341.54"/><polygon class="cls-33" points="75.04 341.54 29.85 368.4 87.57 401.57 132.77 374.71 75.04 341.54"/><polygon class="cls-34" points="75.04 341.54 31.27 367.56 89 400.72 132.77 374.71 75.04 341.54"/><polygon class="cls-35" points="75.04 341.54 32.7 366.72 90.42 399.88 132.77 374.71 75.04 341.54"/><polygon class="cls-36" points="75.04 341.54 34.12 365.87 91.84 399.04 132.77 374.71 75.04 341.54"/><polygon class="cls-37" points="75.04 341.54 35.54 365.03 93.26 398.19 132.77 374.71 75.04 341.54"/><polygon class="cls-38" points="75.04 341.54 36.96 364.19 94.68 397.35 132.77 374.71 75.04 341.54"/><polygon class="cls-39" points="75.04 341.54 38.38 363.34 96.1 396.5 132.77 374.71 75.04 341.54"/><polygon class="cls-40" points="75.04 341.54 39.8 362.5 97.52 395.66 132.77 374.71 75.04 341.54"/><polygon class="cls-41" points="75.04 341.54 41.23 361.65 98.95 394.82 132.77 374.71 75.04 341.54"/><polygon class="cls-42" points="75.04 341.54 42.65 360.81 100.37 393.97 132.77 374.71 75.04 341.54"/><polygon class="cls-43" points="75.04 341.54 44.07 359.96 101.79 393.13 132.77 374.71 75.04 341.54"/><polygon class="cls-44" points="75.04 341.54 45.49 359.12 103.21 392.29 132.77 374.71 75.04 341.54"/><polygon class="cls-45" points="75.04 341.54 46.91 358.28 104.63 391.44 132.77 374.71 75.04 341.54"/><polygon class="cls-46" points="75.04 341.54 48.33 357.43 106.05 390.6 132.77 374.71 75.04 341.54"/><polygon class="cls-47" points="75.04 341.54 49.76 356.59 107.47 389.75 132.77 374.71 75.04 341.54"/><polygon class="cls-48" points="75.04 341.54 51.18 355.75 108.9 388.91 132.77 374.71 75.04 341.54"/><polygon class="cls-49" points="75.04 341.54 52.6 354.9 110.32 388.06 132.77 374.71 75.04 341.54"/><polygon class="cls-50" points="75.04 341.54 54.02 354.06 111.74 387.22 132.77 374.71 75.04 341.54"/><polygon class="cls-51" points="75.04 341.54 55.44 353.21 113.16 386.38 132.77 374.71 75.04 341.54"/><polygon class="cls-52" points="75.04 341.54 56.86 352.37 114.58 385.53 132.77 374.71 75.04 341.54"/><polygon class="cls-53" points="75.04 341.54 58.28 351.52 116 384.69 132.77 374.71 75.04 341.54"/><polygon class="cls-54" points="75.04 341.54 59.71 350.68 117.43 383.85 132.77 374.71 75.04 341.54"/><polygon class="cls-55" points="75.04 341.54 61.13 349.84 118.85 383 132.77 374.71 75.04 341.54"/><polygon class="cls-56" points="75.04 341.54 62.55 348.99 120.27 382.16 132.77 374.71 75.04 341.54"/><polygon class="cls-57" points="75.04 341.54 63.97 348.15 121.69 381.31 132.77 374.71 75.04 341.54"/><polygon class="cls-58" points="75.04 341.54 65.39 347.31 123.11 380.47 132.77 374.71 75.04 341.54"/><polygon class="cls-59" points="75.04 341.54 66.81 346.46 124.53 379.63 132.77 374.71 75.04 341.54"/><polygon class="cls-60" points="75.04 341.54 68.24 345.62 125.96 378.78 132.77 374.71 75.04 341.54"/><polygon class="cls-61" points="75.04 341.54 69.66 344.77 127.38 377.94 132.77 374.71 75.04 341.54"/><polygon class="cls-62" points="75.04 341.54 71.08 343.93 128.8 377.09 132.77 374.71 75.04 341.54"/><polygon class="cls-6" points="75.04 341.54 72.5 343.09 130.22 376.25 132.77 374.71 75.04 341.54"/></g><polygon class="cls-63" points="103.77 289.08 111.13 301.46 119.97 307.67 119.71 336.01 102.91 316.52 102.86 289.53 103.77 289.08"/><polygon class="cls-2" points="102.86 289.53 111.13 303.45 119.97 309.65 119.71 337.99 102.91 318.5 102.86 289.53"/><polygon class="cls-64" points="149.27 322.5 169.02 325.52 168.76 355.11 168.1 355.77 149.32 351.47 148.61 323.16 149.27 322.5"/><polygon class="cls-2" points="148.61 323.16 168.36 326.18 168.1 355.77 148.66 352.13 148.61 323.16"/><polygon class="cls-65" points="47.26 374.66 72.36 360.2 103.67 378.28 78.57 392.74 47.26 374.66"/><polygon class="cls-66" points="92.57 391.85 76.77 400.33 75.33 378.65 89.26 378.65 89.23 386.73 90.78 387.16 92.57 391.85"/><polygon class="cls-66" points="141.67 363.38 126.06 372.76 124.43 350.18 138.37 350.18 139.07 356.52 139.88 358.69 141.67 363.38"/><polygon class="cls-67" points="121 372.11 114.76 368.48 114.76 354.05 121 357.25 121 372.11"/><path class="cls-68" d="M125.45,355.2a15.49,15.49,0,0,0-7,12.1c0,4.44,3.14,6.33,7,4.2s7-7.58,7-12.1S129.29,353,125.45,355.2Z"/><polygon class="cls-66" points="78.58 405 72.35 401.36 72.35 386.93 78.58 390.14 78.58 405"/><path class="cls-66" d="M128.6,375.91l-4.33-2.52a3.83,3.83,0,0,1-1.9-3.31V357.85l6.23,3.21Z"/><path class="cls-6" d="M133.05,359a15.48,15.48,0,0,0-7,12.1c0,4.44,3.14,6.32,7,4.19s7-7.57,7-12.1S136.9,356.79,133.05,359Z"/><path class="cls-69" d="M133.05,362.69a8.47,8.47,0,0,0-3.82,6.61c0,2.43,1.72,3.46,3.82,2.3a8.35,8.35,0,0,0,3.82-6.62C136.87,362.5,135.15,361.47,133.05,362.69Z"/><polygon class="cls-2" points="96.51 353.27 148.71 323.16 111.13 301.46 58.93 331.58 96.51 353.27"/><polygon class="cls-70" points="96.51 353.27 96.51 382.26 58.93 360.56 58.93 331.58 96.51 353.27"/><polygon class="cls-71" points="96.51 382.26 148.71 352.15 148.71 323.16 96.51 353.27 96.51 382.26"/><polygon class="cls-6" points="96.51 372.24 148.71 342.56 148.71 338.98 96.51 368.66 96.51 372.24"/><polygon class="cls-6" points="96.51 372.21 67.6 355.72 67.6 352.15 96.51 368.63 96.51 372.21"/><polygon class="cls-72" points="31.14 384.1 31.14 389.3 64.21 408.33 64.21 403.06 31.14 384.1"/><polygon class="cls-73" points="64.22 408.33 73.66 403.06 73.66 397.61 64.21 403.06 64.22 408.33"/><polygon class="cls-74" points="32.9 354.15 64.21 372.24 64.21 401.16 32.9 383.08 32.9 354.15"/><polygon class="cls-72" points="32.9 356.27 62.09 373.03 62.09 391.46 32.9 374.69 32.9 356.27"/><polygon class="cls-69" points="56.05 390.59 62.92 394.54 62.92 398.88 56.05 394.93 56.05 390.59"/><polygon class="cls-6" points="42.5 383.59 54.61 390.82 54.61 392.46 42.5 385.22 42.5 383.59"/><polygon class="cls-69" points="34.27 377.88 41.15 381.82 41.15 386.16 34.27 382.21 34.27 377.88"/><path class="cls-75" d="M75.05,402.25a9.36,9.36,0,0,1-.11-1.44c0-5.12,3.63-11.41,8.06-14,2.51-1.44,4.75-1.38,6.23-.11l.09-29L64.21,372.23v30.83l9.45-5.45v5.45Z"/><path class="cls-6" d="M83,388.09a15.52,15.52,0,0,0-7,12.1c0,4.44,3.15,6.33,7,4.2s7-7.58,7-12.1S86.84,385.87,83,388.09Z"/><path class="cls-69" d="M83,391.77a8.47,8.47,0,0,0-3.82,6.62c0,2.43,1.72,3.46,3.82,2.29a8.32,8.32,0,0,0,3.82-6.62C86.82,391.59,85.1,390.56,83,391.77Z"/><polygon class="cls-76" points="32.9 354.15 58 339.69 89.32 357.77 64.21 372.24 32.9 354.15"/><polygon class="cls-72" points="66.38 374.19 87.15 362.46 87.15 374.43 76.79 380.42 76.77 388.89 66.47 394.84 66.38 374.19"/><path class="cls-77" d="M138.46,358l.06.25a6.39,6.39,0,0,1,1.84,4.86c0,.35,0,.71-.05,1.07l6.3-3.68v-7.23Z"/><path class="cls-78" d="M125.72,372.62a8.43,8.43,0,0,1-.09-1.27,15.17,15.17,0,0,1,2.07-7.11L89.23,386.6v.22a6.33,6.33,0,0,1,1.85,4.85,9.59,9.59,0,0,1-.06,1.07Z"/><polygon class="cls-3" points="32.9 383.08 31.14 384.1 64.21 403.06 65.99 402.04 32.9 383.08"/><polygon class="cls-3" points="73.66 397.61 72.16 396.73 62.92 402.1 64.43 402.97 73.66 397.61"/><polygon class="cls-79" points="53.18 367.92 50.46 366.35 38.76 378.06 41.48 379.62 53.18 367.92"/><polygon class="cls-79" points="39.74 360.2 32.9 367.04 32.9 374.69 36.29 376.64 47.99 364.94 39.74 360.2"/><polygon class="cls-79" points="76.41 368.53 74.5 369.6 66.43 386.03 66.44 388.8 76.41 368.53"/><polygon class="cls-79" points="66.39 375.1 66.42 383.51 72.78 370.58 67.01 373.84 66.39 375.1"/><path class="cls-6" d="M132.17,313.46,124.79,309l-29.42,17.2-6.63-3.83a.49.49,0,0,0-.73.42v12.77a.48.48,0,0,0,.52.48l20-1.25a.48.48,0,0,0,.21-.9l-6-3.44Z"/><g class="cls-11"><polygon class="cls-12" points="174.13 281.37 146.45 298.18 214.44 337.43 242.14 320.63 174.13 281.37"/><polygon class="cls-13" points="174.13 281.37 146.96 297.87 214.95 337.13 242.14 320.63 174.13 281.37"/><polygon class="cls-14" points="174.13 281.37 147.46 297.56 215.46 336.82 242.14 320.63 174.13 281.37"/><polygon class="cls-15" points="174.13 281.37 147.97 297.25 215.97 336.51 242.14 320.63 174.13 281.37"/><polygon class="cls-16" points="174.13 281.37 148.48 296.95 216.47 336.2 242.14 320.63 174.13 281.37"/><polygon class="cls-17" points="174.13 281.37 148.99 296.64 216.98 335.9 242.14 320.63 174.13 281.37"/><polygon class="cls-18" points="174.13 281.37 149.49 296.33 217.49 335.59 242.14 320.63 174.13 281.37"/><polygon class="cls-19" points="174.13 281.37 150 296.02 217.99 335.28 242.14 320.63 174.13 281.37"/><polygon class="cls-20" points="174.13 281.37 150.5 295.72 218.5 334.97 242.14 320.63 174.13 281.37"/><polygon class="cls-21" points="174.13 281.37 151.01 295.41 219.01 334.67 242.14 320.63 174.13 281.37"/><polygon class="cls-22" points="174.13 281.37 151.52 295.1 219.51 334.36 242.14 320.63 174.13 281.37"/><polygon class="cls-23" points="174.13 281.37 152.03 294.79 220.02 334.05 242.14 320.63 174.13 281.37"/><polygon class="cls-24" points="174.13 281.37 152.53 294.49 220.53 333.74 242.14 320.63 174.13 281.37"/><polygon class="cls-25" points="174.13 281.37 153.04 294.18 221.03 333.44 242.14 320.63 174.13 281.37"/><polygon class="cls-26" points="174.13 281.37 153.55 293.87 221.54 333.13 242.14 320.63 174.13 281.37"/><polygon class="cls-27" points="174.13 281.37 154.05 293.56 222.05 332.82 242.14 320.63 174.13 281.37"/><polygon class="cls-28" points="174.13 281.37 154.56 293.25 222.55 332.51 242.14 320.63 174.13 281.37"/><polygon class="cls-29" points="174.13 281.37 155.07 292.95 223.06 332.2 242.14 320.63 174.13 281.37"/><polygon class="cls-30" points="174.13 281.37 155.57 292.64 223.57 331.9 242.14 320.63 174.13 281.37"/><polygon class="cls-31" points="174.13 281.37 156.08 292.33 224.07 331.59 242.14 320.63 174.13 281.37"/><polygon class="cls-32" points="174.13 281.37 156.59 292.02 224.58 331.28 242.14 320.63 174.13 281.37"/><polygon class="cls-33" points="174.13 281.37 157.09 291.72 225.09 330.97 242.14 320.63 174.13 281.37"/><polygon class="cls-34" points="174.13 281.37 157.6 291.41 225.59 330.67 242.14 320.63 174.13 281.37"/><polygon class="cls-35" points="174.13 281.37 158.11 291.1 226.1 330.36 242.14 320.63 174.13 281.37"/><polygon class="cls-36" points="174.13 281.37 158.61 290.79 226.61 330.05 242.14 320.63 174.13 281.37"/><polygon class="cls-37" points="174.13 281.37 159.12 290.49 227.12 329.74 242.14 320.63 174.13 281.37"/><polygon class="cls-38" points="174.13 281.37 159.63 290.18 227.62 329.44 242.14 320.63 174.13 281.37"/><polygon class="cls-39" points="174.13 281.37 160.13 289.87 228.13 329.13 242.14 320.63 174.13 281.37"/><polygon class="cls-40" points="174.13 281.37 160.64 289.56 228.64 328.82 242.14 320.63 174.13 281.37"/><polygon class="cls-41" points="174.13 281.37 161.15 289.26 229.14 328.51 242.14 320.63 174.13 281.37"/><polygon class="cls-42" points="174.13 281.37 161.66 288.95 229.65 328.2 242.14 320.63 174.13 281.37"/><polygon class="cls-43" points="174.13 281.37 162.16 288.64 230.16 327.9 242.14 320.63 174.13 281.37"/><polygon class="cls-44" points="174.13 281.37 162.67 288.33 230.66 327.59 242.14 320.63 174.13 281.37"/><polygon class="cls-45" points="174.13 281.37 163.18 288.02 231.17 327.28 242.14 320.63 174.13 281.37"/><polygon class="cls-46" points="174.13 281.37 163.68 287.72 231.68 326.97 242.14 320.63 174.13 281.37"/><polygon class="cls-47" points="174.13 281.37 164.19 287.41 232.18 326.67 242.14 320.63 174.13 281.37"/><polygon class="cls-48" points="174.13 281.37 164.7 287.1 232.69 326.36 242.14 320.63 174.13 281.37"/><polygon class="cls-49" points="174.13 281.37 165.2 286.8 233.2 326.05 242.14 320.63 174.13 281.37"/><polygon class="cls-50" points="174.13 281.37 165.71 286.49 233.7 325.74 242.14 320.63 174.13 281.37"/><polygon class="cls-51" points="174.13 281.37 166.22 286.18 234.21 325.44 242.14 320.63 174.13 281.37"/><polygon class="cls-52" points="174.13 281.37 166.72 285.87 234.72 325.13 242.14 320.63 174.13 281.37"/><polygon class="cls-53" points="174.13 281.37 167.23 285.56 235.22 324.82 242.14 320.63 174.13 281.37"/><polygon class="cls-54" points="174.13 281.37 167.74 285.26 235.73 324.51 242.14 320.63 174.13 281.37"/><polygon class="cls-55" points="174.13 281.37 168.24 284.95 236.24 324.21 242.14 320.63 174.13 281.37"/><polygon class="cls-56" points="174.13 281.37 168.75 284.64 236.75 323.9 242.14 320.63 174.13 281.37"/><polygon class="cls-57" points="174.13 281.37 169.26 284.33 237.25 323.59 242.14 320.63 174.13 281.37"/><polygon class="cls-58" points="174.13 281.37 169.76 284.03 237.76 323.28 242.14 320.63 174.13 281.37"/><polygon class="cls-59" points="174.13 281.37 170.27 283.72 238.27 322.98 242.14 320.63 174.13 281.37"/><polygon class="cls-60" points="174.13 281.37 170.78 283.41 238.77 322.67 242.14 320.63 174.13 281.37"/><polygon class="cls-61" points="174.13 281.37 171.28 283.1 239.28 322.36 242.14 320.63 174.13 281.37"/><polygon class="cls-62" points="174.13 281.37 171.79 282.8 239.79 322.05 242.14 320.63 174.13 281.37"/><polygon class="cls-6" points="174.13 281.37 172.3 282.49 240.29 321.74 242.14 320.63 174.13 281.37"/></g><polygon class="cls-80" points="197.47 266.77 223.9 281.86 201.22 294.95 174.94 279.78 197.47 266.77"/><polygon class="cls-81" points="197.47 266.77 223.9 281.86 201.22 294.95 174.94 279.78 197.47 266.77"/><polygon class="cls-82" points="197.67 258.23 197.67 266.9 181.84 276.04 181.84 267.02 197.67 258.23"/><polygon class="cls-83" points="197.67 258.23 197.67 266.9 181.84 276.04 181.84 267.02 197.67 258.23"/><polygon class="cls-84" points="173.12 266.01 192.06 255.08 197.67 258.23 182.49 267.02 173.12 266.01"/><polygon class="cls-85" points="189 291.04 196.43 292.78 201.35 289.3 194.18 285.39 189 291.04"/><path class="cls-6" d="M181,284.57v-.05a3.69,3.69,0,0,0,.89-2.65,10.4,10.4,0,0,0-4.66-8.07,3.42,3.42,0,0,0-3.08-.42h0a2.82,2.82,0,0,0-.44.26l-4.89,2.91,4.68,4.83.35-.48a10.48,10.48,0,0,0,2,2.6l-.63,4.41,5-2.85a2.41,2.41,0,0,0,.66-.38Z"/><path class="cls-6" d="M206.37,299.09v0a3.69,3.69,0,0,0,.88-2.65,10.37,10.37,0,0,0-4.66-8.07,3.37,3.37,0,0,0-3.07-.42h0a2.43,2.43,0,0,0-.44.26l-4.89,2.91,4.68,4.82.34-.47a11.17,11.17,0,0,0,2,2.6l-.63,4.41,5-2.86a1.94,1.94,0,0,0,.67-.38Z"/><path class="cls-86" d="M179.4,265.24l3.08,1.78v6.54a3.69,3.69,0,0,0,1.85,3.19l12,6.95a3.25,3.25,0,0,0,4.88-2.81v-3l7.51,4.34,1.75,22.74-5.41-3.12v-4a8.14,8.14,0,0,0-4.07-7L198,289a2.74,2.74,0,0,0-4.12,2.37v3.87l-15-8.62v-3.91a8.17,8.17,0,0,0-4.15-7.1l-3.46-1.94V270A5.45,5.45,0,0,1,179.4,265.24Z"/><path class="cls-87" d="M197.93,291c-2.56-1.48-4.65-.27-4.65,2.69a10.36,10.36,0,0,0,4.66,8.08c2.56,1.48,4.65.26,4.65-2.7A10.37,10.37,0,0,0,197.93,291Z"/><path class="cls-88" d="M197.93,293.62c-1.33-.77-2.41-.14-2.41,1.4a5.35,5.35,0,0,0,2.42,4.18c1.33.77,2.41.14,2.41-1.39A5.38,5.38,0,0,0,197.93,293.62Z"/><path class="cls-89" d="M197.93,294.38a5.4,5.4,0,0,1,2.39,3.8,2.22,2.22,0,0,0,0-.37,5.38,5.38,0,0,0-2.42-4.19c-1.33-.77-2.41-.14-2.41,1.4a2.56,2.56,0,0,0,0,.39C195.71,294.15,196.72,293.68,197.93,294.38Z"/><path class="cls-87" d="M172.52,276.51c-2.55-1.48-4.65-.26-4.65,2.7a10.34,10.34,0,0,0,4.66,8.07c2.57,1.48,4.66.26,4.65-2.7A10.36,10.36,0,0,0,172.52,276.51Z"/><path class="cls-88" d="M172.52,279.1c-1.32-.76-2.41-.13-2.41,1.4a5.37,5.37,0,0,0,2.42,4.19c1.33.76,2.42.13,2.41-1.4A5.37,5.37,0,0,0,172.52,279.1Z"/><path class="cls-89" d="M172.52,279.86a5.47,5.47,0,0,1,2.4,3.8c0-.12,0-.24,0-.37a5.37,5.37,0,0,0-2.42-4.19c-1.32-.76-2.41-.13-2.41,1.4a2.56,2.56,0,0,0,0,.39C170.3,279.63,171.31,279.16,172.52,279.86Z"/><polygon class="cls-90" points="201.25 277.85 216.44 269.07 223.95 273.4 208.76 282.19 201.25 277.85"/><polygon class="cls-91" points="210.51 304.93 208.76 282.19 223.95 273.4 225.52 296.41 210.51 304.93"/><polygon class="cls-6" points="181.42 266.49 181.42 247.22 182.42 247.8 182.42 267.06 181.42 266.49"/><polygon class="cls-87" points="182.42 247.8 183.43 247.22 183.43 266.49 182.42 267.06 182.42 247.8"/><polygon class="cls-6" points="204.97 280.02 197.83 244.81 200.23 246.2 207.37 281.37 204.97 280.02"/><polygon class="cls-87" points="200.23 246.2 202.63 244.81 209.76 280.02 207.37 281.37 200.23 246.2"/><polygon class="cls-6" points="216.78 273.21 211.69 247.93 214.09 249.31 219.17 274.57 216.78 273.21"/><polygon class="cls-87" points="214.09 249.31 216.48 247.93 221.57 273.21 219.17 274.57 214.09 249.31"/><polygon class="cls-6" points="180.45 247.19 200.35 235.71 220.25 247.19 200.43 258.74 180.45 247.19"/><polygon class="cls-87" points="184.16 247.41 201.13 237.78 204.2 239.55 187.25 249.19 184.16 247.41"/><polygon class="cls-87" points="190.21 250.91 207.18 241.29 210.25 243.06 193.29 252.69 190.21 250.91"/><polygon class="cls-87" points="196.26 254.42 213.22 244.79 216.3 246.57 199.34 256.2 196.26 254.42"/><polygon class="cls-87" points="180.45 247.22 180.45 248.74 200.35 260.29 200.43 258.76 180.45 247.22"/><polygon class="cls-92" points="200.35 260.29 220.25 248.8 220.25 247.22 200.43 258.76 200.35 260.29"/><polygon class="cls-6" points="209.21 285.55 230.79 273.1 230.79 276.65 209.21 289.11 209.21 285.55"/><polygon class="cls-87" points="209.21 285.55 208.49 285.1 208.49 288.65 209.21 289.11 209.21 285.55"/><polygon class="cls-93" points="208.49 285.14 230.06 272.68 230.79 273.1 209.21 285.55 208.49 285.14"/><polygon class="cls-6" points="209.21 293.44 230.79 280.99 230.79 284.54 209.21 297 209.21 293.44"/><polygon class="cls-87" points="209.21 293.44 208.49 292.99 208.49 296.55 209.21 297 209.21 293.44"/><polygon class="cls-93" points="208.49 293.03 230.06 280.57 230.79 280.99 209.21 293.44 208.49 293.03"/><polygon class="cls-6" points="223.71 257.08 223.71 301.7 226.16 303.19 226.16 261.16 223.71 257.08"/><polygon class="cls-87" points="226.16 261.16 228.73 259.81 228.73 301.7 226.16 303.19 226.16 261.16"/><polygon class="cls-93" points="223.71 257.08 226.16 255.6 228.73 259.81 226.16 261.16 223.71 257.08"/><polygon class="cls-6" points="211.78 263.82 211.78 308.44 214.23 309.94 214.23 267.9 211.78 263.82"/><polygon class="cls-87" points="214.23 267.9 216.8 266.55 216.8 308.44 214.23 309.94 214.23 267.9"/><polygon class="cls-93" points="211.78 263.82 214.23 262.34 216.8 266.55 214.23 267.9 211.78 263.82"/><path class="cls-93" d="M213.43,306.69l24.33,14.24a4.06,4.06,0,0,0,4.15,0h0a1.44,1.44,0,0,0,0-2.49L217.31,304.3,213.43,306Z"/><path class="cls-93" d="M225.25,299.87l24.33,14.27a4.08,4.08,0,0,0,4.16,0h0a1.45,1.45,0,0,0,0-2.49l-24.58-14.11-3.88,1.65Z"/><path class="cls-6" d="M213.43,306,238,320.33a4.06,4.06,0,0,0,4.15,0h0a1.44,1.44,0,0,0,0-2.49l-24.57-14.12Z"/><path class="cls-6" d="M225.25,299.16l24.54,14.37a4.06,4.06,0,0,0,4.15,0h0a1.44,1.44,0,0,0,0-2.49L229.34,296.9Z"/><polygon class="cls-73" points="209.74 292.64 241.27 274.44 259.05 284.7 227.52 302.91 209.74 292.64"/><polygon class="cls-94" points="209.74 292.64 209.74 313.26 227.52 323.52 227.52 302.91 209.74 292.64"/><polygon class="cls-69" points="210.56 294.49 210.56 296.43 215.04 299.01 215.04 297.07 210.56 294.49"/><polygon class="cls-72" points="227.52 323.52 259.05 305.37 259.05 284.75 227.52 302.91 227.52 323.52"/><polygon class="cls-69" points="216.85 317.36 216.85 296.75 220.41 298.8 220.41 319.42 216.85 317.36"/><polygon class="cls-69" points="216.85 296.75 248.39 278.58 252.07 280.58 220.41 298.8 216.85 296.75"/><path class="cls-12" d="M87.09,209.55l42-24.36a2.81,2.81,0,0,0,0-4.86l-48.25-28a6.47,6.47,0,0,0-6.53,0L32.27,176.73a2.81,2.81,0,0,0,0,4.86l48.28,28A6.51,6.51,0,0,0,87.09,209.55Z"/><path class="cls-13" d="M87.06,209.4l41.78-24.24a2.79,2.79,0,0,0,0-4.83l-48-27.86a6.46,6.46,0,0,0-6.5,0L32.54,176.75a2.8,2.8,0,0,0,0,4.84l48,27.81A6.51,6.51,0,0,0,87.06,209.4Z"/><path class="cls-14" d="M87,209.24l41.56-24.1a2.78,2.78,0,0,0,0-4.8L80.86,152.63a6.45,6.45,0,0,0-6.47,0L32.8,176.78a2.77,2.77,0,0,0,0,4.8l47.77,27.66A6.41,6.41,0,0,0,87,209.24Z"/><path class="cls-15" d="M87,209.08l41.33-24a2.77,2.77,0,0,0,0-4.78L80.86,152.78a6.42,6.42,0,0,0-6.43,0l-41.37,24a2.76,2.76,0,0,0,0,4.78l47.5,27.51A6.38,6.38,0,0,0,87,209.08Z"/><path class="cls-16" d="M87,208.93l41.1-23.84a2.74,2.74,0,0,0,0-4.75l-47.19-27.4a6.37,6.37,0,0,0-6.4,0L33.33,176.82a2.74,2.74,0,0,0,0,4.75l47.24,27.36A6.35,6.35,0,0,0,87,208.93Z"/><path class="cls-17" d="M86.92,208.77l40.87-23.7a2.73,2.73,0,0,0,0-4.72L80.86,153.09a6.34,6.34,0,0,0-6.36,0L33.59,176.85a2.73,2.73,0,0,0,0,4.72l47,27.21A6.35,6.35,0,0,0,86.92,208.77Z"/><path class="cls-18" d="M86.88,208.62l40.65-23.57a2.72,2.72,0,0,0,0-4.7l-46.67-27.1a6.29,6.29,0,0,0-6.33,0L33.85,176.87a2.72,2.72,0,0,0,0,4.7l46.71,27.05A6.3,6.3,0,0,0,86.88,208.62Z"/><path class="cls-19" d="M86.85,208.46,127.26,185a2.69,2.69,0,0,0,0-4.67l-46.4-26.94a6.26,6.26,0,0,0-6.29,0L34.12,176.89a2.69,2.69,0,0,0,0,4.67l46.45,26.9A6.24,6.24,0,0,0,86.85,208.46Z"/><path class="cls-20" d="M86.81,208.31,127,185a2.68,2.68,0,0,0,0-4.64l-46.14-26.8a6.25,6.25,0,0,0-6.26,0L34.38,176.92a2.68,2.68,0,0,0,0,4.64l46.19,26.75A6.21,6.21,0,0,0,86.81,208.31Z"/><path class="cls-21" d="M86.78,208.15l40-23.17a2.67,2.67,0,0,0,0-4.62L80.86,153.72a6.18,6.18,0,0,0-6.22,0l-40,23.22a2.67,2.67,0,0,0,0,4.62l45.92,26.59A6.18,6.18,0,0,0,86.78,208.15Z"/><path class="cls-22" d="M86.75,208l39.72-23a2.65,2.65,0,0,0,0-4.59L80.85,153.87a6.15,6.15,0,0,0-6.18,0L34.91,177a2.65,2.65,0,0,0,0,4.59L80.57,208A6.17,6.17,0,0,0,86.75,208Z"/><path class="cls-23" d="M86.71,207.84l39.5-22.91a2.64,2.64,0,0,0,0-4.56L80.85,154a6.08,6.08,0,0,0-6.14,0L35.17,177a2.65,2.65,0,0,0,0,4.57l45.4,26.29A6.12,6.12,0,0,0,86.71,207.84Z"/><path class="cls-24" d="M86.68,207.68,126,184.91a2.63,2.63,0,0,0,0-4.54l-45.1-26.19a6.12,6.12,0,0,0-6.11,0L35.43,177a2.62,2.62,0,0,0,0,4.54l45.13,26.14A6.09,6.09,0,0,0,86.68,207.68Z"/><path class="cls-25" d="M86.64,207.53l39-22.65a2.6,2.6,0,0,0,0-4.51l-44.83-26a6,6,0,0,0-6.07,0L35.7,177a2.6,2.6,0,0,0,0,4.51l44.87,26A6,6,0,0,0,86.64,207.53Z"/><path class="cls-26" d="M86.61,207.37l38.81-22.51a2.59,2.59,0,0,0,0-4.48L80.85,154.5a6,6,0,0,0-6,0L36,177.05a2.6,2.6,0,0,0,0,4.49l44.61,25.83A6,6,0,0,0,86.61,207.37Z"/><path class="cls-27" d="M86.57,207.22l38.59-22.38a2.58,2.58,0,0,0,0-4.46L80.85,154.65a6,6,0,0,0-6,0L36.22,177.08a2.58,2.58,0,0,0,0,4.46l44.34,25.68A6,6,0,0,0,86.57,207.22Z"/><path class="cls-28" d="M86.54,207.06l38.35-22.24a2.57,2.57,0,0,0,0-4.44l-44-25.57a5.93,5.93,0,0,0-6,0L36.49,177.1a2.56,2.56,0,0,0,0,4.43l44.08,25.53A6,6,0,0,0,86.54,207.06Z"/><path class="cls-29" d="M86.5,206.91l38.13-22.12a2.54,2.54,0,0,0,0-4.4L80.85,155a6,6,0,0,0-5.94,0L36.75,177.12a2.55,2.55,0,0,0,0,4.41l43.83,25.38A5.91,5.91,0,0,0,86.5,206.91Z"/><path class="cls-30" d="M86.47,206.75l37.9-22a2.53,2.53,0,0,0,0-4.38L80.85,155.12a5.87,5.87,0,0,0-5.9,0L37,177.14a2.53,2.53,0,0,0,0,4.38l43.56,25.23A5.85,5.85,0,0,0,86.47,206.75Z"/><path class="cls-31" d="M86.43,206.59l37.67-21.84a2.52,2.52,0,0,0,0-4.36L80.85,155.27a5.86,5.86,0,0,0-5.87,0l-37.7,21.9a2.51,2.51,0,0,0,0,4.35l43.3,25.08A5.85,5.85,0,0,0,86.43,206.59Z"/><path class="cls-32" d="M86.4,206.44l37.44-21.72a2.5,2.5,0,0,0,0-4.32l-43-25a5.77,5.77,0,0,0-5.82,0L37.54,177.19a2.5,2.5,0,0,0,0,4.33l43,24.92A5.82,5.82,0,0,0,86.4,206.44Z"/><path class="cls-33" d="M86.36,206.28l37.22-21.58a2.49,2.49,0,0,0,0-4.3L80.84,155.58a5.81,5.81,0,0,0-5.79,0L37.8,177.21a2.48,2.48,0,0,0,0,4.3l42.77,24.77A5.74,5.74,0,0,0,86.36,206.28Z"/><path class="cls-34" d="M86.33,206.13l37-21.45a2.48,2.48,0,0,0,0-4.28L80.84,155.74a5.74,5.74,0,0,0-5.75,0l-37,21.5a2.47,2.47,0,0,0,0,4.27l42.51,24.62A5.74,5.74,0,0,0,86.33,206.13Z"/><path class="cls-35" d="M86.29,206l36.76-21.32a2.45,2.45,0,0,0,0-4.24L80.84,155.9a5.68,5.68,0,0,0-5.72,0L38.33,177.26a2.46,2.46,0,0,0,0,4.25L80.58,206A5.66,5.66,0,0,0,86.29,206Z"/><path class="cls-36" d="M86.26,205.82l36.52-21.19a2.44,2.44,0,0,0,0-4.22L80.84,156.05a5.65,5.65,0,0,0-5.68,0L38.59,177.28a2.44,2.44,0,0,0,0,4.22l42,24.32A5.7,5.7,0,0,0,86.26,205.82Z"/><path class="cls-37" d="M86.22,205.66l36.3-21a2.43,2.43,0,0,0,0-4.2l-41.68-24.2a5.6,5.6,0,0,0-5.65,0L38.86,177.3a2.43,2.43,0,0,0,0,4.2l41.72,24.16A5.63,5.63,0,0,0,86.22,205.66Z"/><path class="cls-38" d="M86.19,205.5l36.07-20.92a2.41,2.41,0,0,0,0-4.17l-41.42-24a5.62,5.62,0,0,0-5.61,0l-36.11,21a2.41,2.41,0,0,0,0,4.17l41.46,24A5.6,5.6,0,0,0,86.19,205.5Z"/><path class="cls-39" d="M86.15,205.35,122,184.56a2.39,2.39,0,0,0,0-4.14l-41.16-23.9a5.56,5.56,0,0,0-5.58,0L39.38,177.35a2.39,2.39,0,0,0,0,4.14l41.19,23.86A5.55,5.55,0,0,0,86.15,205.35Z"/><path class="cls-40" d="M86.12,205.19l35.61-20.65a2.38,2.38,0,0,0,0-4.12L80.84,156.67a5.56,5.56,0,0,0-5.55,0l-35.64,20.7a2.38,2.38,0,0,0,0,4.12l40.93,23.7A5.51,5.51,0,0,0,86.12,205.19Z"/><path class="cls-41" d="M86.08,205l35.39-20.53a2.36,2.36,0,0,0,0-4.09L80.84,156.83a5.48,5.48,0,0,0-5.51,0L39.91,177.39a2.37,2.37,0,0,0,0,4.1L80.58,205A5.51,5.51,0,0,0,86.08,205Z"/><path class="cls-42" d="M86.05,204.88l35.15-20.39a2.35,2.35,0,0,0,0-4.06L80.84,157a5.43,5.43,0,0,0-5.48,0L40.17,177.42a2.35,2.35,0,0,0,0,4.06l40.4,23.4A5.46,5.46,0,0,0,86.05,204.88Z"/><path class="cls-43" d="M86,204.73l34.93-20.26a2.34,2.34,0,0,0,0-4L80.83,157.14a5.43,5.43,0,0,0-5.43,0l-35,20.3a2.34,2.34,0,0,0,0,4l40.15,23.25A5.41,5.41,0,0,0,86,204.73Z"/><path class="cls-44" d="M86,204.57l34.7-20.13a2.32,2.32,0,0,0,0-4L80.83,157.3a5.37,5.37,0,0,0-5.4,0L40.7,177.46a2.32,2.32,0,0,0,0,4l39.89,23.1A5.36,5.36,0,0,0,86,204.57Z"/><path class="cls-45" d="M85.94,204.41l34.47-20a2.3,2.3,0,0,0,0-4l-39.59-23a5.35,5.35,0,0,0-5.36,0L41,177.49a2.3,2.3,0,0,0,0,4l39.62,22.95A5.33,5.33,0,0,0,85.94,204.41Z"/><path class="cls-46" d="M85.91,204.26l34.24-19.86a2.29,2.29,0,0,0,0-4L80.83,157.61a5.29,5.29,0,0,0-5.33,0l-34.27,19.9a2.29,2.29,0,0,0,0,4l39.36,22.79A5.32,5.32,0,0,0,85.91,204.26Z"/><path class="cls-47" d="M85.87,204.1l34-19.72a2.28,2.28,0,0,0,0-3.94L80.83,157.76a5.27,5.27,0,0,0-5.29,0L41.49,177.53a2.27,2.27,0,0,0,0,3.93l39.1,22.64A5.25,5.25,0,0,0,85.87,204.1Z"/><path class="cls-48" d="M85.84,204l33.78-19.6a2.26,2.26,0,0,0,0-3.9l-38.8-22.53a5.26,5.26,0,0,0-5.26,0L41.75,177.56a2.26,2.26,0,0,0,0,3.9L80.59,204A5.24,5.24,0,0,0,85.84,204Z"/><path class="cls-49" d="M85.8,203.79l33.56-19.46a2.24,2.24,0,0,0,0-3.88L80.83,158.08a5.18,5.18,0,0,0-5.22,0L42,177.58a2.24,2.24,0,0,0,0,3.88l38.57,22.33A5.17,5.17,0,0,0,85.8,203.79Z"/><path class="cls-50" d="M85.77,203.64l33.33-19.33a2.23,2.23,0,0,0,0-3.86L80.83,158.23a5.18,5.18,0,0,0-5.19,0L42.28,177.6a2.22,2.22,0,0,0,0,3.85l38.31,22.19A5.18,5.18,0,0,0,85.77,203.64Z"/><path class="cls-51" d="M85.73,203.48l33.1-19.2a2.21,2.21,0,0,0,0-3.82l-38-22.07a5.1,5.1,0,0,0-5.15,0L42.54,177.62a2.22,2.22,0,0,0,0,3.83l38,22A5.13,5.13,0,0,0,85.73,203.48Z"/><path class="cls-52" d="M85.7,203.32l32.87-19.06a2.2,2.2,0,0,0,0-3.8L80.83,158.54a5.09,5.09,0,0,0-5.12,0l-32.9,19.11a2.2,2.2,0,0,0,0,3.8l37.78,21.88A5.1,5.1,0,0,0,85.7,203.32Z"/><path class="cls-53" d="M85.67,203.17l32.64-18.93a2.19,2.19,0,0,0,0-3.78L80.82,158.7a5.07,5.07,0,0,0-5.08,0l-32.67,19a2.18,2.18,0,0,0,0,3.77l37.52,21.73A5.07,5.07,0,0,0,85.67,203.17Z"/><path class="cls-54" d="M85.63,203,118,184.21a2.16,2.16,0,0,0,0-3.74L80.82,158.85a5,5,0,0,0-5,0L43.34,177.69a2.17,2.17,0,0,0,0,3.75L80.59,203A5,5,0,0,0,85.63,203Z"/><path class="cls-55" d="M85.6,202.86l32.18-18.67a2.15,2.15,0,0,0,0-3.72L80.82,159a5,5,0,0,0-5,0L43.6,177.71a2.16,2.16,0,0,0,0,3.73l37,21.42A5,5,0,0,0,85.6,202.86Z"/><path class="cls-56" d="M85.56,202.7l32-18.53a2.14,2.14,0,0,0,0-3.7l-36.7-21.3a4.91,4.91,0,0,0-5,0l-32,18.57a2.13,2.13,0,0,0,0,3.69L80.59,202.7A5,5,0,0,0,85.56,202.7Z"/><path class="cls-57" d="M85.53,202.55l31.72-18.41a2.11,2.11,0,0,0,0-3.66L80.82,159.32a4.9,4.9,0,0,0-4.94,0L44.13,177.76a2.12,2.12,0,0,0,0,3.67l36.46,21.12A5,5,0,0,0,85.53,202.55Z"/><path class="cls-58" d="M85.49,202.39,117,184.12a2.1,2.1,0,0,0,0-3.64l-36.17-21a4.88,4.88,0,0,0-4.9,0l-31.53,18.3a2.1,2.1,0,0,0,0,3.64l36.21,21A4.86,4.86,0,0,0,85.49,202.39Z"/><path class="cls-59" d="M85.46,202.23l31.27-18.13a2.1,2.1,0,0,0,0-3.62L80.82,159.63a4.87,4.87,0,0,0-4.87,0l-31.3,18.18a2.09,2.09,0,0,0,0,3.61L80.6,202.24A4.83,4.83,0,0,0,85.46,202.23Z"/><path class="cls-60" d="M85.42,202.08l31-18a2.07,2.07,0,0,0,0-3.58l-35.64-20.7a4.8,4.8,0,0,0-4.83,0l-31.07,18a2.07,2.07,0,0,0,0,3.59L80.6,202.08A4.82,4.82,0,0,0,85.42,202.08Z"/><path class="cls-61" d="M85.39,201.92l30.81-17.87a2.06,2.06,0,0,0,0-3.56L80.82,159.94a4.79,4.79,0,0,0-4.8,0L45.18,177.85a2.06,2.06,0,0,0,0,3.56L80.6,201.92A4.77,4.77,0,0,0,85.39,201.92Z"/><path class="cls-62" d="M85.35,201.77,115.94,184a2.05,2.05,0,0,0,0-3.54L80.82,160.1a4.76,4.76,0,0,0-4.76,0L45.44,177.87a2.05,2.05,0,0,0,0,3.54L80.6,201.77A4.74,4.74,0,0,0,85.35,201.77Z"/><path class="cls-6" d="M85.32,201.61,115.67,184a2,2,0,0,0,0-3.51L80.82,160.26a4.71,4.71,0,0,0-4.73,0L45.71,177.9a2,2,0,0,0,0,3.51l34.89,20.2A4.69,4.69,0,0,0,85.32,201.61Z"/><polygon class="cls-95" points="83.19 204.17 122.38 181.44 78.24 155.81 39.01 178.59 83.19 204.17"/><polygon class="cls-72" points="39.01 178.59 39.01 180.17 83.18 205.67 83.19 204.17 39.01 178.59"/><polygon class="cls-72" points="42.14 174.75 48.39 178.35 48.39 181.87 42.14 178.26 42.14 174.75"/><polygon class="cls-73" points="48.39 181.87 85.13 160.75 85.13 157.19 48.39 178.35 48.39 181.87"/><polygon class="cls-72" points="53.68 181.45 59.93 185.06 59.93 188.58 53.68 184.97 53.68 181.45"/><polygon class="cls-73" points="59.93 188.58 96.66 167.46 96.66 163.89 59.93 185.06 59.93 188.58"/><polygon class="cls-72" points="65.21 188.16 71.46 191.77 71.46 195.28 65.21 191.68 65.21 188.16"/><polygon class="cls-73" points="71.46 195.28 108.2 174.17 108.2 170.6 71.46 191.77 71.46 195.28"/><polygon class="cls-72" points="76.75 194.87 83 198.47 83 201.99 76.75 198.38 76.75 194.87"/><polygon class="cls-73" points="83 201.99 119.73 180.87 119.73 177.31 83 198.47 83 201.99"/><polygon class="cls-96" points="74.93 193.56 113.94 171.4 121.89 176.1 83.18 198.32 74.93 193.56"/><polygon class="cls-72" points="83.06 199.87 121.89 177.45 121.89 176.1 83.18 198.32 83.06 199.87"/><polygon class="cls-96" points="63.39 186.98 102.4 164.82 110.35 169.52 71.64 191.74 63.39 186.98"/><polygon class="cls-72" points="71.52 193.29 110.35 170.88 110.35 169.52 71.64 191.74 71.52 193.29"/><polygon class="cls-96" points="51.86 180.4 90.86 158.25 98.81 162.94 60.11 185.16 51.86 180.4"/><polygon class="cls-72" points="59.98 186.72 98.81 164.3 98.81 162.94 60.11 185.16 59.98 186.72"/><polygon class="cls-96" points="40.32 173.82 79.33 151.67 87.28 156.36 48.57 178.59 40.32 173.82"/><polygon class="cls-72" points="48.45 180.14 87.28 157.72 87.28 156.36 48.57 178.59 48.45 180.14"/><polygon class="cls-73" points="122.38 181.44 122.38 182.53 83.18 205.67 83.19 204.17 122.38 181.44"/><polygon class="cls-73" points="40.32 173.82 40.32 175.44 83.06 199.87 83.18 198.32 40.32 173.82"/><polygon class="cls-93" points="116.15 155.01 85.95 137.57 68.92 147.41 99.12 164.85 116.15 155.01"/><polygon class="cls-87" points="116.15 155.01 116.15 174.76 99.12 184.59 99.12 164.85 116.15 155.01"/><polygon class="cls-69" points="115.36 156.78 115.36 158.64 111.07 161.12 111.07 159.26 115.36 156.78"/><polygon class="cls-6" points="99.12 184.59 68.92 167.21 68.92 147.46 99.12 164.85 99.12 184.59"/><polygon class="cls-69" points="109.34 178.69 109.34 158.95 105.93 160.91 105.93 180.66 109.34 178.69"/><polygon class="cls-69" points="109.34 158.95 79.13 141.55 75.61 143.46 105.93 160.91 109.34 158.95"/><path class="cls-12" d="M148.75,245.33l42-24.37a2.81,2.81,0,0,0,0-4.85l-48.25-28a6.51,6.51,0,0,0-6.53,0L93.93,212.51a2.81,2.81,0,0,0,0,4.86l48.28,28A6.51,6.51,0,0,0,148.75,245.33Z"/><path class="cls-13" d="M148.72,245.17l41.78-24.23a2.79,2.79,0,0,0,0-4.83l-48-27.86a6.46,6.46,0,0,0-6.5,0L94.2,212.53a2.79,2.79,0,0,0,0,4.83l48,27.81A6.44,6.44,0,0,0,148.72,245.17Z"/><path class="cls-14" d="M148.68,245l41.56-24.1a2.78,2.78,0,0,0,0-4.81L142.52,188.4a6.43,6.43,0,0,0-6.46,0l-41.6,24.15a2.79,2.79,0,0,0,0,4.81L142.23,245A6.41,6.41,0,0,0,148.68,245Z"/><path class="cls-15" d="M148.65,244.86l41.33-24a2.76,2.76,0,0,0,0-4.77l-47.46-27.56a6.38,6.38,0,0,0-6.43,0l-41.37,24a2.75,2.75,0,0,0,0,4.77l47.5,27.51A6.4,6.4,0,0,0,148.65,244.86Z"/><path class="cls-16" d="M148.61,244.71l41.1-23.84a2.74,2.74,0,0,0,0-4.75l-47.19-27.41a6.42,6.42,0,0,0-6.4,0L95,212.6a2.74,2.74,0,0,0,0,4.75l47.24,27.36A6.38,6.38,0,0,0,148.61,244.71Z"/><path class="cls-17" d="M148.58,244.55l40.87-23.7a2.74,2.74,0,0,0,0-4.73l-46.93-27.25a6.34,6.34,0,0,0-6.36,0L95.25,212.62a2.74,2.74,0,0,0,0,4.73l47,27.2A6.32,6.32,0,0,0,148.58,244.55Z"/><path class="cls-18" d="M148.55,244.39l40.64-23.57a2.71,2.71,0,0,0,0-4.69L142.52,189a6.29,6.29,0,0,0-6.33,0L95.51,212.65a2.71,2.71,0,0,0,0,4.69l46.71,27.06A6.29,6.29,0,0,0,148.55,244.39Z"/><path class="cls-19" d="M148.51,244.24l40.41-23.44a2.69,2.69,0,0,0,0-4.67l-46.4-26.95a6.26,6.26,0,0,0-6.29,0L95.78,212.67a2.7,2.7,0,0,0,0,4.67l46.45,26.9A6.26,6.26,0,0,0,148.51,244.24Z"/><path class="cls-20" d="M148.48,244.08l40.18-23.3a2.69,2.69,0,0,0,0-4.65l-46.14-26.79a6.2,6.2,0,0,0-6.26,0L96,212.69a2.69,2.69,0,0,0,0,4.65l46.19,26.74A6.23,6.23,0,0,0,148.48,244.08Z"/><path class="cls-21" d="M148.44,243.93l40-23.18a2.66,2.66,0,0,0,0-4.61l-45.88-26.65a6.23,6.23,0,0,0-6.22,0l-40,23.22a2.67,2.67,0,0,0,0,4.62l45.92,26.6A6.21,6.21,0,0,0,148.44,243.93Z"/><path class="cls-22" d="M148.41,243.77l39.72-23a2.65,2.65,0,0,0,0-4.59l-45.61-26.49a6.17,6.17,0,0,0-6.19,0L96.57,212.74a2.65,2.65,0,0,0,0,4.59l45.66,26.44A6.15,6.15,0,0,0,148.41,243.77Z"/><path class="cls-23" d="M148.37,243.62l39.5-22.91a2.65,2.65,0,0,0,0-4.57L142.51,189.8a6.12,6.12,0,0,0-6.14,0l-39.54,23a2.65,2.65,0,0,0,0,4.57l45.4,26.29A6.12,6.12,0,0,0,148.37,243.62Z"/><path class="cls-24" d="M148.34,243.46l39.27-22.78a2.62,2.62,0,0,0,0-4.53L142.51,190a6.07,6.07,0,0,0-6.11,0L97.09,212.78a2.62,2.62,0,0,0,0,4.54l45.13,26.14A6.09,6.09,0,0,0,148.34,243.46Z"/><path class="cls-25" d="M148.3,243.3l39-22.64a2.6,2.6,0,0,0,0-4.51l-44.83-26a6,6,0,0,0-6.07,0L97.36,212.81a2.6,2.6,0,0,0,0,4.51l44.87,26A6.07,6.07,0,0,0,148.3,243.3Z"/><path class="cls-26" d="M148.27,243.15l38.81-22.51a2.6,2.6,0,0,0,0-4.49l-44.57-25.88a6,6,0,0,0-6,0L97.62,212.83a2.6,2.6,0,0,0,0,4.49l44.61,25.83A6,6,0,0,0,148.27,243.15Z"/><path class="cls-27" d="M148.23,243l38.59-22.38a2.57,2.57,0,0,0,0-4.45l-44.31-25.73a6,6,0,0,0-6,0L97.88,212.85a2.58,2.58,0,0,0,0,4.46L142.24,243A5.94,5.94,0,0,0,148.23,243Z"/><path class="cls-28" d="M148.2,242.84l38.35-22.25a2.55,2.55,0,0,0,0-4.43l-44-25.58a6,6,0,0,0-6,0L98.15,212.87a2.57,2.57,0,0,0,0,4.44l44.09,25.53A5.93,5.93,0,0,0,148.2,242.84Z"/><path class="cls-29" d="M148.16,242.68l38.13-22.11a2.55,2.55,0,0,0,0-4.41l-43.78-25.42a5.9,5.9,0,0,0-5.94,0L98.41,212.9a2.54,2.54,0,0,0,0,4.4l43.83,25.38A5.91,5.91,0,0,0,148.16,242.68Z"/><path class="cls-30" d="M148.13,242.53l37.9-22a2.53,2.53,0,0,0,0-4.38l-43.52-25.28a5.92,5.92,0,0,0-5.9,0l-37.94,22a2.53,2.53,0,0,0,0,4.38l43.56,25.23A5.9,5.9,0,0,0,148.13,242.53Z"/><path class="cls-31" d="M148.09,242.37l37.67-21.85a2.51,2.51,0,0,0,0-4.35l-43.25-25.12a5.86,5.86,0,0,0-5.87,0l-37.7,21.89a2.52,2.52,0,0,0,0,4.36l43.3,25.07A5.83,5.83,0,0,0,148.09,242.37Z"/><path class="cls-32" d="M148.06,242.21,185.5,220.5a2.5,2.5,0,0,0,0-4.33l-43-25a5.79,5.79,0,0,0-5.83,0L99.2,213a2.5,2.5,0,0,0,0,4.32l43,24.93A5.79,5.79,0,0,0,148.06,242.21Z"/><path class="cls-33" d="M148,242.06l37.22-21.58a2.49,2.49,0,0,0,0-4.3L142.5,191.36a5.76,5.76,0,0,0-5.79,0L99.46,213a2.48,2.48,0,0,0,0,4.3l42.77,24.77A5.74,5.74,0,0,0,148,242.06Z"/><path class="cls-34" d="M148,241.9l37-21.45a2.47,2.47,0,0,0,0-4.27L142.5,191.52a5.69,5.69,0,0,0-5.75,0L99.73,213a2.48,2.48,0,0,0,0,4.28l42.51,24.62A5.76,5.76,0,0,0,148,241.9Z"/><path class="cls-35" d="M148,241.75l36.76-21.32a2.46,2.46,0,0,0,0-4.25L142.5,191.67a5.73,5.73,0,0,0-5.72,0L100,213a2.46,2.46,0,0,0,0,4.25l42.25,24.47A5.71,5.71,0,0,0,148,241.75Z"/><path class="cls-36" d="M147.92,241.59l36.53-21.18a2.45,2.45,0,0,0,0-4.23L142.5,191.83a5.65,5.65,0,0,0-5.68,0l-36.57,21.23a2.44,2.44,0,0,0,0,4.22l42,24.31A5.65,5.65,0,0,0,147.92,241.59Z"/><path class="cls-37" d="M147.88,241.44l36.3-21.06a2.42,2.42,0,0,0,0-4.19L142.5,192a5.65,5.65,0,0,0-5.65,0l-36.33,21.1a2.43,2.43,0,0,0,0,4.2l41.72,24.16A5.63,5.63,0,0,0,147.88,241.44Z"/><path class="cls-38" d="M147.85,241.28l36.07-20.92a2.41,2.41,0,0,0,0-4.17L142.5,192.14a5.57,5.57,0,0,0-5.61,0l-36.11,21a2.41,2.41,0,0,0,0,4.17l41.46,24A5.57,5.57,0,0,0,147.85,241.28Z"/><path class="cls-39" d="M147.81,241.12l35.85-20.78a2.4,2.4,0,0,0,0-4.15L142.5,192.3a5.52,5.52,0,0,0-5.58,0l-35.87,20.83a2.39,2.39,0,0,0,0,4.14l41.19,23.86A5.57,5.57,0,0,0,147.81,241.12Z"/><path class="cls-40" d="M147.78,241l35.61-20.66a2.37,2.37,0,0,0,0-4.11L142.5,192.45a5.54,5.54,0,0,0-5.54,0l-35.65,20.7a2.38,2.38,0,0,0,0,4.12L142.24,241A5.54,5.54,0,0,0,147.78,241Z"/><path class="cls-41" d="M147.74,240.81l35.39-20.52a2.36,2.36,0,0,0,0-4.09L142.5,192.61a5.48,5.48,0,0,0-5.51,0l-35.42,20.56a2.36,2.36,0,0,0,0,4.09l40.67,23.56A5.49,5.49,0,0,0,147.74,240.81Z"/><path class="cls-42" d="M147.71,240.66l35.16-20.39a2.35,2.35,0,0,0,0-4.07L142.5,192.76a5.47,5.47,0,0,0-5.48,0l-35.18,20.43a2.35,2.35,0,0,0,0,4.07l40.41,23.4A5.44,5.44,0,0,0,147.71,240.66Z"/><path class="cls-43" d="M147.67,240.5l34.93-20.26a2.33,2.33,0,0,0,0-4l-40.1-23.29a5.4,5.4,0,0,0-5.44,0l-35,20.3a2.33,2.33,0,0,0,0,4l40.15,23.25A5.36,5.36,0,0,0,147.67,240.5Z"/><path class="cls-44" d="M147.64,240.35l34.7-20.13a2.32,2.32,0,0,0,0-4l-39.85-23.14a5.37,5.37,0,0,0-5.4,0l-34.73,20.17a2.32,2.32,0,0,0,0,4l39.89,23.1A5.4,5.4,0,0,0,147.64,240.35Z"/><path class="cls-45" d="M147.6,240.19l34.48-20a2.31,2.31,0,0,0,0-4l-39.59-23a5.35,5.35,0,0,0-5.36,0l-34.5,20a2.31,2.31,0,0,0,0,4l39.62,22.94A5.33,5.33,0,0,0,147.6,240.19Z"/><path class="cls-46" d="M147.57,240l34.24-19.85a2.29,2.29,0,0,0,0-4l-39.32-22.83a5.29,5.29,0,0,0-5.33,0l-34.27,19.9a2.28,2.28,0,0,0,0,4L142.25,240A5.3,5.3,0,0,0,147.57,240Z"/><path class="cls-47" d="M147.54,239.88l34-19.73a2.27,2.27,0,0,0,0-3.93l-39.06-22.68a5.27,5.27,0,0,0-5.29,0l-34,19.77a2.27,2.27,0,0,0,0,3.93l39.1,22.64A5.27,5.27,0,0,0,147.54,239.88Z"/><path class="cls-48" d="M147.5,239.72l33.79-19.59a2.27,2.27,0,0,0,0-3.91l-38.8-22.52a5.21,5.21,0,0,0-5.26,0l-33.81,19.63a2.26,2.26,0,0,0,0,3.91l38.83,22.49A5.22,5.22,0,0,0,147.5,239.72Z"/><path class="cls-49" d="M147.47,239.57,181,220.11a2.24,2.24,0,0,0,0-3.88l-38.53-22.38a5.18,5.18,0,0,0-5.22,0l-33.59,19.5a2.24,2.24,0,0,0,0,3.88l38.57,22.34A5.23,5.23,0,0,0,147.47,239.57Z"/><path class="cls-50" d="M147.43,239.41l33.33-19.33a2.22,2.22,0,0,0,0-3.85L142.49,194a5.18,5.18,0,0,0-5.19,0l-33.36,19.37a2.22,2.22,0,0,0,0,3.85l38.31,22.18A5.16,5.16,0,0,0,147.43,239.41Z"/><path class="cls-51" d="M147.4,239.26l33.09-19.2a2.22,2.22,0,0,0,0-3.83l-38-22.07a5.15,5.15,0,0,0-5.15,0L104.21,213.4a2.21,2.21,0,0,0,0,3.83l38,22A5.15,5.15,0,0,0,147.4,239.26Z"/><path class="cls-52" d="M147.36,239.1,180.23,220a2.2,2.2,0,0,0,0-3.8l-37.74-21.92a5.09,5.09,0,0,0-5.12,0l-32.9,19.1a2.2,2.2,0,0,0,0,3.8l37.78,21.88A5.08,5.08,0,0,0,147.36,239.1Z"/><path class="cls-53" d="M147.33,239,180,220a2.18,2.18,0,0,0,0-3.77l-37.48-21.76a5,5,0,0,0-5.08,0l-32.68,19a2.18,2.18,0,0,0,0,3.77L142.25,239A5.09,5.09,0,0,0,147.33,239Z"/><path class="cls-54" d="M147.29,238.79,179.7,220a2.17,2.17,0,0,0,0-3.75l-37.23-21.61a5,5,0,0,0-5,0L105,213.47a2.17,2.17,0,0,0,0,3.75l37.25,21.57A5,5,0,0,0,147.29,238.79Z"/><path class="cls-55" d="M147.26,238.63,179.44,220a2.15,2.15,0,0,0,0-3.72l-37-21.46a5,5,0,0,0-5,0l-32.21,18.7a2.15,2.15,0,0,0,0,3.72l37,21.43A5,5,0,0,0,147.26,238.63Z"/><path class="cls-56" d="M147.22,238.48l32-18.54a2.13,2.13,0,0,0,0-3.69l-36.7-21.31a5,5,0,0,0-5,0l-32,18.57a2.14,2.14,0,0,0,0,3.7l36.73,21.27A5,5,0,0,0,147.22,238.48Z"/><path class="cls-57" d="M147.19,238.32l31.72-18.4a2.12,2.12,0,0,0,0-3.67L142.48,195.1a4.9,4.9,0,0,0-4.94,0l-31.75,18.44a2.11,2.11,0,0,0,0,3.66l36.47,21.12A4.89,4.89,0,0,0,147.19,238.32Z"/><path class="cls-58" d="M147.15,238.17l31.5-18.27a2.1,2.1,0,0,0,0-3.64l-36.17-21a4.88,4.88,0,0,0-4.9,0l-31.53,18.31a2.1,2.1,0,0,0,0,3.64l36.21,21A4.88,4.88,0,0,0,147.15,238.17Z"/><path class="cls-59" d="M147.12,238l31.27-18.14a2.08,2.08,0,0,0,0-3.61l-35.91-20.85a4.87,4.87,0,0,0-4.87,0l-31.3,18.17a2.1,2.1,0,0,0,0,3.62L142.26,238A4.85,4.85,0,0,0,147.12,238Z"/><path class="cls-60" d="M147.08,237.86l31-18a2.08,2.08,0,0,0,0-3.59l-35.65-20.7a4.84,4.84,0,0,0-4.83,0l-31.07,18.05a2.07,2.07,0,0,0,0,3.58l35.68,20.67A4.82,4.82,0,0,0,147.08,237.86Z"/><path class="cls-61" d="M147.05,237.7l30.81-17.87a2.06,2.06,0,0,0,0-3.56l-35.38-20.55a4.79,4.79,0,0,0-4.8,0l-30.84,17.91a2.06,2.06,0,0,0,0,3.56l35.42,20.51A4.77,4.77,0,0,0,147.05,237.7Z"/><path class="cls-62" d="M147,237.54l30.59-17.73a2,2,0,0,0,0-3.54l-35.12-20.39a4.71,4.71,0,0,0-4.76,0L107.1,213.65a2,2,0,0,0,0,3.54l35.15,20.36A4.72,4.72,0,0,0,147,237.54Z"/><path class="cls-6" d="M147,237.39l30.35-17.61a2,2,0,0,0,0-3.51L142.48,196a4.71,4.71,0,0,0-4.73,0l-30.38,17.64a2,2,0,0,0,0,3.51l34.89,20.21A4.74,4.74,0,0,0,147,237.39Z"/><polygon class="cls-95" points="144.85 239.95 184.04 217.21 139.91 191.58 100.67 214.36 144.85 239.95"/><polygon class="cls-72" points="100.67 214.36 100.67 215.95 144.84 241.45 144.85 239.95 100.67 214.36"/><polygon class="cls-72" points="103.8 210.52 110.05 214.13 110.05 217.65 103.8 214.04 103.8 210.52"/><polygon class="cls-73" points="110.05 217.65 146.79 196.53 146.79 192.96 110.05 214.13 110.05 217.65"/><polygon class="cls-72" points="115.34 217.23 121.59 220.84 121.59 224.35 115.34 220.75 115.34 217.23"/><polygon class="cls-73" points="121.59 224.35 158.32 203.24 158.32 199.67 121.59 220.84 121.59 224.35"/><polygon class="cls-72" points="126.88 223.94 133.12 227.54 133.12 231.06 126.88 227.45 126.88 223.94"/><polygon class="cls-73" points="133.12 231.06 169.86 209.94 169.86 206.38 133.12 227.54 133.12 231.06"/><polygon class="cls-72" points="138.41 230.64 144.66 234.25 144.66 237.77 138.41 234.16 138.41 230.64"/><polygon class="cls-73" points="144.66 237.77 181.39 216.65 181.39 213.08 144.66 234.25 144.66 237.77"/><polygon class="cls-96" points="136.59 229.33 175.6 207.18 183.55 211.88 144.84 234.1 136.59 229.33"/><polygon class="cls-72" points="144.72 235.65 183.55 213.23 183.55 211.88 144.84 234.1 144.72 235.65"/><polygon class="cls-96" points="125.05 222.76 164.06 200.6 172.01 205.3 133.3 227.52 125.05 222.76"/><polygon class="cls-72" points="133.18 229.07 172.01 206.65 172.01 205.3 133.3 227.52 133.18 229.07"/><polygon class="cls-96" points="113.52 216.18 152.53 194.02 160.48 198.72 121.77 220.94 113.52 216.18"/><polygon class="cls-72" points="121.64 222.49 160.48 200.07 160.48 198.72 121.77 220.94 121.64 222.49"/><polygon class="cls-96" points="101.98 209.6 140.99 187.44 148.94 192.14 110.23 214.36 101.98 209.6"/><polygon class="cls-72" points="110.11 215.91 148.94 193.5 148.94 192.14 110.23 214.36 110.11 215.91"/><polygon class="cls-73" points="184.04 217.21 184.04 218.31 144.84 241.45 144.85 239.95 184.04 217.21"/><polygon class="cls-73" points="101.98 209.6 101.98 211.22 144.72 235.65 144.84 234.1 101.98 209.6"/><polygon class="cls-97" points="108.96 189.42 139.16 171.98 156.2 181.81 125.99 199.26 108.96 189.42"/><polygon class="cls-98" points="108.96 189.42 108.96 209.17 125.99 219 125.99 199.26 108.96 189.42"/><polygon class="cls-69" points="109.75 191.19 109.75 193.05 114.04 195.52 114.04 193.66 109.75 191.19"/><polygon class="cls-99" points="125.99 219 156.2 201.61 156.2 181.87 125.99 199.26 125.99 219"/><polygon class="cls-69" points="115.77 213.1 115.77 193.36 119.18 195.32 119.18 215.07 115.77 213.1"/><polygon class="cls-69" points="115.77 193.36 145.98 175.96 149.51 177.87 119.18 195.32 115.77 193.36"/><polygon class="cls-73" points="128.93 201.82 159.14 184.38 176.17 194.21 145.97 211.65 128.93 201.82"/><polygon class="cls-94" points="128.93 201.82 128.93 221.57 145.97 231.4 145.97 211.65 128.93 201.82"/><polygon class="cls-69" points="129.72 203.59 129.72 205.44 134.01 207.92 134.01 206.06 129.72 203.59"/><polygon class="cls-72" points="145.97 231.4 176.17 214.01 176.17 194.26 145.97 211.65 145.97 231.4"/><polygon class="cls-69" points="135.75 225.5 135.75 205.75 139.15 207.72 139.15 227.47 135.75 225.5"/><polygon class="cls-69" points="135.75 205.75 165.96 188.35 169.48 190.27 139.15 207.72 135.75 205.75"/><polygon class="cls-93" points="119.32 175.87 149.53 158.43 166.56 168.26 136.35 185.7 119.32 175.87"/><polygon class="cls-87" points="119.32 175.87 119.32 195.61 136.35 205.45 136.35 185.7 119.32 175.87"/><polygon class="cls-69" points="120.11 177.63 120.11 179.49 124.4 181.97 124.4 180.11 120.11 177.63"/><polygon class="cls-6" points="136.35 205.45 166.56 188.06 166.56 168.31 136.35 185.7 136.35 205.45"/><polygon class="cls-69" points="126.14 199.55 126.14 179.8 129.54 181.77 129.54 201.51 126.14 199.55"/><polygon class="cls-69" points="126.14 179.8 156.35 162.4 159.87 164.31 129.54 181.77 126.14 179.8"/><g class="cls-11"><polygon class="cls-12" points="415.5 243.43 381.13 264.1 424.24 288.78 458.94 268.69 415.5 243.43"/><polygon class="cls-13" points="415.5 243.43 381.76 263.72 424.88 288.41 458.94 268.69 415.5 243.43"/><polygon class="cls-14" points="415.5 243.43 382.39 263.34 425.52 288.04 458.94 268.69 415.5 243.43"/><polygon class="cls-15" points="415.5 243.43 383.02 262.96 426.16 287.67 458.94 268.69 415.5 243.43"/><polygon class="cls-16" points="415.5 243.43 383.65 262.58 426.8 287.31 458.94 268.69 415.5 243.43"/><polygon class="cls-17" points="415.5 243.43 384.29 262.2 427.43 286.94 458.94 268.69 415.5 243.43"/><polygon class="cls-18" points="415.5 243.43 384.92 261.82 428.07 286.57 458.94 268.69 415.5 243.43"/><polygon class="cls-19" points="415.5 243.43 385.55 261.44 428.71 286.2 458.94 268.69 415.5 243.43"/><polygon class="cls-20" points="415.5 243.43 386.18 261.06 429.35 285.83 458.94 268.69 415.5 243.43"/><polygon class="cls-21" points="415.5 243.43 386.81 260.68 429.99 285.46 458.94 268.69 415.5 243.43"/><polygon class="cls-22" points="415.5 243.43 387.45 260.3 430.62 285.1 458.94 268.69 415.5 243.43"/><polygon class="cls-23" points="415.5 243.43 388.08 259.92 431.26 284.73 458.94 268.69 415.5 243.43"/><polygon class="cls-24" points="415.5 243.43 388.71 259.54 431.9 284.36 458.94 268.69 415.5 243.43"/><polygon class="cls-25" points="415.5 243.43 389.34 259.16 432.54 283.99 458.94 268.69 415.5 243.43"/><polygon class="cls-26" points="415.5 243.43 389.97 258.78 433.18 283.62 458.94 268.69 415.5 243.43"/><polygon class="cls-27" points="415.5 243.43 390.61 258.4 433.81 283.25 458.94 268.69 415.5 243.43"/><polygon class="cls-28" points="415.5 243.43 391.24 258.02 434.45 282.88 458.94 268.69 415.5 243.43"/><polygon class="cls-29" points="415.5 243.43 391.87 257.64 435.09 282.52 458.94 268.69 415.5 243.43"/><polygon class="cls-30" points="415.5 243.43 392.5 257.26 435.73 282.15 458.94 268.69 415.5 243.43"/><polygon class="cls-31" points="415.5 243.43 393.13 256.88 436.37 281.78 458.94 268.69 415.5 243.43"/><polygon class="cls-32" points="415.5 243.43 393.76 256.5 437 281.41 458.94 268.69 415.5 243.43"/><polygon class="cls-33" points="415.5 243.43 394.4 256.13 437.64 281.04 458.94 268.69 415.5 243.43"/><polygon class="cls-34" points="415.5 243.43 395.03 255.75 438.28 280.67 458.94 268.69 415.5 243.43"/><polygon class="cls-35" points="415.5 243.43 395.66 255.37 438.92 280.31 458.94 268.69 415.5 243.43"/><polygon class="cls-36" points="415.5 243.43 396.29 254.99 439.56 279.94 458.94 268.69 415.5 243.43"/><polygon class="cls-37" points="415.5 243.43 396.92 254.61 440.19 279.57 458.94 268.69 415.5 243.43"/><polygon class="cls-38" points="415.5 243.43 397.56 254.23 440.83 279.2 458.94 268.69 415.5 243.43"/><polygon class="cls-39" points="415.5 243.43 398.19 253.85 441.47 278.83 458.94 268.69 415.5 243.43"/><polygon class="cls-40" points="415.5 243.43 398.82 253.47 442.11 278.46 458.94 268.69 415.5 243.43"/><polygon class="cls-41" points="415.5 243.43 399.45 253.09 442.75 278.09 458.94 268.69 415.5 243.43"/><polygon class="cls-42" points="415.5 243.43 400.08 252.71 443.38 277.73 458.94 268.69 415.5 243.43"/><polygon class="cls-43" points="415.5 243.43 400.71 252.33 444.02 277.36 458.94 268.69 415.5 243.43"/><polygon class="cls-44" points="415.5 243.43 401.35 251.95 444.66 276.99 458.94 268.69 415.5 243.43"/><polygon class="cls-45" points="415.5 243.43 401.98 251.57 445.3 276.62 458.94 268.69 415.5 243.43"/><polygon class="cls-46" points="415.5 243.43 402.61 251.19 445.94 276.25 458.94 268.69 415.5 243.43"/><polygon class="cls-47" points="415.5 243.43 403.24 250.81 446.57 275.88 458.94 268.69 415.5 243.43"/><polygon class="cls-48" points="415.5 243.43 403.88 250.43 447.21 275.51 458.94 268.69 415.5 243.43"/><polygon class="cls-49" points="415.5 243.43 404.51 250.05 447.85 275.15 458.94 268.69 415.5 243.43"/><polygon class="cls-50" points="415.5 243.43 405.14 249.67 448.49 274.78 458.94 268.69 415.5 243.43"/><polygon class="cls-51" points="415.5 243.43 405.77 249.29 449.13 274.41 458.94 268.69 415.5 243.43"/><polygon class="cls-52" points="415.5 243.43 406.4 248.91 449.77 274.04 458.94 268.69 415.5 243.43"/><polygon class="cls-53" points="415.5 243.43 407.03 248.53 450.4 273.67 458.94 268.69 415.5 243.43"/><polygon class="cls-54" points="415.5 243.43 407.67 248.15 451.04 273.3 458.94 268.69 415.5 243.43"/><polygon class="cls-55" points="415.5 243.43 408.3 247.77 451.68 272.94 458.94 268.69 415.5 243.43"/><polygon class="cls-56" points="415.5 243.43 408.93 247.39 452.32 272.57 458.94 268.69 415.5 243.43"/><polygon class="cls-57" points="415.5 243.43 409.56 247.01 452.96 272.2 458.94 268.69 415.5 243.43"/><polygon class="cls-58" points="415.5 243.43 410.19 246.63 453.59 271.83 458.94 268.69 415.5 243.43"/><polygon class="cls-59" points="415.5 243.43 410.83 246.25 454.23 271.46 458.94 268.69 415.5 243.43"/><polygon class="cls-60" points="415.5 243.43 411.46 245.87 454.87 271.09 458.94 268.69 415.5 243.43"/><polygon class="cls-61" points="415.5 243.43 412.09 245.49 455.51 270.72 458.94 268.69 415.5 243.43"/><polygon class="cls-62" points="415.5 243.43 412.72 245.11 456.15 270.36 458.94 268.69 415.5 243.43"/><polygon class="cls-6" points="415.5 243.43 413.35 244.73 456.78 269.99 458.94 268.69 415.5 243.43"/></g><polygon class="cls-6" points="396.34 247.86 395.79 247.6 414.27 207.57 415.36 206.66 396.34 247.86"/><rect class="cls-6" x="404.76" y="213.61" width="0.61" height="27.26" transform="translate(-36.64 370.78) rotate(-47.29)"/><polygon class="cls-93" points="415.08 197.92 416.09 197.34 417.1 197.92 416.09 198.51 415.08 197.92"/><polygon class="cls-6" points="415.08 197.92 415.08 253.85 416.08 254.44 416.09 198.51 415.08 197.92"/><polygon class="cls-87" points="416.08 254.44 417.1 253.85 417.1 197.92 416.09 198.51 416.08 254.44"/><polygon class="cls-93" points="457.11 222.39 458.12 221.81 459.13 222.39 458.12 222.98 457.11 222.39"/><polygon class="cls-6" points="457.11 222.39 457.11 268.67 458.11 269.26 458.12 222.98 457.11 222.39"/><polygon class="cls-87" points="458.11 269.26 459.13 268.67 459.13 222.39 458.12 222.98 458.11 269.26"/><polygon class="cls-93" points="394.04 210.16 395.05 209.57 396.06 210.16 395.05 210.74 394.04 210.16"/><polygon class="cls-87" points="394.04 210.16 394.04 256.43 395.04 257.02 395.05 210.74 394.04 210.16"/><polygon class="cls-6" points="395.04 257.02 396.06 256.43 396.06 210.16 395.05 210.74 395.04 257.02"/><polygon class="cls-2" points="395.05 217.99 437.1 242.27 458.12 230.13 416.08 205.85 395.05 217.99"/><polygon class="cls-100" points="437.1 242.27 437.14 243.45 395.04 219.2 395.05 217.99 437.1 242.27"/><polygon class="cls-100" points="437.1 242.27 437.1 243.43 458.12 231.29 458.12 230.13 437.1 242.27"/><polygon class="cls-2" points="395.05 248.31 437.1 272.59 458.12 260.45 416.08 236.17 395.05 248.31"/><polygon class="cls-100" points="437.1 272.59 437.14 273.77 395.04 249.52 395.05 248.31 437.1 272.59"/><polygon class="cls-100" points="437.1 272.59 437.1 273.75 458.12 261.61 458.12 260.45 437.1 272.59"/><polygon class="cls-79" points="404.34 207.63 414.13 201.99 423.91 207.63 414.13 213.28 404.34 207.63"/><polygon class="cls-73" points="404.34 207.63 404.34 218.98 414.13 224.63 414.13 213.28 404.34 207.63"/><polygon class="cls-69" points="404.8 208.65 404.8 209.72 407.26 211.14 407.26 210.07 404.8 208.65"/><polygon class="cls-72" points="414.13 224.63 423.91 218.98 423.91 207.63 414.13 213.28 414.13 224.63"/><polygon class="cls-69" points="408.26 221.24 408.26 209.89 410.21 211.02 410.21 222.37 408.26 221.24"/><polygon class="cls-69" points="408.26 209.89 418.05 204.27 420.07 205.37 410.21 211.02 408.26 209.89"/><polygon class="cls-93" points="416.09 244.33 425.87 238.68 435.65 244.33 425.87 249.98 416.09 244.33"/><polygon class="cls-87" points="416.09 244.33 416.09 255.67 425.87 261.32 425.87 249.98 416.09 244.33"/><polygon class="cls-69" points="416.54 245.34 416.54 246.41 419 247.83 419 246.76 416.54 245.34"/><polygon class="cls-6" points="425.87 261.32 435.65 255.67 435.65 244.33 425.87 249.98 425.87 261.32"/><polygon class="cls-69" points="420 257.93 420 246.59 421.96 247.72 421.96 259.06 420 257.93"/><polygon class="cls-69" points="420 246.59 429.79 240.96 431.81 242.06 421.96 247.72 420 246.59"/><polygon class="cls-101" points="427.83 250.99 437.61 245.34 447.4 250.99 437.61 256.64 427.83 250.99"/><polygon class="cls-102" points="427.83 250.99 427.83 262.33 437.61 267.98 437.61 256.64 427.83 250.99"/><polygon class="cls-69" points="428.28 252 428.28 253.07 430.75 254.5 430.75 253.43 428.28 252"/><polygon class="cls-103" points="437.61 267.98 447.4 262.33 447.4 250.99 437.61 256.64 437.61 267.98"/><polygon class="cls-69" points="431.74 264.59 431.74 253.25 433.7 254.38 433.7 265.72 431.74 264.59"/><polygon class="cls-69" points="431.74 253.25 441.53 247.63 443.56 248.72 433.7 254.38 431.74 253.25"/><polygon class="cls-104" points="416.09 214.3 425.87 208.65 435.65 214.3 425.87 219.95 416.09 214.3"/><polygon class="cls-105" points="416.09 214.3 416.09 225.64 425.87 231.29 425.87 219.95 416.09 214.3"/><polygon class="cls-69" points="416.54 215.31 416.54 216.38 419 217.8 419 216.74 416.54 215.31"/><polygon class="cls-106" points="425.87 231.29 435.65 225.64 435.65 214.3 425.87 219.95 425.87 231.29"/><polygon class="cls-69" points="420 227.9 420 216.56 421.96 217.69 421.96 229.03 420 227.9"/><polygon class="cls-69" points="420 216.56 429.79 210.93 431.81 212.03 421.96 217.69 420 216.56"/><polygon class="cls-107" points="427.83 220.96 437.61 215.31 447.4 220.96 437.61 226.61 427.83 220.96"/><polygon class="cls-108" points="427.83 220.96 427.83 232.31 437.61 237.95 437.61 226.61 427.83 220.96"/><polygon class="cls-69" points="428.28 221.98 428.28 223.04 430.75 224.47 430.75 223.4 428.28 221.98"/><polygon class="cls-109" points="437.61 237.95 447.4 232.31 447.4 220.96 437.61 226.61 437.61 237.95"/><polygon class="cls-69" points="431.74 234.56 431.74 223.22 433.7 224.35 433.7 235.69 431.74 234.56"/><polygon class="cls-69" points="431.74 223.22 441.53 217.6 443.56 218.7 433.7 224.35 431.74 223.22"/><polygon class="cls-6" points="437.9 272.91 437.83 271.63 456.65 232.14 457.62 231.58 437.9 272.91"/><polygon class="cls-6" points="456.98 261.11 437.9 243.07 438.38 242.69 457.52 260.8 456.98 261.11"/><polygon class="cls-93" points="436.09 234.45 437.1 233.87 438.11 234.45 437.1 235.03 436.09 234.45"/><polygon class="cls-6" points="437.09 281.31 438.11 280.72 438.11 234.45 437.1 235.03 437.09 281.31"/><polygon class="cls-87" points="436.09 234.45 436.09 280.72 437.09 281.31 437.1 235.03 436.09 234.45"/><g class="cls-11"><polygon class="cls-12" points="44.47 210.07 8.12 231.94 53.72 258.04 90.42 236.79 44.47 210.07"/><polygon class="cls-13" points="44.47 210.07 8.79 231.53 54.4 257.65 90.42 236.79 44.47 210.07"/><polygon class="cls-14" points="44.47 210.07 9.46 231.13 55.07 257.26 90.42 236.79 44.47 210.07"/><polygon class="cls-15" points="44.47 210.07 10.13 230.73 55.75 256.87 90.42 236.79 44.47 210.07"/><polygon class="cls-16" points="44.47 210.07 10.79 230.33 56.42 256.48 90.42 236.79 44.47 210.07"/><polygon class="cls-17" points="44.47 210.07 11.46 229.93 57.09 256.09 90.42 236.79 44.47 210.07"/><polygon class="cls-18" points="44.47 210.07 12.13 229.53 57.77 255.7 90.42 236.79 44.47 210.07"/><polygon class="cls-19" points="44.47 210.07 12.8 229.13 58.45 255.31 90.42 236.79 44.47 210.07"/><polygon class="cls-20" points="44.47 210.07 13.47 228.72 59.12 254.92 90.42 236.79 44.47 210.07"/><polygon class="cls-21" points="44.47 210.07 14.13 228.32 59.8 254.53 90.42 236.79 44.47 210.07"/><polygon class="cls-22" points="44.47 210.07 14.8 227.92 60.47 254.14 90.42 236.79 44.47 210.07"/><polygon class="cls-23" points="44.47 210.07 15.47 227.52 61.14 253.75 90.42 236.79 44.47 210.07"/><polygon class="cls-24" points="44.47 210.07 16.14 227.12 61.82 253.36 90.42 236.79 44.47 210.07"/><polygon class="cls-25" points="44.47 210.07 16.81 226.72 62.49 252.97 90.42 236.79 44.47 210.07"/><polygon class="cls-26" points="44.47 210.07 17.48 226.31 63.17 252.58 90.42 236.79 44.47 210.07"/><polygon class="cls-27" points="44.47 210.07 18.14 225.91 63.84 252.19 90.42 236.79 44.47 210.07"/><polygon class="cls-28" points="44.47 210.07 18.81 225.51 64.52 251.8 90.42 236.79 44.47 210.07"/><polygon class="cls-29" points="44.47 210.07 19.48 225.11 65.19 251.41 90.42 236.79 44.47 210.07"/><polygon class="cls-30" points="44.47 210.07 20.15 224.71 65.87 251.02 90.42 236.79 44.47 210.07"/><polygon class="cls-31" points="44.47 210.07 20.82 224.31 66.54 250.63 90.42 236.79 44.47 210.07"/><polygon class="cls-32" points="44.47 210.07 21.49 223.9 67.22 250.24 90.42 236.79 44.47 210.07"/><polygon class="cls-33" points="44.47 210.07 22.15 223.5 67.89 249.85 90.42 236.79 44.47 210.07"/><polygon class="cls-34" points="44.47 210.07 22.82 223.1 68.57 249.46 90.42 236.79 44.47 210.07"/><polygon class="cls-35" points="44.47 210.07 23.49 222.7 69.24 249.07 90.42 236.79 44.47 210.07"/><polygon class="cls-36" points="44.47 210.07 24.16 222.3 69.92 248.69 90.42 236.79 44.47 210.07"/><polygon class="cls-37" points="44.47 210.07 24.83 221.9 70.59 248.29 90.42 236.79 44.47 210.07"/><polygon class="cls-38" points="44.47 210.07 25.5 221.49 71.27 247.91 90.42 236.79 44.47 210.07"/><polygon class="cls-39" points="44.47 210.07 26.16 221.09 71.94 247.52 90.42 236.79 44.47 210.07"/><polygon class="cls-40" points="44.47 210.07 26.83 220.69 72.62 247.13 90.42 236.79 44.47 210.07"/><polygon class="cls-41" points="44.47 210.07 27.5 220.29 73.29 246.74 90.42 236.79 44.47 210.07"/><polygon class="cls-42" points="44.47 210.07 28.17 219.89 73.97 246.35 90.42 236.79 44.47 210.07"/><polygon class="cls-43" points="44.47 210.07 28.84 219.49 74.64 245.96 90.42 236.79 44.47 210.07"/><polygon class="cls-44" points="44.47 210.07 29.51 219.08 75.32 245.57 90.42 236.79 44.47 210.07"/><polygon class="cls-45" points="44.47 210.07 30.17 218.68 75.99 245.18 90.42 236.79 44.47 210.07"/><polygon class="cls-46" points="44.47 210.07 30.84 218.28 76.67 244.79 90.42 236.79 44.47 210.07"/><polygon class="cls-47" points="44.47 210.07 31.51 217.88 77.34 244.4 90.42 236.79 44.47 210.07"/><polygon class="cls-48" points="44.47 210.07 32.18 217.48 78.02 244.01 90.42 236.79 44.47 210.07"/><polygon class="cls-49" points="44.47 210.07 32.85 217.08 78.69 243.62 90.42 236.79 44.47 210.07"/><polygon class="cls-50" points="44.47 210.07 33.52 216.67 79.36 243.23 90.42 236.79 44.47 210.07"/><polygon class="cls-51" points="44.47 210.07 34.18 216.27 80.04 242.84 90.42 236.79 44.47 210.07"/><polygon class="cls-52" points="44.47 210.07 34.85 215.87 80.72 242.45 90.42 236.79 44.47 210.07"/><polygon class="cls-53" points="44.47 210.07 35.52 215.47 81.39 242.06 90.42 236.79 44.47 210.07"/><polygon class="cls-54" points="44.47 210.07 36.19 215.07 82.06 241.67 90.42 236.79 44.47 210.07"/><polygon class="cls-55" points="44.47 210.07 36.86 214.67 82.74 241.28 90.42 236.79 44.47 210.07"/><polygon class="cls-56" points="44.47 210.07 37.52 214.26 83.41 240.89 90.42 236.79 44.47 210.07"/><polygon class="cls-57" points="44.47 210.07 38.19 213.86 84.09 240.5 90.42 236.79 44.47 210.07"/><polygon class="cls-58" points="44.47 210.07 38.86 213.46 84.76 240.11 90.42 236.79 44.47 210.07"/><polygon class="cls-59" points="44.47 210.07 39.53 213.06 85.44 239.72 90.42 236.79 44.47 210.07"/><polygon class="cls-60" points="44.47 210.07 40.2 212.66 86.11 239.33 90.42 236.79 44.47 210.07"/><polygon class="cls-61" points="44.47 210.07 40.87 212.26 86.79 238.94 90.42 236.79 44.47 210.07"/><polygon class="cls-62" points="44.47 210.07 41.53 211.85 87.46 238.55 90.42 236.79 44.47 210.07"/><polygon class="cls-6" points="44.47 210.07 42.2 211.45 88.14 238.16 90.42 236.79 44.47 210.07"/></g><polygon class="cls-79" points="40.09 196.77 53.73 188.89 67.38 196.77 53.73 204.65 40.09 196.77"/><polygon class="cls-73" points="40.09 196.77 40.09 212.59 53.73 220.47 53.73 204.65 40.09 196.77"/><polygon class="cls-69" points="40.72 198.18 40.72 199.67 44.16 201.66 44.16 200.17 40.72 198.18"/><polygon class="cls-72" points="53.73 220.47 67.38 212.59 67.38 196.77 53.73 204.65 53.73 220.47"/><polygon class="cls-69" points="45.54 215.74 45.54 199.92 48.27 201.5 48.27 217.32 45.54 215.74"/><polygon class="cls-69" points="45.54 199.92 59.2 192.07 62.02 193.61 48.27 201.5 45.54 199.92"/><polygon class="cls-110" points="56.46 206.06 70.11 198.18 83.76 206.06 70.11 213.94 56.46 206.06"/><polygon class="cls-111" points="56.46 206.06 56.46 221.88 70.11 229.76 70.11 213.94 56.46 206.06"/><polygon class="cls-69" points="57.1 207.48 57.1 208.97 60.53 210.95 60.53 209.46 57.1 207.48"/><polygon class="cls-112" points="70.11 229.76 83.76 221.88 83.76 206.06 70.11 213.94 70.11 229.76"/><polygon class="cls-69" points="61.92 225.04 61.92 209.21 64.65 210.79 64.65 226.61 61.92 225.04"/><polygon class="cls-69" points="61.92 209.21 75.58 201.37 78.4 202.9 64.65 210.79 61.92 209.21"/><polygon class="cls-107" points="72.84 215.36 86.49 207.48 100.14 215.36 86.49 223.24 72.84 215.36"/><polygon class="cls-108" points="72.84 215.36 72.84 231.18 86.49 239.06 86.49 223.24 72.84 215.36"/><polygon class="cls-69" points="73.48 216.77 73.48 218.26 76.92 220.25 76.92 218.76 73.48 216.77"/><polygon class="cls-109" points="86.49 239.06 100.14 231.18 100.14 215.36 86.49 223.24 86.49 239.06"/><polygon class="cls-69" points="78.3 234.33 78.3 218.51 81.03 220.08 81.03 235.91 78.3 234.33"/><polygon class="cls-69" points="78.3 218.51 91.95 210.66 94.78 212.2 81.03 220.08 78.3 218.51"/><g class="cls-11"><polygon class="cls-12" points="380.78 319.05 134.38 462.39 186.76 492.63 433.17 349.3 380.78 319.05"/><polygon class="cls-13" points="380.78 319.05 139.18 459.59 191.57 489.83 433.17 349.3 380.78 319.05"/><polygon class="cls-14" points="380.78 319.05 143.99 456.8 196.37 487.04 433.17 349.3 380.78 319.05"/><polygon class="cls-15" points="380.78 319.05 148.79 454 201.17 484.25 433.17 349.3 380.78 319.05"/><polygon class="cls-16" points="380.78 319.05 153.59 451.21 205.98 481.45 433.17 349.3 380.78 319.05"/><polygon class="cls-17" points="380.78 319.05 158.4 448.42 210.78 478.66 433.17 349.3 380.78 319.05"/><polygon class="cls-18" points="380.78 319.05 163.2 445.62 215.58 475.87 433.17 349.3 380.78 319.05"/><polygon class="cls-19" points="380.78 319.05 168.01 442.83 220.39 473.07 433.17 349.3 380.78 319.05"/><polygon class="cls-20" points="380.78 319.05 172.81 440.04 225.19 470.28 433.17 349.3 380.78 319.05"/><polygon class="cls-21" points="380.78 319.05 177.61 437.24 230 467.49 433.17 349.3 380.78 319.05"/><polygon class="cls-22" points="380.78 319.05 182.42 434.45 234.8 464.69 433.17 349.3 380.78 319.05"/><polygon class="cls-23" points="380.78 319.05 187.22 431.65 239.6 461.9 433.17 349.3 380.78 319.05"/><polygon class="cls-24" points="380.78 319.05 192.02 428.86 244.41 459.11 433.17 349.3 380.78 319.05"/><polygon class="cls-25" points="380.78 319.05 196.83 426.07 249.21 456.31 433.17 349.3 380.78 319.05"/><polygon class="cls-26" points="380.78 319.05 201.63 423.27 254.01 453.52 433.17 349.3 380.78 319.05"/><polygon class="cls-27" points="380.78 319.05 206.43 420.48 258.82 450.72 433.17 349.3 380.78 319.05"/><polygon class="cls-28" points="380.78 319.05 211.24 417.69 263.62 447.93 433.17 349.3 380.78 319.05"/><polygon class="cls-29" points="380.78 319.05 216.04 414.89 268.42 445.14 433.17 349.3 380.78 319.05"/><polygon class="cls-30" points="380.78 319.05 220.84 412.1 273.23 442.34 433.17 349.3 380.78 319.05"/><polygon class="cls-31" points="380.78 319.05 225.65 409.31 278.03 439.55 433.17 349.3 380.78 319.05"/><polygon class="cls-32" points="380.78 319.05 230.45 406.51 282.83 436.75 433.17 349.3 380.78 319.05"/><polygon class="cls-33" points="380.78 319.05 235.26 403.72 287.64 433.96 433.17 349.3 380.78 319.05"/><polygon class="cls-34" points="380.78 319.05 240.06 400.93 292.44 431.17 433.17 349.3 380.78 319.05"/><polygon class="cls-35" points="380.78 319.05 244.86 398.13 297.25 428.37 433.17 349.3 380.78 319.05"/><polygon class="cls-36" points="380.78 319.05 249.67 395.34 302.05 425.58 433.17 349.3 380.78 319.05"/><polygon class="cls-37" points="380.78 319.05 254.47 392.54 306.85 422.79 433.17 349.3 380.78 319.05"/><polygon class="cls-38" points="380.78 319.05 259.27 389.75 311.66 419.99 433.17 349.3 380.78 319.05"/><polygon class="cls-39" points="380.78 319.05 264.08 386.96 316.46 417.2 433.17 349.3 380.78 319.05"/><polygon class="cls-40" points="380.78 319.05 268.88 384.16 321.26 414.41 433.17 349.3 380.78 319.05"/><polygon class="cls-41" points="380.78 319.05 273.69 381.37 326.07 411.61 433.17 349.3 380.78 319.05"/><polygon class="cls-42" points="380.78 319.05 278.49 378.57 330.87 408.82 433.17 349.3 380.78 319.05"/><polygon class="cls-43" points="380.78 319.05 283.29 375.78 335.68 406.02 433.17 349.3 380.78 319.05"/><polygon class="cls-44" points="380.78 319.05 288.1 372.99 340.48 403.23 433.17 349.3 380.78 319.05"/><polygon class="cls-45" points="380.78 319.05 292.9 370.19 345.28 400.44 433.17 349.3 380.78 319.05"/><polygon class="cls-46" points="380.78 319.05 297.7 367.4 350.08 397.64 433.17 349.3 380.78 319.05"/><polygon class="cls-47" points="380.78 319.05 302.51 364.61 354.89 394.85 433.17 349.3 380.78 319.05"/><polygon class="cls-48" points="380.78 319.05 307.31 361.81 359.69 392.06 433.17 349.3 380.78 319.05"/><polygon class="cls-49" points="380.78 319.05 312.11 359.02 364.5 389.26 433.17 349.3 380.78 319.05"/><polygon class="cls-50" points="380.78 319.05 316.92 356.23 369.3 386.47 433.17 349.3 380.78 319.05"/><polygon class="cls-51" points="380.78 319.05 321.72 353.43 374.1 383.68 433.17 349.3 380.78 319.05"/><polygon class="cls-52" points="380.78 319.05 326.52 350.64 378.91 380.88 433.17 349.3 380.78 319.05"/><polygon class="cls-53" points="380.78 319.05 331.33 347.85 383.71 378.09 433.17 349.3 380.78 319.05"/><polygon class="cls-54" points="380.78 319.05 336.13 345.05 388.51 375.29 433.17 349.3 380.78 319.05"/><polygon class="cls-55" points="380.78 319.05 340.94 342.26 393.32 372.5 433.17 349.3 380.78 319.05"/><polygon class="cls-56" points="380.78 319.05 345.74 339.46 398.12 369.71 433.17 349.3 380.78 319.05"/><polygon class="cls-57" points="380.78 319.05 350.54 336.67 402.93 366.91 433.17 349.3 380.78 319.05"/><polygon class="cls-58" points="380.78 319.05 355.35 333.88 407.73 364.12 433.17 349.3 380.78 319.05"/><polygon class="cls-59" points="380.78 319.05 360.15 331.08 412.53 361.32 433.17 349.3 380.78 319.05"/><polygon class="cls-60" points="380.78 319.05 364.95 328.29 417.34 358.53 433.17 349.3 380.78 319.05"/><polygon class="cls-61" points="380.78 319.05 369.76 325.5 422.14 355.74 433.17 349.3 380.78 319.05"/><polygon class="cls-62" points="380.78 319.05 374.56 322.7 426.94 352.94 433.17 349.3 380.78 319.05"/><polygon class="cls-6" points="380.78 319.05 379.36 319.91 431.75 350.15 433.17 349.3 380.78 319.05"/></g><polygon class="cls-66" points="312.64 410.53 291.71 423.11 289.51 392.83 308.21 392.83 311.73 400 311.81 403.42 312.64 410.53"/><path class="cls-66" d="M295.11,427.34,289.3,424a5.15,5.15,0,0,1-2.56-4.45v-16.4l8.37,4.31Z"/><path class="cls-66" d="M315.4,416l-5.81-3.39a5.14,5.14,0,0,1-2.56-4.44v-16.4l8.37,4.3Z"/><path class="cls-6" d="M301.08,404.67c-5.16,3-9.37,10.28-9.37,16.23s4.21,8.48,9.37,5.62,9.37-10.16,9.37-16.23S306.23,401.69,301.08,404.67Z"/><path class="cls-69" d="M301.08,409.6a11.37,11.37,0,0,0-5.13,8.88c0,3.25,2.31,4.64,5.13,3.07a11.15,11.15,0,0,0,5.12-8.87C306.2,409.36,303.9,408,301.08,409.6Z"/><polygon class="cls-66" points="332.15 398.87 311.22 411.46 309.02 381.17 327.72 381.17 328.67 389.68 329.75 392.58 332.15 398.87"/><path class="cls-6" d="M320.59,393c-5.16,3-9.37,10.28-9.37,16.23s4.21,8.48,9.37,5.63S330,404.7,330,398.63,325.74,390,320.59,393Z"/><path class="cls-69" d="M320.59,397.94a11.39,11.39,0,0,0-5.13,8.88c0,3.26,2.31,4.64,5.13,3.08a11.18,11.18,0,0,0,5.12-8.88C325.71,397.7,323.41,396.32,320.59,397.94Z"/><path class="cls-77" d="M327.84,391.71l.08.34a8.53,8.53,0,0,1,2.47,6.52c0,.47,0,.95-.07,1.43l4.2-2.32v-2.05a4.49,4.49,0,0,0-6.68-3.92Z"/><polygon class="cls-66" points="445.25 333.56 424.31 346.15 422.12 315.86 440.82 315.86 444.34 323.03 444.42 326.45 445.25 333.56"/><path class="cls-66" d="M427.72,350.38l-9.08-5.15a5.15,5.15,0,0,1-2.56-4.45v-16.4l11.64,6.07Z"/><path class="cls-66" d="M448,339.05l-5.81-3.38a5.17,5.17,0,0,1-2.56-4.45v-16.4l8.37,4.3Z"/><path class="cls-6" d="M433.69,327.7c-5.16,3-9.38,10.28-9.38,16.23s4.22,8.48,9.38,5.63,9.37-10.17,9.37-16.24S438.84,324.72,433.69,327.7Z"/><path class="cls-69" d="M433.69,332.63a11.39,11.39,0,0,0-5.13,8.88c0,3.26,2.31,4.64,5.13,3.08a11.21,11.21,0,0,0,5.12-8.88C438.81,332.39,436.5,331,433.69,332.63Z"/><polygon class="cls-66" points="464.76 321.91 443.82 334.49 441.63 304.2 460.33 304.2 461.27 312.71 462.35 315.62 464.76 321.91"/><path class="cls-6" d="M453.2,316c-5.16,3-9.37,10.28-9.37,16.23s4.21,8.49,9.37,5.63,9.37-10.16,9.37-16.23S458.35,313.06,453.2,316Z"/><path class="cls-69" d="M453.2,321a11.36,11.36,0,0,0-5.13,8.87c0,3.26,2.31,4.64,5.13,3.08a11.16,11.16,0,0,0,5.12-8.88C458.32,320.73,456,319.35,453.2,321Z"/><path class="cls-113" d="M460.45,314.74l.07.35A8.46,8.46,0,0,1,463,321.6c0,.47,0,.95-.07,1.43l4.2-2.32v-2a4.5,4.5,0,0,0-6.68-3.93Z"/><polygon class="cls-65" points="218.5 406.8 252.17 387.4 294.17 411.65 260.5 431.05 218.5 406.8"/><polygon class="cls-66" points="279.28 429.86 258.08 441.24 256.15 412.15 274.84 412.15 274.8 422.99 276.87 423.57 279.28 429.86"/><polygon class="cls-66" points="260.52 447.49 252.15 442.62 252.15 423.26 260.52 427.56 260.52 447.49"/><polygon class="cls-2" points="285.31 377.79 481.06 265.23 430.65 236.13 234.9 348.69 285.31 377.79"/><polygon class="cls-114" points="285.31 377.79 285.31 416.67 234.9 387.57 234.9 348.69 285.31 377.79"/><polygon class="cls-115" points="285.31 416.67 481.06 304.11 481.06 265.23 285.31 377.79 285.31 416.67"/><polygon class="cls-6" points="285.31 403.22 481.06 291.25 481.06 286.46 285.31 398.43 285.31 403.22"/><polygon class="cls-6" points="285.31 403.19 246.53 381.07 246.53 376.28 285.31 398.39 285.31 403.19"/><polygon class="cls-72" points="196.88 419.46 196.88 426.43 241.24 451.96 241.24 444.89 196.88 419.46"/><polygon class="cls-73" points="241.25 451.96 253.91 444.89 253.91 437.58 241.24 444.89 241.25 451.96"/><polygon class="cls-116" points="199.24 379.29 241.24 403.55 241.24 442.35 199.24 418.1 199.24 379.29"/><polygon class="cls-72" points="199.24 382.13 238.4 404.62 238.4 429.33 199.24 406.84 199.24 382.13"/><polygon class="cls-69" points="230.29 428.17 239.51 433.46 239.51 439.28 230.29 433.99 230.29 428.17"/><polygon class="cls-6" points="212.12 418.77 228.36 428.48 228.36 430.67 212.12 420.96 212.12 418.77"/><polygon class="cls-69" points="201.09 411.11 210.31 416.41 210.31 422.23 201.09 416.93 201.09 411.11"/><path class="cls-117" d="M255.78,443.81a12,12,0,0,1-.15-1.94c0-6.87,4.87-15.3,10.81-18.73,3.36-1.94,6.37-1.85,8.36-.15l.11-38.85-33.67,19.4v41.35l12.67-7.31v7.31Z"/><path class="cls-6" d="M266.44,424.81c-5.15,3-9.37,10.28-9.37,16.24s4.22,8.48,9.37,5.62,9.37-10.16,9.37-16.23S271.6,421.84,266.44,424.81Z"/><path class="cls-69" d="M266.44,429.75a11.36,11.36,0,0,0-5.12,8.88c0,3.25,2.3,4.64,5.12,3.07a11.16,11.16,0,0,0,5.13-8.87C271.57,429.51,269.26,428.12,266.44,429.75Z"/><polygon class="cls-118" points="199.24 379.29 232.91 359.89 274.92 384.14 241.24 403.55 199.24 379.29"/><polygon class="cls-72" points="244.15 406.17 272 390.44 272 406.48 258.11 414.52 258.08 425.88 244.26 433.86 244.15 406.17"/><path class="cls-119" d="M291.25,422.93a11.43,11.43,0,0,1-.12-1.7,20.28,20.28,0,0,1,2.77-9.54l-19.1,11.12v.3a8.47,8.47,0,0,1,2.47,6.51,13.83,13.83,0,0,1-.07,1.43Z"/><polygon class="cls-3" points="199.24 418.1 196.88 419.46 241.24 444.89 243.62 443.52 199.24 418.1"/><polygon class="cls-3" points="253.91 437.59 251.9 436.4 239.51 443.6 241.53 444.77 253.91 437.59"/><polygon class="cls-79" points="226.45 397.75 222.8 395.66 207.1 411.36 210.75 413.45 226.45 397.75"/><polygon class="cls-79" points="208.42 387.4 199.24 396.58 199.24 406.84 203.79 409.45 219.49 393.76 208.42 387.4"/><polygon class="cls-79" points="257.6 398.57 255.05 400.01 244.22 422.05 244.23 425.76 257.6 398.57"/><polygon class="cls-79" points="244.16 407.39 244.2 418.67 252.73 401.32 244.99 405.69 244.16 407.39"/></g></g></g></svg>