<?xml version="1.0" encoding="utf-8"?>
<!-- Generator: Adobe Illustrator 16.0.0, SVG Export Plug-In . SVG Version: 6.00 Build 0)  -->
<!DOCTYPE svg PUBLIC "-//W3C//DTD SVG 1.1//EN" "http://www.w3.org/Graphics/SVG/1.1/DTD/svg11.dtd">
<svg version="1.1" id="Layer_1" xmlns="http://www.w3.org/2000/svg" xmlns:xlink="http://www.w3.org/1999/xlink" x="0px" y="0px"
	 width="1400px" height="980px" viewBox="0 0 1400 980" enable-background="new 0 0 1400 980" xml:space="preserve">
<g>
	<path fill="#DEE5DC" d="M1265,440.521c0,0-531-179.657-1129-116.351v348.38l1129-9.976V440.521z"/>
	<path fill="#EAEFE8" d="M136,601.521c0,0,531-179.657,1129-116.351v348.38l-1129-9.976V601.521z"/>
	<g>
		<path fill="#161616" d="M80.5,611.067c-1.043,0-2.016-0.657-2.368-1.7c-0.442-1.308,0.259-2.727,1.566-3.169
			c0.852-0.288,86.726-29.16,226.798-60.424c207.171-46.238,528.306-97.078,881.654-76.7c4.723,0.272,9.45,0.559,14.185,0.856
			c37.081,2.335,74.234,5.46,110.428,9.288c1.372,0.146,2.368,1.376,2.224,2.749c-0.145,1.374-1.384,2.354-2.749,2.224
			c-36.124-3.821-73.206-6.94-110.217-9.271c-4.725-0.298-9.444-0.583-14.158-0.854c-352.773-20.347-673.416,30.418-880.276,76.589
			C167.799,581.854,82.15,610.647,81.302,610.935C81.036,611.024,80.766,611.067,80.5,611.067z"/>
	</g>
</g>
<g>
	<path d="M565.194,895.04h6.97v-6.321h2.438v16.158h-2.438v-7.545h-6.97v7.545h-2.438v-16.158h2.438V895.04z"/>
	<path d="M602.97,900.952h-6.917l-1.801,3.925h-2.626l7.995-17.173l7.713,17.173h-2.669L602.97,900.952z M601.976,898.661
		l-2.396-5.494l-2.512,5.494H601.976z"/>
	<path d="M629.828,897.991l5.002,6.886h-2.982l-4.615-6.614h-0.439v6.614h-2.438v-16.158h2.857c2.135,0,3.677,0.401,4.625,1.204
		c1.047,0.893,1.57,2.071,1.57,3.537c0,1.144-0.328,2.128-0.983,2.951C631.768,897.234,630.902,897.761,629.828,897.991z
		 M626.793,896.139h0.774c2.31,0,3.464-0.883,3.464-2.647c0-1.653-1.123-2.48-3.369-2.48h-0.869V896.139z"/>
	<path d="M652.502,888.719l4.469,11.198l4.531-11.198h2.669l-7.252,17.372l-7.085-17.372H652.502z"/>
	<path d="M690.099,891.011h-6.479v3.883h6.29v2.292h-6.29v5.399h6.479v2.292h-8.917v-16.158h8.917V891.011z"/>
	<path d="M717.439,891.126l-1.979,1.172c-0.369-0.642-0.722-1.061-1.057-1.256c-0.349-0.223-0.799-0.335-1.35-0.335
		c-0.677,0-1.239,0.192-1.686,0.576c-0.446,0.377-0.67,0.851-0.67,1.423c0,0.789,0.587,1.424,1.759,1.905l1.611,0.659
		c1.312,0.53,2.271,1.177,2.878,1.94c0.607,0.765,0.91,1.701,0.91,2.811c0,1.485-0.495,2.714-1.485,3.684
		c-0.998,0.977-2.236,1.465-3.716,1.465c-1.402,0-2.561-0.415-3.474-1.245c-0.9-0.83-1.462-1.999-1.686-3.506l2.47-0.544
		c0.112,0.948,0.308,1.604,0.586,1.967c0.503,0.698,1.235,1.047,2.198,1.047c0.76,0,1.392-0.255,1.894-0.764
		c0.503-0.51,0.754-1.155,0.754-1.937c0-0.313-0.044-0.602-0.131-0.863s-0.224-0.502-0.408-0.722s-0.424-0.426-0.717-0.618
		c-0.293-0.191-0.642-0.374-1.047-0.549l-1.559-0.649c-2.212-0.935-3.317-2.302-3.317-4.102c0-1.214,0.464-2.229,1.392-3.046
		c0.928-0.823,2.082-1.234,3.464-1.234C714.938,888.405,716.393,889.312,717.439,891.126z"/>
	<path d="M740.562,891.011v13.866h-2.438v-13.866h-3.716v-2.292h9.858v2.292H740.562z"/>
	<path d="M783.062,904.877v-16.158h2.429c1.081,0,1.942,0.084,2.584,0.252c0.649,0.167,1.197,0.449,1.644,0.848
		c0.453,0.411,0.812,0.924,1.078,1.538c0.271,0.621,0.408,1.249,0.408,1.884c0,1.158-0.443,2.138-1.329,2.94
		c0.857,0.293,1.534,0.806,2.03,1.538c0.502,0.726,0.753,1.57,0.753,2.532c0,1.264-0.446,2.331-1.34,3.203
		c-0.537,0.537-1.141,0.91-1.81,1.119c-0.733,0.203-1.65,0.304-2.753,0.304H783.062z M785.5,895.657h0.765
		c0.906,0,1.571-0.2,1.993-0.602s0.633-0.992,0.633-1.773c0-0.761-0.216-1.338-0.648-1.732c-0.433-0.394-1.061-0.591-1.884-0.591
		H785.5V895.657z M785.5,902.585h1.507c1.103,0,1.912-0.216,2.429-0.648c0.544-0.468,0.815-1.061,0.815-1.779
		c0-0.697-0.261-1.283-0.784-1.758c-0.51-0.468-1.42-0.701-2.731-0.701H785.5V902.585z"/>
	<path d="M819.988,900.952h-6.917l-1.801,3.925h-2.626l7.995-17.173l7.713,17.173h-2.669L819.988,900.952z M818.994,898.661
		l-2.396-5.494l-2.512,5.494H818.994z"/>
	<path d="M846.848,897.991l5.002,6.886h-2.982l-4.615-6.614h-0.439v6.614h-2.438v-16.158h2.857c2.135,0,3.677,0.401,4.625,1.204
		c1.047,0.893,1.57,2.071,1.57,3.537c0,1.144-0.328,2.128-0.983,2.951C848.787,897.234,847.922,897.761,846.848,897.991z
		 M843.812,896.139h0.774c2.31,0,3.464-0.883,3.464-2.647c0-1.653-1.123-2.48-3.369-2.48h-0.869V896.139z"/>
	<path d="M869.28,904.877V887.62l11.784,12.328v-11.229h2.438v17.142l-11.784-12.296v11.312H869.28z"/>
</g>
<g>
	<g>
		<circle fill="#BBBFBA" cx="1279.796" cy="617.087" r="41.912"/>
		<circle fill="#BBBFBA" cx="1281.381" cy="558.344" r="30.475"/>
		<g>
			<path fill="#161616" d="M1280.941,716h-0.008c-1.38,0-2.496-1.318-2.492-2.699l0.439-166.828c0.004-1.378,1.122-2.473,2.5-2.473
				h0.007c1.381,0,2.497,1.01,2.493,2.391l-0.439,166.982C1283.438,714.751,1282.319,716,1280.941,716z"/>
		</g>
		<g>
			<path fill="#161616" d="M1280.939,628.68c-0.398,0-0.803-0.096-1.178-0.297l-22.646-12.124c-1.218-0.651-1.676-2.167-1.024-3.384
				c0.65-1.219,2.169-1.677,3.384-1.024l22.646,12.124c1.218,0.651,1.676,2.167,1.024,3.384
				C1282.695,628.2,1281.831,628.68,1280.939,628.68z"/>
		</g>
		<g>
			<path fill="#161616" d="M1281.38,577.674c-0.566,0-1.135-0.19-1.603-0.582c-1.061-0.886-1.2-2.462-0.314-3.521l17.814-21.307
				c0.886-1.062,2.463-1.2,3.521-0.314c1.06,0.886,1.2,2.462,0.314,3.521l-17.814,21.307
				C1282.805,577.369,1282.095,577.674,1281.38,577.674z"/>
		</g>
	</g>
	<g>
		<circle fill="#BBBFBA" cx="162.356" cy="586.651" r="53.218"/>
		<circle fill="#BBBFBA" cx="164.37" cy="512.062" r="38.696"/>
		<g>
			<path fill="#161616" d="M163.812,711h-0.007c-1.381,0-2.497-1.083-2.493-2.464l0.558-211.95c0.004-1.378,1.122-2.586,2.5-2.586
				c0,0,0.004,0,0.007,0c1.381,0,2.497,1.24,2.493,2.621l-0.558,211.871C166.308,709.871,165.189,711,163.812,711z"/>
		</g>
		<g>
			<path fill="#161616" d="M163.81,600.696c-0.398,0-0.803-0.096-1.178-0.297l-28.757-15.395c-1.218-0.651-1.676-2.167-1.024-3.384
				c0.65-1.219,2.168-1.677,3.384-1.024l28.757,15.395c1.218,0.651,1.676,2.167,1.024,3.384
				C165.565,600.217,164.701,600.696,163.81,600.696z"/>
		</g>
		<g>
			<path fill="#161616" d="M164.368,535.933c-0.566,0-1.135-0.19-1.603-0.582c-1.06-0.886-1.2-2.462-0.314-3.521l22.62-27.056
				c0.886-1.062,2.463-1.2,3.521-0.314c1.06,0.886,1.2,2.462,0.314,3.521l-22.62,27.056
				C165.793,535.628,165.083,535.933,164.368,535.933z"/>
		</g>
	</g>
	<g>
		<circle fill="#BBBFBA" cx="262.624" cy="617.089" r="40.192"/>
		<circle fill="#BBBFBA" cx="261.104" cy="560.756" r="29.225"/>
		<g>
			<path fill="#161616" d="M261.525,712c-1.378,0-2.496-1.275-2.5-2.654l-0.421-159.921c-0.004-1.381,1.112-2.425,2.493-2.425
				c0,0,0.005,0,0.007,0c1.378,0,2.496,0.953,2.5,2.33l0.421,160.084c0.004,1.381-1.112,2.586-2.493,2.586H261.525z"/>
		</g>
		<g>
			<path fill="#161616" d="M261.527,628.309c-0.893,0-1.756-0.479-2.206-1.321c-0.651-1.217-0.193-2.732,1.024-3.384l21.719-11.627
				c1.215-0.651,2.732-0.193,3.384,1.024c0.651,1.217,0.193,2.732-1.024,3.384l-21.719,11.627
				C262.33,628.213,261.926,628.309,261.527,628.309z"/>
		</g>
		<g>
			<path fill="#161616" d="M261.105,579.395c-0.715,0-1.425-0.305-1.919-0.896l-17.084-20.432c-0.886-1.06-0.745-2.636,0.314-3.521
				c1.06-0.885,2.637-0.745,3.521,0.314l17.084,20.432c0.886,1.06,0.745,2.636-0.314,3.521
				C262.24,579.203,261.671,579.395,261.105,579.395z"/>
		</g>
	</g>
	<polygon fill="#F4CD00" points="1196.638,714 934.908,714 979.499,137 1152.047,137 	"/>
	<g>
		<polygon fill="#FF3A1E" points="1076.885,420.751 926.597,250.256 696.529,149.991 466.473,250.199 316.191,420.761 262.908,455 
			696.529,455 1130.174,455 		"/>
		<g>
			<path fill="#BBBFBA" d="M262.92,466.631c-3.932,0-7.783-1.942-10.061-5.501c-3.552-5.55-1.932-12.927,3.619-16.479l51.873-33.195
				l150.927-171.153l2.429-1.06l234.822-102.303L933.793,240.3l150.932,171.153l51.879,33.197c5.551,3.551,7.17,10.93,3.618,16.479
				c-3.55,5.55-10.927,7.171-16.479,3.618l-54.699-35l-1.107-1.257L919.401,260.059l-222.872-97.092l-222.861,97.092
				L324.033,429.748l-54.695,35C267.348,466.022,265.121,466.631,262.92,466.631z"/>
		</g>
		<g>
			<g>
				
					<path fill="none" stroke="#161616" stroke-width="5" stroke-linecap="round" stroke-linejoin="round" stroke-miterlimit="10" d="
					M461.707,239.242"/>
			</g>
			<g>
				<path fill="#161616" d="M1130.146,469.135c-2.726,0-5.399-0.776-7.752-2.281l-54.699-35c-0.196-0.125-0.374-0.278-0.528-0.453
					l-1.107-1.257L917.894,262.129l-221.364-96.436l-221.354,96.436L325.908,431.401c-0.154,0.175-0.331,0.327-0.527,0.452
					l-54.695,35c-2.326,1.49-5.012,2.277-7.766,2.277c-4.952,0-9.5-2.487-12.166-6.653c-4.289-6.701-2.325-15.643,4.377-19.933
					c1.16-0.745,2.708-0.406,3.453,0.758c0.744,1.163,0.405,2.709-0.758,3.453c-4.38,2.804-5.664,8.647-2.861,13.026
					c1.743,2.723,4.717,4.349,7.955,4.349c1.796,0,3.55-0.515,5.069-1.488l54.401-34.812l149.402-169.426
					c0.242-0.274,0.541-0.492,0.877-0.639l222.861-97.092c0.637-0.277,1.359-0.277,1.996,0l222.872,97.092
					c0.336,0.146,0.635,0.364,0.877,0.639l149.41,169.427l54.403,34.811c2.122,1.357,4.642,1.809,7.107,1.268
					c2.459-0.54,4.562-2.006,5.918-4.127c1.358-2.123,1.809-4.646,1.269-7.106c-0.54-2.461-2.006-4.563-4.128-5.92l-51.879-33.198
					c-0.19-0.122-0.364-0.27-0.515-0.438l-116.375-130.02c-0.92-1.028-0.833-2.609,0.196-3.53c1.027-0.92,2.61-0.832,3.529,0.196
					l116.146,129.765l51.592,33.014c3.247,2.076,5.49,5.294,6.316,9.06c0.827,3.765,0.138,7.626-1.94,10.873
					c-2.076,3.246-5.293,5.49-9.058,6.316C1132.23,469.022,1131.185,469.135,1130.146,469.135z"/>
			</g>
		</g>
		<rect x="321" y="433" fill="#FF3A1E" width="748" height="259"/>
		<g>
			<g>
				<g>
					
						<line fill="none" stroke="#161616" stroke-width="5" stroke-linecap="round" stroke-linejoin="round" stroke-miterlimit="10" x1="642.5" y1="689" x2="642.5" y2="191"/>
					
						<line fill="none" stroke="#161616" stroke-width="5" stroke-linecap="round" stroke-linejoin="round" stroke-miterlimit="10" x1="612.5" y1="689" x2="612.5" y2="204"/>
					
						<line fill="none" stroke="#161616" stroke-width="5" stroke-linecap="round" stroke-linejoin="round" stroke-miterlimit="10" x1="583.5" y1="689" x2="583.5" y2="217"/>
					
						<line fill="none" stroke="#161616" stroke-width="5" stroke-linecap="round" stroke-linejoin="round" stroke-miterlimit="10" x1="553.5" y1="689" x2="553.5" y2="230"/>
					
						<line fill="none" stroke="#161616" stroke-width="5" stroke-linecap="round" stroke-linejoin="round" stroke-miterlimit="10" x1="524.5" y1="689" x2="524.5" y2="243"/>
					
						<line fill="none" stroke="#161616" stroke-width="5" stroke-linecap="round" stroke-linejoin="round" stroke-miterlimit="10" x1="495.5" y1="689" x2="495.5" y2="256"/>
				</g>
				<g>
					
						<line fill="none" stroke="#161616" stroke-width="5" stroke-linecap="round" stroke-linejoin="round" stroke-miterlimit="10" x1="321.5" y1="691" x2="321.5" y2="434"/>
					
						<line fill="none" stroke="#161616" stroke-width="5" stroke-linecap="round" stroke-linejoin="round" stroke-miterlimit="10" x1="350.5" y1="691" x2="350.5" y2="401"/>
					
						<line fill="none" stroke="#161616" stroke-width="5" stroke-linecap="round" stroke-linejoin="round" stroke-miterlimit="10" x1="379.5" y1="690" x2="379.5" y2="368"/>
					
						<line fill="none" stroke="#161616" stroke-width="5" stroke-linecap="round" stroke-linejoin="round" stroke-miterlimit="10" x1="408.5" y1="690" x2="408.5" y2="335"/>
					
						<line fill="none" stroke="#161616" stroke-width="5" stroke-linecap="round" stroke-linejoin="round" stroke-miterlimit="10" x1="437.5" y1="690" x2="437.5" y2="303"/>
					
						<line fill="none" stroke="#161616" stroke-width="5" stroke-linecap="round" stroke-linejoin="round" stroke-miterlimit="10" x1="467.5" y1="689" x2="467.5" y2="270"/>
				</g>
			</g>
			<g>
				<g>
					
						<line fill="none" stroke="#161616" stroke-width="5" stroke-linecap="round" stroke-linejoin="round" stroke-miterlimit="10" x1="749.5" y1="689" x2="749.5" y2="191"/>
					
						<line fill="none" stroke="#161616" stroke-width="5" stroke-linecap="round" stroke-linejoin="round" stroke-miterlimit="10" x1="778.5" y1="689" x2="778.5" y2="204"/>
					
						<line fill="none" stroke="#161616" stroke-width="5" stroke-linecap="round" stroke-linejoin="round" stroke-miterlimit="10" x1="808.5" y1="689" x2="808.5" y2="217"/>
					
						<line fill="none" stroke="#161616" stroke-width="5" stroke-linecap="round" stroke-linejoin="round" stroke-miterlimit="10" x1="837.5" y1="689" x2="837.5" y2="230"/>
					
						<line fill="none" stroke="#161616" stroke-width="5" stroke-linecap="round" stroke-linejoin="round" stroke-miterlimit="10" x1="867.5" y1="689" x2="867.5" y2="243"/>
					
						<line fill="none" stroke="#161616" stroke-width="5" stroke-linecap="round" stroke-linejoin="round" stroke-miterlimit="10" x1="896.5" y1="689" x2="896.5" y2="256"/>
				</g>
				<g>
					
						<line fill="none" stroke="#161616" stroke-width="5" stroke-linecap="round" stroke-linejoin="round" stroke-miterlimit="10" x1="1070.5" y1="691" x2="1070.5" y2="434"/>
					
						<line fill="none" stroke="#161616" stroke-width="5" stroke-linecap="round" stroke-linejoin="round" stroke-miterlimit="10" x1="1041.5" y1="691" x2="1041.5" y2="401"/>
					
						<line fill="none" stroke="#161616" stroke-width="5" stroke-linecap="round" stroke-linejoin="round" stroke-miterlimit="10" x1="1012.5" y1="690" x2="1012.5" y2="368"/>
					
						<line fill="none" stroke="#161616" stroke-width="5" stroke-linecap="round" stroke-linejoin="round" stroke-miterlimit="10" x1="982.5" y1="690" x2="982.5" y2="335"/>
					
						<line fill="none" stroke="#161616" stroke-width="5" stroke-linecap="round" stroke-linejoin="round" stroke-miterlimit="10" x1="953.5" y1="690" x2="953.5" y2="303"/>
					
						<line fill="none" stroke="#161616" stroke-width="5" stroke-linecap="round" stroke-linejoin="round" stroke-miterlimit="10" x1="924.5" y1="689" x2="924.5" y2="270"/>
				</g>
			</g>
			<g>
				<path fill="#161616" d="M671.5,692.5c-1.381,0-2.5-1.119-2.5-2.5V184c0-1.381,1.119-2.5,2.5-2.5s2.5,1.119,2.5,2.5v506
					C674,691.381,672.881,692.5,671.5,692.5z"/>
			</g>
			<g>
				<path fill="#161616" d="M716.5,692.5c-1.381,0-2.5-1.119-2.5-2.5V184c0-1.381,1.119-2.5,2.5-2.5s2.5,1.119,2.5,2.5v506
					C719,691.381,717.881,692.5,716.5,692.5z"/>
			</g>
		</g>
		<rect x="540" y="434" fill="#FF3A1E" width="311" height="259"/>
		<g>
			<path fill="#F3F4F2" d="M849.5,695h-310c-1.381,0-2.5-1.119-2.5-2.5v-257c0-1.381,1.119-2.5,2.5-2.5h310
				c1.381,0,2.5,1.119,2.5,2.5v257C852,693.881,850.881,695,849.5,695z M542,690h305V438H542V690z"/>
		</g>
		<g>
			<path fill="#F3F4F2" d="M849.5,695h-155c-1.381,0-2.5-1.119-2.5-2.5v-257c0-1.381,1.119-2.5,2.5-2.5h155
				c1.381,0,2.5,1.119,2.5,2.5v257C852,693.881,850.881,695,849.5,695z M697,690h150V438H697V690z"/>
		</g>
		<g>
			<path fill="#F3F4F2" d="M694.723,695h-0.016c-0.875,0-1.683-0.574-2.131-1.325L542.06,441.377
				c-0.708-1.186-0.32-2.747,0.865-3.454c1.185-0.707,2.72-0.335,3.428,0.853l148.399,248.689l152.595-248.727
				c0.723-1.176,2.264-1.544,3.438-0.824c1.177,0.722,1.545,2.261,0.823,3.438l-154.755,252.35
				C696.398,694.443,695.592,695,694.723,695z"/>
		</g>
		<g>
			<path fill="#F3F4F2" d="M540.646,694.787c-0.443,0-0.892-0.117-1.298-0.364c-1.18-0.718-1.554-2.256-0.836-3.436l153.526-252.016
				c0.452-0.742,1.258-0.972,2.127-0.972c0,0,0.006,0,0.009,0c0.866,0,1.671,0.22,2.126,0.957l155.984,252.13
				c0.727,1.174,0.363,2.657-0.812,3.384c-1.17,0.727-2.714,0.335-3.44-0.841L694.191,444.838L542.784,693.594
				C542.313,694.367,541.49,694.787,540.646,694.787z"/>
		</g>
		<g>
			<rect x="922" y="506" fill="#161616" width="89" height="83"/>
			<g>
				<path fill="#F3F4F2" d="M1011.5,592h-90c-1.381,0-2.5-1.119-2.5-2.5v-83c0-1.381,1.119-2.5,2.5-2.5h90
					c1.381,0,2.5,1.119,2.5,2.5v83C1014,590.881,1012.881,592,1011.5,592z M924,587h85v-78h-85V587z"/>
			</g>
			<g>
				<path fill="#F3F4F2" d="M968.5,592h-47c-1.381,0-2.5-1.119-2.5-2.5v-83c0-1.381,1.119-2.5,2.5-2.5h47c1.381,0,2.5,1.119,2.5,2.5
					v83C971,590.881,969.881,592,968.5,592z M924,587h42v-78h-42V587z"/>
			</g>
			<g>
				<path fill="#F3F4F2" d="M1011.5,552h-90c-1.381,0-2.5-1.119-2.5-2.5v-44c0-1.381,1.119-2.5,2.5-2.5h90
					c1.381,0,2.5,1.119,2.5,2.5v44C1014,550.881,1012.881,552,1011.5,552z M924,547h85v-39h-85V547z"/>
			</g>
		</g>
		<g>
			<rect x="378" y="506" fill="#161616" width="89" height="83"/>
			<g>
				<path fill="#F3F4F2" d="M467.5,592h-89c-1.381,0-2.5-1.119-2.5-2.5v-83c0-1.381,1.119-2.5,2.5-2.5h89c1.381,0,2.5,1.119,2.5,2.5
					v83C470,590.881,468.881,592,467.5,592z M381,587h84v-78h-84V587z"/>
			</g>
			<g>
				<path fill="#F3F4F2" d="M423.5,592h-46c-1.381,0-2.5-1.119-2.5-2.5v-83c0-1.381,1.119-2.5,2.5-2.5h46c1.381,0,2.5,1.119,2.5,2.5
					v83C426,590.881,424.881,592,423.5,592z M380,587h41v-78h-41V587z"/>
			</g>
			<g>
				<path fill="#F3F4F2" d="M467.5,552h-89c-1.381,0-2.5-1.119-2.5-2.5v-44c0-1.381,1.119-2.5,2.5-2.5h89c1.381,0,2.5,1.119,2.5,2.5
					v44C470,550.881,468.881,552,467.5,552z M381,547h84v-39h-84V547z"/>
			</g>
		</g>
		<g>
			<rect x="524" y="290" fill="#161616" width="61" height="41"/>
			<g>
				<path fill="#F3F4F2" d="M584.5,334h-61c-1.381,0-2.5-1.119-2.5-2.5v-41c0-1.381,1.119-2.5,2.5-2.5h61c1.381,0,2.5,1.119,2.5,2.5
					v41C587,332.881,585.881,334,584.5,334z M526,329h56v-36h-56V329z"/>
			</g>
			<g>
				<path fill="#F3F4F2" d="M555,334h-31.5c-1.381,0-2.5-1.119-2.5-2.5v-41c0-1.381,1.119-2.5,2.5-2.5H555
					c1.381,0,2.5,1.119,2.5,2.5s-1.119,2.5-2.5,2.5h-29v36h29c1.381,0,2.5,1.119,2.5,2.5S556.381,334,555,334z"/>
			</g>
			<g>
				<path fill="#F3F4F2" d="M584.5,315h-61c-1.381,0-2.5-1.119-2.5-2.5v-22c0-1.381,1.119-2.5,2.5-2.5h61c1.381,0,2.5,1.119,2.5,2.5
					v22C587,313.881,585.881,315,584.5,315z M526,310h56v-17h-56V310z"/>
			</g>
		</g>
		<g>
			<rect x="810" y="290" fill="#161616" width="60" height="41"/>
			<g>
				<path fill="#F3F4F2" d="M870.5,334h-61c-1.381,0-2.5-1.119-2.5-2.5v-41c0-1.381,1.119-2.5,2.5-2.5h61c1.381,0,2.5,1.119,2.5,2.5
					v41C873,332.881,871.881,334,870.5,334z M812,329h56v-36h-56V329z"/>
			</g>
			<g>
				<path fill="#F3F4F2" d="M840,334h-30.5c-1.381,0-2.5-1.119-2.5-2.5v-41c0-1.381,1.119-2.5,2.5-2.5H840
					c1.381,0,2.5,1.119,2.5,2.5s-1.119,2.5-2.5,2.5h-28v36h28c1.381,0,2.5,1.119,2.5,2.5S841.381,334,840,334z"/>
			</g>
			<g>
				<path fill="#F3F4F2" d="M870.5,315h-61c-1.381,0-2.5-1.119-2.5-2.5v-22c0-1.381,1.119-2.5,2.5-2.5h61c1.381,0,2.5,1.119,2.5,2.5
					v22C873,313.881,871.881,315,870.5,315z M812,310h56v-17h-56V310z"/>
			</g>
		</g>
		<g>
			<rect x="294" y="693" fill="#EAEFE8" width="793" height="21"/>
			<path fill="#161616" d="M1087.5,716h-793c-1.381,0-2.5-1.119-2.5-2.5v-21c0-1.381,1.119-2.5,2.5-2.5h793
				c1.381,0,2.5,1.119,2.5,2.5v21C1090,714.881,1088.881,716,1087.5,716z M297,711h788v-16H297V711z"/>
		</g>
		<g>
			<rect x="519" y="714" fill="#EAEFE8" width="349" height="21"/>
			<path fill="#161616" d="M868.5,737h-349c-1.381,0-2.5-1.119-2.5-2.5v-21c0-1.381,1.119-2.5,2.5-2.5h349
				c1.381,0,2.5,1.119,2.5,2.5v21C871,735.881,869.881,737,868.5,737z M522,732h344v-16H522V732z"/>
		</g>
		<g>
			<rect x="552" y="735" fill="#EAEFE8" width="285" height="21"/>
			<path fill="#161616" d="M837.5,758h-285c-1.381,0-2.5-1.119-2.5-2.5v-21c0-1.381,1.119-2.5,2.5-2.5h285
				c1.381,0,2.5,1.119,2.5,2.5v21C840,756.881,838.881,758,837.5,758z M555,753h280v-16H555V753z"/>
		</g>
		<g>
			<rect x="671" y="251" fill="#FF3A1E" width="45" height="127"/>
			<g>
				<path fill="#F3F4F2" d="M717.5,381h-50c-1.381,0-2.5-1.119-2.5-2.5v-127c0-1.381,1.119-2.5,2.5-2.5h50
					c1.381,0,2.5,1.119,2.5,2.5v127C720,379.881,718.881,381,717.5,381z M670,376h45V254h-45V376z"/>
			</g>
		</g>
		<g>
			<path fill="#F3F4F2" d="M1043,438H347c-1.381,0-2.5-1.119-2.5-2.5s1.119-2.5,2.5-2.5h696c1.381,0,2.5,1.119,2.5,2.5
				S1044.381,438,1043,438z"/>
		</g>
	</g>
	<path fill="#FF3A1E" d="M1151.125,137c0,0,0.013-0.56,0.013-0.917c0-47.678-38.649-86.251-86.327-86.251
		c-47.677,0-86.326,38.535-86.326,86.213c0,0.357,0.009,0.955,0.013,0.955H1151.125z"/>
	<g>
		<path fill="#161616" d="M1160.138,138.703L1160.138,138.703l-190.653-0.008c-1.381,0-2.5-1.119-2.5-2.5s1.119-2.5,2.5-2.5l0,0
			l190.653,0.008c1.381,0,2.5,1.119,2.5,2.5S1161.519,138.703,1160.138,138.703z"/>
	</g>
	<g>
		<path fill="#161616" d="M1235,716h-148c-1.381,0-2.5-1.119-2.5-2.5s1.119-2.5,2.5-2.5h148c1.381,0,2.5,1.119,2.5,2.5
			S1236.381,716,1235,716z"/>
	</g>
	<g>
		<g>
			<path fill="#161616" d="M1210,672h-44c-1.381,0-2.5-1.119-2.5-2.5s1.119-2.5,2.5-2.5h44c1.381,0,2.5,1.119,2.5,2.5
				S1211.381,672,1210,672z"/>
		</g>
		<g>
			<path fill="#161616" d="M1210,653h-44c-1.381,0-2.5-1.119-2.5-2.5s1.119-2.5,2.5-2.5h44c1.381,0,2.5,1.119,2.5,2.5
				S1211.381,653,1210,653z"/>
		</g>
		<g>
			<path fill="#161616" d="M1210,630h-44c-1.381,0-2.5-1.119-2.5-2.5s1.119-2.5,2.5-2.5h44c1.381,0,2.5,1.119,2.5,2.5
				S1211.381,630,1210,630z"/>
		</g>
		<g>
			<path fill="#161616" d="M1210,610h-44c-1.381,0-2.5-1.119-2.5-2.5s1.119-2.5,2.5-2.5h44c1.381,0,2.5,1.119,2.5,2.5
				S1211.381,610,1210,610z"/>
		</g>
	</g>
	<path fill="#161616" d="M1086,345v-39.135c0-11.742-9.758-21.262-21.5-21.262s-21.5,9.52-21.5,21.262V345H1086z"/>
	<path fill="#161616" d="M1086,237v-38.735c0-11.742-9.758-21.262-21.5-21.262s-21.5,9.52-21.5,21.262V237H1086z"/>
	<g>
		<path fill="#161616" d="M696.5,139.5c-1.381,0-2.5-1.119-2.5-2.5V80c0-1.381,1.119-2.5,2.5-2.5s2.5,1.119,2.5,2.5v57
			C699,138.381,697.881,139.5,696.5,139.5z"/>
	</g>
	<g>
		<path fill="#161616" d="M739.949,118.009c-0.183,0-0.368-0.021-0.554-0.062l-97.674-22.092c-1.347-0.305-2.191-1.644-1.887-2.99
			c0.304-1.347,1.64-2.191,2.99-1.887l97.674,22.092c1.347,0.305,2.191,1.644,1.887,2.99
			C742.123,117.221,741.092,118.009,739.949,118.009z"/>
	</g>
	<g>
		<path fill="#161616" d="M650.951,112c-0.615,0-1.232-0.226-1.715-0.681l-15.999-15.084c-0.526-0.497-0.812-1.197-0.783-1.92
			c0.029-0.724,0.37-1.398,0.936-1.851l17.999-14.416c1.077-0.863,2.65-0.69,3.514,0.389c0.863,1.077,0.689,2.65-0.389,3.514
			L638.76,94.569l13.906,13.111c1.005,0.947,1.052,2.529,0.104,3.534C652.278,111.736,651.615,112,650.951,112z"/>
	</g>
	<path fill="#161616" d="M896,354v79C896,433,913,386,896,354z"/>
	<path fill="#161616" d="M495,614.055c0,0,12.164,63.945,11.074,77.945L495,689.219V614.055z"/>
	<path fill="#161616" d="M467,315v101C467,416,447,406,467,315z"/>
	<polygon fill="#161616" points="1070,691 1070,672.551 966.5,692 	"/>
</g>
<circle fill="#F4CD00" cx="331.47" cy="137.693" r="34.498"/>
<g>
	<path fill="#EAEFE8" d="M344.857,597.637c-23.809,17.968-74.357-6.384-74.357-6.384L267,607h-14.999l-2.688,32.49
		c0,0-20.021-28.053-29.354-12.053c-9.332,16,17.958,26.821,17.958,26.821l6.584,40.401c0,0,7.278,57.27,40.389,52.562
		s18.438-55.95,18.438-55.95s37.875,11.599,41.755-58.902c0,0-0.026-26.543,0.711-34.688"/>
	<g>
		<path fill="#161616" d="M362.5,889h-177c-1.381,0-2.5-1.119-2.5-2.5V775c0-1.381,1.119-2.5,2.5-2.5s2.5,1.119,2.5,2.5v109h172V775
			c0-1.381,1.119-2.5,2.5-2.5s2.5,1.119,2.5,2.5v111.5C365,887.881,363.881,889,362.5,889z"/>
	</g>
	<g>
		<path fill="#161616" d="M381.779,842.256c-0.49,0-0.979-0.145-1.398-0.428l-19.279-13.006c-1.145-0.771-1.446-2.326-0.674-3.471
			c0.771-1.146,2.327-1.446,3.471-0.674l15.883,10.715l8.583-72.056c-35.314-31.759-83.15-60.071-83.634-60.355
			c-1.189-0.701-1.585-2.233-0.885-3.424c0.702-1.19,2.232-1.583,3.424-0.885c0.492,0.29,49.634,29.376,85.41,61.824
			c0.6,0.543,0.898,1.344,0.803,2.147l-9.221,77.407c-0.104,0.865-0.649,1.614-1.441,1.978
			C382.488,842.181,382.133,842.256,381.779,842.256z"/>
	</g>
	<g>
		<path fill="#161616" d="M141.002,850.5c-0.036,0-0.073-0.001-0.109-0.003c-1.38-0.059-2.449-1.225-2.391-2.604
			c0.013-0.294,1.363-29.736,10.086-61.824c11.659-42.893,31.182-71.093,56.456-81.551c0.182-0.075,0.372-0.129,0.566-0.16l38-6
			c1.282-0.204,2.517,0.619,2.82,1.887c0.109,0.455,11.063,44.949,33.96,44.949c0.304,0,0.607-0.008,0.916-0.024
			c4.804-0.247,8.622-2.092,11.673-5.641c9.89-11.506,7.558-36.205,7.533-36.453c-0.005-0.048-0.009-0.095-0.011-0.143
			l-0.521-12.282c-0.059-1.379,1.013-2.545,2.393-2.604c1.365-0.031,2.545,1.012,2.604,2.393l0.518,12.214
			c0.178,1.87,2.363,27.236-8.725,40.134c-3.935,4.577-9.051,7.059-15.206,7.376c-11.649,0.575-22.287-7.794-30.78-24.271
			c-4.684-9.086-7.486-18.151-8.626-22.243l-35.473,5.602c-57.573,24.176-63.139,137.712-63.188,138.857
			C143.439,849.45,142.333,850.5,141.002,850.5z"/>
	</g>
	<g>
		<path fill="#161616" d="M141.003,895.079c-0.093,0-0.187-0.005-0.281-0.016c-1.372-0.154-2.36-1.391-2.206-2.763l5-44.579
			c0.078-0.696,0.445-1.328,1.011-1.741c0.566-0.413,1.282-0.567,1.967-0.432l39.5,7.951c1.354,0.272,2.23,1.591,1.958,2.944
			c-0.273,1.354-1.604,2.223-2.944,1.958l-36.826-7.413l-4.696,41.868C143.341,894.135,142.259,895.079,141.003,895.079z"/>
	</g>
	<g>
		<path fill="none" stroke="#161616" stroke-width="5" stroke-linecap="round" stroke-linejoin="round" stroke-miterlimit="10" d="
			M291.5,881.7"/>
	</g>
	<g>
		<path fill="#161616" d="M302.357,693.052c-31.264,0-46.49-15.92-47.187-16.668c-0.941-1.01-0.886-2.592,0.125-3.533
			c1.01-0.942,2.59-0.884,3.53,0.122c0.26,0.273,17.816,18.342,53.408,14.541c14.316-1.526,23.772-13.451,28.107-35.442
			c3.35-16.992,2.177-33.789,2.165-33.957c-0.005-0.071-0.008-0.143-0.007-0.214l0.222-17.595c0.003-0.214,0.033-0.427,0.09-0.633
			c0.056-0.203,5.479-20.824-7.2-36.065c-11.279-13.558-33.119-19.083-64.904-16.446c-29.108,2.422-49.745,21.358-55.202,50.655
			c-5.354,28.743,5.727,57.746,25.775,67.463c1.242,0.603,1.761,2.098,1.159,3.341c-0.604,1.242-2.099,1.76-3.341,1.159
			c-22.005-10.666-34.262-41.997-28.51-72.879c5.895-31.645,28.214-52.102,59.704-54.722c33.541-2.792,56.824,3.357,69.197,18.274
			c13.57,16.358,8.976,37.243,8.228,40.22l-0.217,17.187c0.112,1.635,1.12,17.986-2.235,35.088
			c-4.729,24.103-15.969,37.775-32.5,39.539C309.118,692.875,305.647,693.052,302.357,693.052z"/>
	</g>
	<g>
		<path fill="#161616" d="M244.498,697.129c-1.204,0-2.265-0.871-2.465-2.099l-6.363-39.08c-4.065-1.837-16.147-7.972-19.354-17.28
			c-1.447-4.203-0.948-8.448,1.483-12.617c2.849-4.884,6.542-6.054,9.138-6.176c7.543-0.355,15.642,7.417,20.399,12.884
			l2.173-26.465c0.106-1.298,1.189-2.296,2.491-2.296h13.001l3.06-13.548c0.168-0.745,0.668-1.371,1.355-1.702
			c0.688-0.332,1.488-0.33,2.177,0.005c0.492,0.239,49.454,23.721,71.758,6.887c1.103-0.834,2.67-0.612,3.501,0.489
			c0.832,1.102,0.613,2.67-0.489,3.501c-21.685,16.368-62.826-0.056-74.105-5.065l-2.819,12.484c-0.257,1.14-1.27,1.949-2.438,1.949
			h-12.696l-2.499,30.444c-0.085,1.045-0.813,1.925-1.823,2.205c-1.011,0.277-2.088-0.101-2.699-0.952
			c-3.195-4.45-12.896-15.833-19.821-15.833c-0.098,0-0.194,0.003-0.29,0.007c-2.003,0.095-3.655,1.306-5.053,3.701
			c-1.688,2.895-2.04,5.665-1.074,8.47c2.532,7.354,13.707,13.2,17.799,14.832c0.815,0.325,1.4,1.054,1.542,1.921l6.584,40.433
			c0.222,1.362-0.703,2.646-2.066,2.869C244.767,697.118,244.632,697.129,244.498,697.129z"/>
	</g>
	<path fill="#161616" d="M237.917,654.196c0,0-27.29-10.884-17.958-26.884c9.334-16,29.354,12.178,29.354,12.178l2.688-32.49H267
		l3.5-15.747c0,0,50.549,24.477,74.357,6.509l0.937-0.082c2.079-12.039,5.326-59.686-75.294-52.979
		c-71.63,5.959-72.835,102.058-30.422,122.786L237.917,654.196z"/>
	<g>
		<path fill="#161616" d="M316.667,661H309c-1.381,0-2.5-1.119-2.5-2.5s1.119-2.5,2.5-2.5h4.524l-3.294-14.271
			c-0.311-1.346,0.528-2.688,1.873-2.998c1.35-0.311,2.688,0.528,2.998,1.873l4.001,17.334c0.172,0.742-0.005,1.522-0.479,2.119
			C318.149,660.652,317.429,661,316.667,661z"/>
	</g>
	<g>
		<path fill="#FF3A1E" d="M333,719.164l3,166.607c0,0,0.9,21.438-12.971,21.438c-18.972,0-15.971-20.209-15.971-20.209
			l-1.728-183.173L333,719.164z"/>
		<ellipse fill="#161616" cx="320.372" cy="897.166" rx="3.707" ry="4.001"/>
	</g>
	<g>
		<path fill="#FF3A1E" d="M240,703.164l0.027-0.333L243,885.771c0,0,0.9,21.438-12.971,21.438
			c-18.972,0-15.971-20.209-15.971-20.209l-1.728-179.173L240,703.164z"/>
		<ellipse fill="#161616" cx="227.372" cy="897.166" rx="3.707" ry="4.001"/>
	</g>
	<g>
		<g>
			<g>
				<path fill="#FFFFFF" d="M457.693,812.872c0,0,34.787-55.423,46.361-75.505c11.574-20.085,22.039-47.523,22.039-47.523
					s1.18-4.018,0.367-9.136c-0.814-5.116-5.926-9.017-5.926-9.017s0,0-1.711-3.492c-1.711-3.488-8.236-7.648-8.236-7.648
					s-1.967-6.791-4.174-8.199c-2.211-1.406-8.334,15.834-12.315,22.354c-3.982,6.519-14.902,7.979-14.902,7.979
					s5.54-6.286,6.358-11.542c0.822-5.255-15.172,3.055-20.85,7.71c-5.676,4.653-2.611,34.876-2.611,34.876l-50.061,80.977"/>
				<path fill="#161616" d="M457.691,815.372c-0.454,0-0.914-0.123-1.327-0.383c-1.169-0.733-1.522-2.276-0.788-3.446
					c0.348-0.554,34.895-55.612,46.312-75.424c10.967-19.032,21.081-45.118,21.826-47.054c0.138-0.534,0.926-3.877,0.277-7.966
					c-0.64-4.015-4.931-7.388-4.974-7.421c-0.309-0.235-0.558-0.539-0.729-0.888l-1.711-3.492c-1.021-2.081-5.041-5.178-7.335-6.64
					c-0.512-0.326-0.888-0.829-1.058-1.412c-0.567-1.953-1.394-4.002-2.11-5.348c-1.33,2.246-3.26,6.496-4.646,9.55
					c-1.783,3.927-3.627,7.988-5.197,10.56c-4.552,7.45-16.211,9.088-16.705,9.153c-1.033,0.146-2.044-0.381-2.534-1.299
					c-0.492-0.919-0.361-2.047,0.326-2.83c1.246-1.418,4.351-5.474,5.447-8.955c-3.523,0.792-11.964,5.008-16.477,8.708
					c-2.229,1.827-3.516,14.845-1.709,32.69c0.056,0.548-0.071,1.099-0.36,1.566l-50.062,80.977
					c-0.726,1.176-2.268,1.538-3.44,0.812c-1.175-0.727-1.538-2.268-0.812-3.441l49.615-80.258
					c-0.795-8.267-2.411-31.287,3.598-36.214c2.869-2.352,18.046-12.304,23.141-9.385c1.373,0.785,2.032,2.279,1.764,3.995
					c-0.364,2.342-1.465,4.764-2.689,6.866c2.542-1.048,5.192-2.639,6.63-4.993c1.411-2.311,3.191-6.229,4.912-10.021
					c4.274-9.413,5.983-12.771,8.369-13.479c0.866-0.259,1.758-0.139,2.51,0.34c2.407,1.536,4.137,6.098,4.964,8.721
					c1.955,1.328,6.711,4.797,8.349,8.136l1.473,3.004c1.442,1.229,5.581,5.141,6.389,10.213c0.891,5.61-0.383,10.047-0.438,10.232
					c-0.019,0.063-0.039,0.125-0.062,0.187c-0.105,0.276-10.669,27.855-22.209,47.881c-11.465,19.893-46.062,75.031-46.41,75.586
					C459.336,814.957,458.522,815.372,457.691,815.372z"/>
			</g>
			<g>
				<line fill="#FFFFFF" x1="510.588" y1="660.551" x2="506.09" y2="681.896"/>
				<path fill="#161616" d="M506.093,684.397c-0.171,0-0.345-0.019-0.519-0.055c-1.351-0.285-2.216-1.61-1.931-2.962l4.498-21.346
					c0.284-1.352,1.605-2.212,2.962-1.931c1.351,0.285,2.216,1.61,1.931,2.962l-4.498,21.346
					C508.288,683.589,507.249,684.397,506.093,684.397z"/>
			</g>
			<g>
				<line fill="#FFFFFF" x1="520.535" y1="671.691" x2="515.006" y2="686.808"/>
				<path fill="#161616" d="M515.006,689.309c-0.285,0-0.575-0.05-0.858-0.153c-1.297-0.474-1.964-1.91-1.489-3.206l5.529-15.116
					c0.475-1.297,1.912-1.962,3.206-1.489c1.297,0.474,1.964,1.91,1.489,3.206l-5.529,15.116
					C516.983,688.68,516.025,689.309,515.006,689.309z"/>
			</g>
		</g>
		<g>
			<path fill="#FFFFFF" d="M391.002,828.655l9.152,8.272c0,0,22.994,15.107,41.576,0.418l15.963-24.474"/>
			<path fill="#161616" d="M423.153,846.214c-13.193,0-24.208-7.089-24.372-7.196c-0.106-0.07-0.208-0.149-0.304-0.235l-9.152-8.272
				c-1.023-0.926-1.104-2.507-0.178-3.531c0.925-1.024,2.507-1.104,3.531-0.178l8.994,8.13c0.923,0.574,6.128,3.685,13.029,5.318
				c9.723,2.3,18.185,0.747,25.162-4.618l15.735-24.125c0.755-1.155,2.304-1.482,3.46-0.728c1.156,0.754,1.482,2.303,0.728,3.46
				l-15.963,24.474c-0.147,0.227-0.331,0.427-0.543,0.595C436.738,844.479,429.679,846.214,423.153,846.214z"/>
		</g>
		<g>
			<line fill="#FFFFFF" x1="389.712" y1="761.773" x2="417.219" y2="782.261"/>
			<path fill="#161616" d="M417.217,784.761c-0.52,0-1.043-0.161-1.491-0.495l-27.507-20.487c-1.107-0.824-1.337-2.391-0.512-3.498
				c0.823-1.108,2.392-1.337,3.498-0.512l27.507,20.487c1.107,0.824,1.337,2.391,0.512,3.498
				C418.733,784.413,417.979,784.761,417.217,784.761z"/>
		</g>
		<g>
			<path fill="#FFFFFF" d="M479.196,682.685c0,0,10.081,9.503,10.138,18.771"/>
			<path fill="#161616" d="M489.334,704c-1.374,0-2.491-1.132-2.5-2.507c-0.041-6.726-6.765-14.54-9.353-16.978
				c-1.005-0.947-1.052-2.535-0.104-3.54c0.948-1.005,2.528-1.054,3.534-0.107c0.443,0.418,10.86,10.376,10.923,20.595
				c0.009,1.381-1.104,2.537-2.484,2.537C489.344,704,489.339,704,489.334,704z"/>
		</g>
	</g>
	<g>
		<path fill="#161616" d="M285.169,640.14c-4.37,0-8.155-2.107-10.169-3.911c-1.028-0.921-1.115-2.502-0.194-3.53
			c0.92-1.025,2.493-1.114,3.521-0.202c0.682,0.599,6.813,5.654,13.116,0.008c1.029-0.923,2.609-0.833,3.53,0.194
			c0.921,1.028,0.834,2.609-0.194,3.53C291.562,639.11,288.223,640.14,285.169,640.14z"/>
	</g>
	<g>
		<path fill="#161616" d="M329.169,638.14c-4.37,0-8.155-2.107-10.169-3.911c-1.028-0.921-1.115-2.502-0.194-3.53
			c0.92-1.025,2.493-1.114,3.521-0.202c0.682,0.599,6.813,5.654,13.116,0.008c1.029-0.922,2.609-0.833,3.53,0.194
			c0.921,1.028,0.834,2.609-0.194,3.53C335.562,637.11,332.223,638.14,329.169,638.14z"/>
	</g>
	<path fill="#161616" d="M270.5,683.749c0,0,18.832-19.066,38.5-18.906s22.665,9.452,22.665,9.452s3.667,26.356-25.665,26.532
		S270.5,683.749,270.5,683.749z"/>
	<path fill="#FFFFFF" d="M302,674h18C320,674,310.666,684.33,302,674z"/>
	<g>
		<path fill="#161616" d="M207.675,644.32c0,0,1.688,11.623,10.34,17.486"/>
		<path fill="#FF3A1D" d="M218.013,664.307c-0.483,0-0.971-0.14-1.4-0.431c-9.456-6.408-11.336-18.677-11.411-19.196
			c-0.199-1.366,0.748-2.635,2.114-2.833c1.378-0.201,2.634,0.747,2.833,2.11c0.021,0.137,1.678,10.635,9.269,15.78
			c1.144,0.774,1.441,2.329,0.667,3.472C219.601,663.923,218.813,664.307,218.013,664.307z"/>
	</g>
	<path fill="#161616" d="M212.845,669.004c0,0-31.511,42.987-71.845,32.16c0,0,1.666-39.835,57.666-51.331
		C198.666,649.833,205.023,666.338,212.845,669.004z"/>
	<g>
		<g>
			<path fill="#FFFFFF" d="M356.012,601.668c0,0,5.15,2.555,8.738,0.777"/>
			<path fill="#161616" d="M361.76,605.576c-3.361,0-6.403-1.442-6.859-1.669c-1.236-0.613-1.742-2.113-1.128-3.351
				c0.612-1.235,2.106-1.74,3.344-1.132c1.058,0.518,4.522,1.769,6.524,0.78c1.236-0.613,2.736-0.106,3.35,1.131
				s0.106,2.736-1.131,3.35C364.541,605.339,363.124,605.576,361.76,605.576z"/>
		</g>
		<g>
			<path fill="#FFFFFF" d="M356.012,591.003c0,0,8.326,1.331,12.326-5.335"/>
			<path fill="#161616" d="M357.764,593.612c-1.221,0-2.034-0.123-2.146-0.141c-1.363-0.218-2.292-1.5-2.074-2.863
				c0.218-1.359,1.494-2.285,2.853-2.076c0.289,0.045,6.745,0.938,9.799-4.15c0.711-1.186,2.248-1.568,3.43-0.857
				c1.185,0.71,1.568,2.246,0.857,3.43C366.994,592.766,360.974,593.612,357.764,593.612z"/>
		</g>
	</g>
	<g>
		<path fill="#161616" d="M287.435,720.66c-0.562,0-1.127-0.188-1.594-0.574c-1.063-0.881-1.211-2.457-0.331-3.521
			c5.289-6.385,0.333-11.701,0.119-11.924c-0.954-0.998-0.919-2.58,0.078-3.535c0.998-0.952,2.58-0.918,3.535,0.078
			c2.873,3.003,6.597,10.749,0.119,18.57C288.866,720.352,288.153,720.66,287.435,720.66z"/>
	</g>
	<path fill="#F4CD00" d="M344.857,563.003c0,0-24.414-61.401-98.191-38.667c-64,19.722-48,81.437-48,81.437"/>
	<path fill="#F4CD00" d="M271.762,581c0,0-1.891-16.494,9.674-17.997S296.5,568.5,296.5,568.5l44.029-13.715
		c0,0,20.471-7.715,33.971,0l-29.643,8.218l-73.984,21.645L271.762,581z"/>
	<g>
		<path fill="#161616" d="M198.665,608.273c-1.082,0-2.079-0.708-2.398-1.799c-0.388-1.325,0.372-2.714,1.697-3.102l71.72-20.982
			c-0.215-0.32-0.358-0.696-0.405-1.105c-0.751-6.552,0.756-19.321,11.835-20.762c9.429-1.223,14.291,2.63,16.364,5.054
			l42.242-13.158c1.606-0.595,21.942-7.85,36.021,0.195c0.876,0.501,1.365,1.479,1.24,2.481c-0.125,1.001-0.84,1.829-1.812,2.099
			l-29.643,8.218l-146.157,42.76C199.134,608.24,198.897,608.273,198.665,608.273z M284.567,565.292c-0.865,0-1.8,0.059-2.81,0.19
			c-9.019,1.172-7.528,15.093-7.513,15.232c0.014,0.113,0.019,0.226,0.017,0.337l69.894-20.448l22.178-6.148
			c-11.544-2.28-24.761,2.609-24.922,2.67c-0.046,0.017-0.092,0.032-0.139,0.047l-44.029,13.715
			c-1.169,0.367-2.431-0.172-2.979-1.269C294.172,569.449,291.843,565.292,284.567,565.292z"/>
	</g>
	<polygon fill="#F4CD00" points="243,683 234,683 234,597 243,594 	"/>
	<g>
		<path fill="#161616" d="M242.5,686h-9c-1.381,0-2.5-1.119-2.5-2.5V597c0-1.076,0.688-2.031,1.709-2.372l9-3
			c0.764-0.255,1.6-0.126,2.253,0.344c0.651,0.47,1.038,1.225,1.038,2.028v89.5C245,684.881,243.881,686,242.5,686z M236,681h4
			v-83.531l-4,1.333V681z"/>
	</g>
</g>
<g>
	<path fill="#161616" d="M1104.998,140.5c-1.336,0-2.444-1.057-2.496-2.404c-1.938-50.398-39.036-86.094-39.41-86.448
		c-1.003-0.949-1.046-2.532-0.097-3.534c0.951-1.004,2.532-1.046,3.534-0.097c1.59,1.506,38.953,37.472,40.969,89.888
		c0.053,1.379-1.022,2.541-2.402,2.594C1105.063,140.499,1105.03,140.5,1104.998,140.5z"/>
</g>
<g>
	<path fill="#161616" d="M1130.175,139c-0.017,0-0.032,0-0.049,0c-1.38,0-2.478-1.319-2.452-2.7
		c1.129-59.39-57.601-83.647-58.194-83.885c-1.281-0.513-1.905-2.006-1.393-3.288c0.513-1.281,1.968-1.924,3.25-1.412
		c0.639,0.256,15.834,6.414,31.083,20.381c14.146,12.956,30.878,35.445,30.254,68.305C1132.647,137.765,1131.533,139,1130.175,139z"
		/>
</g>
<g>
	<g>
		<circle fill="#161616" cx="1187.22" cy="745.717" r="24.784"/>
		<g>
			<path fill="#F3F4F2" d="M1187.22,760.417c-8.105,0-14.7-6.595-14.7-14.7c0-8.106,6.595-14.701,14.7-14.701
				s14.7,6.595,14.7,14.701C1201.92,753.822,1195.325,760.417,1187.22,760.417z M1187.22,736.016c-5.349,0-9.7,4.352-9.7,9.701
				c0,5.349,4.352,9.7,9.7,9.7s9.7-4.352,9.7-9.7C1196.92,740.367,1192.568,736.016,1187.22,736.016z"/>
		</g>
	</g>
	<g>
		<circle fill="#161616" cx="1237.587" cy="745.717" r="24.785"/>
		<g>
			<path fill="#F3F4F2" d="M1237.587,760.417c-8.105,0-14.7-6.595-14.7-14.7c0-8.106,6.595-14.701,14.7-14.701
				s14.7,6.595,14.7,14.701C1252.287,753.822,1245.692,760.417,1237.587,760.417z M1237.587,736.016c-5.349,0-9.7,4.352-9.7,9.701
				c0,5.349,4.352,9.7,9.7,9.7s9.7-4.352,9.7-9.7C1247.287,740.367,1242.936,736.016,1237.587,736.016z"/>
		</g>
	</g>
	<g>
		<circle fill="#161616" cx="1212.803" cy="701.744" r="24.784"/>
		<g>
			<path fill="#F3F4F2" d="M1212.803,716.444c-8.105,0-14.7-6.595-14.7-14.7c0-8.106,6.595-14.701,14.7-14.701
				c8.106,0,14.701,6.595,14.701,14.701C1227.504,709.85,1220.909,716.444,1212.803,716.444z M1212.803,692.043
				c-5.349,0-9.7,4.352-9.7,9.701c0,5.349,4.352,9.7,9.7,9.7c5.35,0,9.701-4.352,9.701-9.7
				C1222.504,696.395,1218.152,692.043,1212.803,692.043z"/>
		</g>
	</g>
	<g>
		<circle fill="#161616" cx="1263.171" cy="701.744" r="24.784"/>
		<g>
			<path fill="#F3F4F2" d="M1263.171,716.444c-8.105,0-14.7-6.595-14.7-14.7c0-8.106,6.595-14.701,14.7-14.701
				s14.7,6.595,14.7,14.701C1277.871,709.85,1271.276,716.444,1263.171,716.444z M1263.171,692.043c-5.349,0-9.7,4.352-9.7,9.701
				c0,5.349,4.352,9.7,9.7,9.7s9.7-4.352,9.7-9.7C1272.871,696.395,1268.52,692.043,1263.171,692.043z"/>
		</g>
	</g>
	<g>
		<circle fill="#161616" cx="1287.955" cy="745.717" r="24.784"/>
		<g>
			<path fill="#F3F4F2" d="M1287.955,760.417c-8.105,0-14.7-6.595-14.7-14.7c0-8.106,6.595-14.701,14.7-14.701
				c8.106,0,14.701,6.595,14.701,14.701C1302.656,753.822,1296.062,760.417,1287.955,760.417z M1287.955,736.016
				c-5.349,0-9.7,4.352-9.7,9.701c0,5.349,4.352,9.7,9.7,9.7c5.35,0,9.701-4.352,9.701-9.7
				C1297.656,740.367,1293.305,736.016,1287.955,736.016z"/>
		</g>
	</g>
</g>
<polygon fill="#161616" points="1009,138 1009,157 997,184 1009,170.191 1016.5,184 1013,198 1021,184 1011.75,163.967 1013,156 
	1014,138 "/>
</svg>
