<?xml version="1.0" encoding="utf-8"?>
<!-- Generator: Adobe Illustrator 21.0.0, SVG Export Plug-In . SVG Version: 6.00 Build 0)  -->
<svg version="1.1" id="Layer_1" xmlns="http://www.w3.org/2000/svg" xmlns:xlink="http://www.w3.org/1999/xlink" x="0px" y="0px"
	 width="1400px" height="980px" viewBox="0 0 1400 980" style="enable-background:new 0 0 1400 980;" xml:space="preserve">
<style type="text/css">
	.st0{fill-rule:evenodd;clip-rule:evenodd;fill:#FFF6DF;}
	.st1{fill-rule:evenodd;clip-rule:evenodd;fill:#FFF0C2;}
	.st2{fill-rule:evenodd;clip-rule:evenodd;fill:#FCE6AA;}
	.st3{fill-rule:evenodd;clip-rule:evenodd;fill:#FCD254;}
	.st4{fill-rule:evenodd;clip-rule:evenodd;fill:#F9BC00;}
	.st5{fill-rule:evenodd;clip-rule:evenodd;fill:#7C4D28;}
	.st6{fill-rule:evenodd;clip-rule:evenodd;fill:#9C6337;}
	.st7{fill-rule:evenodd;clip-rule:evenodd;fill:#AC7149;}
	.st8{fill-rule:evenodd;clip-rule:evenodd;fill:#BE8763;}
	.st9{fill-rule:evenodd;clip-rule:evenodd;fill:#D3A382;}
	.st10{fill-rule:evenodd;clip-rule:evenodd;fill:#C7C0A1;}
	.st11{fill-rule:evenodd;clip-rule:evenodd;fill:#44525D;}
	.st12{fill-rule:evenodd;clip-rule:evenodd;fill:#969697;}
	.st13{fill-rule:evenodd;clip-rule:evenodd;fill:#A31F24;}
	.st14{fill-rule:evenodd;clip-rule:evenodd;fill:#921E23;}
	.st15{fill-rule:evenodd;clip-rule:evenodd;fill:#76161B;}
	.st16{fill-rule:evenodd;clip-rule:evenodd;fill:#DE3C3B;}
	.st17{fill-rule:evenodd;clip-rule:evenodd;fill:#B63030;}
	.st18{fill-rule:evenodd;clip-rule:evenodd;fill:#A01F24;}
	.st19{fill-rule:evenodd;clip-rule:evenodd;fill:#FFFFFF;}
	.st20{fill-rule:evenodd;clip-rule:evenodd;fill:#CACACB;}
	.st21{fill-rule:evenodd;clip-rule:evenodd;fill:#AFB0AF;}
	.st22{fill-rule:evenodd;clip-rule:evenodd;fill:#E7E5E4;}
	.st23{fill-rule:evenodd;clip-rule:evenodd;fill:#CED0D0;}
	.st24{fill-rule:evenodd;clip-rule:evenodd;fill:#DCDAD9;}
	.st25{fill-rule:evenodd;clip-rule:evenodd;fill:#CB2627;}
	.st26{fill-rule:evenodd;clip-rule:evenodd;fill:#27323B;}
	.st27{fill-rule:evenodd;clip-rule:evenodd;fill:#7F7D7C;}
	.st28{fill-rule:evenodd;clip-rule:evenodd;fill:#CFBB59;}
	.st29{fill-rule:evenodd;clip-rule:evenodd;fill:#FCDF50;}
	.st30{fill-rule:evenodd;clip-rule:evenodd;fill:#A18F36;}
	.st31{fill-rule:evenodd;clip-rule:evenodd;fill:#9AC220;}
	.st32{fill-rule:evenodd;clip-rule:evenodd;fill:#F0E1BC;}
	.st33{fill-rule:evenodd;clip-rule:evenodd;fill:#805C25;}
	.st34{fill-rule:evenodd;clip-rule:evenodd;fill:#926826;}
	.st35{fill-rule:evenodd;clip-rule:evenodd;fill:#B3D253;}
	.st36{fill-rule:evenodd;clip-rule:evenodd;fill:#838E2C;}
	.st37{fill-rule:evenodd;clip-rule:evenodd;fill:#B18131;}
	.st38{fill-rule:evenodd;clip-rule:evenodd;fill:#83A829;}
	.st39{fill-rule:evenodd;clip-rule:evenodd;fill:#BF882F;}
</style>
<g>
	<rect y="0" class="st0" width="1400" height="980"/>
	<g>
		<circle class="st1" cx="383.1" cy="266.4" r="123.7"/>
		<circle class="st2" cx="383.1" cy="266.4" r="86.6"/>
		<circle class="st3" cx="383.1" cy="266.4" r="54.8"/>
		<circle class="st4" cx="383.1" cy="266.4" r="23.1"/>
	</g>
	<g>
		<path class="st1" d="M645.7,602.4c-4,0-8,0.5-11.7,1.4c-9.2-30.4-37.5-52.6-70.9-52.6c-6.1,0-12,0.7-17.7,2.1
			c-16.7-31.7-50-53.3-88.3-53.3c-55.1,0-99.7,44.6-99.7,99.7c0,15.2,3.4,29.6,9.5,42.5h326.7C689.4,619.5,669.5,602.4,645.7,602.4z
			"/>
		<path class="st2" d="M643.1,649.5h316.2c8.4-17.8,13.1-37.6,13.1-58.6c0-76-61.6-137.6-137.6-137.6c-52.9,0-98.8,29.8-121.8,73.6
			c-7.8-1.9-16-3-24.5-3c-46.2,0-85.2,30.6-97.9,72.6c-5.2-1.3-10.6-2-16.2-2c-22.1,0-41.6,10.7-53.8,27.1
			c-12.1-27.9-39.9-47.4-72.2-47.4c-6.5,0-12.8,0.8-18.8,2.3c-17.7-33.7-53.1-56.6-93.8-56.6c-58.5,0-106,47.4-106,106
			c0,8.1,0.9,16,2.6,23.6h345.2H643.1z"/>
		<path class="st1" d="M1148.1,595.3c-5.5,0-10.7,0.7-15.6,1.9c-20.5-41.4-64.7-71.5-110.2-71.5c-8.3,0-16.2,1-23.5,2.9
			c-31-43.1-81.9-72.5-133.9-72.5c-100.2,0-172.1,104.6-113.2,193.3h471.8C1212,618.7,1180.5,595.3,1148.1,595.3z"/>
		<path class="st1" d="M372.7,625.7c6.9-30.8-14.2-55.8-47.2-55.8c-23,0-45.6,12.1-59.6,29.8c-3.2-0.8-6.7-1.2-10.4-1.2
			c-20,0-39.8,12.4-49.1,29.4c-2.1-0.5-4.4-0.8-6.9-0.8c-14.3,0-28.3,9.6-33.6,22.3h195.7C366.9,642.3,370.8,634.2,372.7,625.7z"/>
		<path class="st0" d="M1285.7,651.2c-10.5-24.8-36.8-43.6-62.9-43.6c-4.4,0-8.6,0.5-12.5,1.6c-18.2-33.3-55-57.6-91.6-57.6
			c-6.7,0-13,0.8-18.8,2.3c-26.7-34.7-68.8-58.3-110.8-58.3c-60.3,0-97.3,48.9-82.7,109.1c4,16.6,11.6,32.4,21.6,46.5H1285.7z"/>
	</g>
	<path class="st2" d="M262.3,422.9l50.6,0h17.7l51.3,0l12.2,0c3.8-12.6-4.7-21.5-23.1-21.5c-11.5,0-24.7,3.5-37.2,9.2l-5,0.4
		c-3.1-3.9-9.1-6.2-17.7-6.2c-11.5,0-25.1,4.1-37.2,10.6l-6.7,0.5c-1.7-1.2-4.2-1.9-7.5-1.9c-4.7,0-10.2,1.4-15.3,3.8l-2.1,0.2
		c-1.3-1.6-3.7-2.5-7.3-2.5c-4.7,0-10.3,1.7-15.3,4.4l-37.6,3.1l32.8,0l5.7,0L262.3,422.9z"/>
	<g>
		<path class="st5" d="M263.5,644.4V500.5c0-4.4-3.5-7.9-7.9-7.9c-4.4,0-7.9,3.5-7.9,7.9v143.9c0,4.4,3.5,7.9,7.9,7.9
			C260,652.3,263.5,648.8,263.5,644.4z"/>
		<path class="st6" d="M239.3,548.7l16.3-20.7l16.3,20.7c6.1,10.4,19.5,13.9,30,7.8c10.4-6.1,13.9-19.5,7.8-30l-54.1-92.4
			l-54.1,92.4c-6.1,10.4-2.6,23.8,7.8,30C219.8,562.6,233.2,559.1,239.3,548.7z"/>
		<path class="st7" d="M248.5,516.8l7.1-12.2l7.1,12.2c6.1,10.4,19.5,13.9,29.9,7.8c10.4-6.1,13.9-19.5,7.8-30l-44.9-76.8
			l-44.9,76.8c-6.1,10.4-2.6,23.8,7.8,30C229,530.7,242.4,527.2,248.5,516.8z"/>
		<path class="st8" d="M255.6,487.8c6.7,8.1,18.5,10.4,27.9,4.9c10.4-6.1,13.9-19.5,7.8-29.9l-35.7-61.1l-35.7,61.1
			c-6.1,10.4-2.6,23.8,7.8,29.9C237.1,498.2,248.9,495.9,255.6,487.8z"/>
		<path class="st9" d="M255.6,462.4c6,2.2,12.9,1.9,18.8-1.6c10.4-6.1,13.9-19.5,7.8-30l-26.6-45.4L229,430.8
			c-6.1,10.4-2.6,23.8,7.8,30C242.8,464.2,249.7,464.6,255.6,462.4z"/>
	</g>
	<g>
		<path class="st5" d="M354.6,641.7V448.4c0-5.9-4.8-10.6-10.6-10.6c-5.9,0-10.6,4.8-10.6,10.6v193.3c0,5.9,4.8,10.6,10.6,10.6
			C349.9,652.3,354.6,647.5,354.6,641.7z"/>
		<path class="st6" d="M322.1,513.2l21.9-27.7l21.9,27.7c8.2,14,26.2,18.7,40.2,10.5c14-8.2,18.7-26.2,10.5-40.2L344,359.4
			l-72.6,124.1c-8.2,14-3.5,32,10.5,40.2C295.9,531.9,313.9,527.2,322.1,513.2z"/>
		<path class="st7" d="M334.4,470.3l9.6-16.4l9.6,16.4c8.2,14,26.2,18.7,40.2,10.5c14-8.2,18.7-26.2,10.5-40.2L344,337.5
			l-60.3,103.1c-8.2,14-3.5,32,10.5,40.2C308.2,489,326.2,484.3,334.4,470.3z"/>
		<path class="st8" d="M344,431.3c9,10.9,24.9,14,37.5,6.6c14-8.2,18.7-26.2,10.5-40.2l-48-82.1l-48,82.1c-8.2,14-3.5,32,10.5,40.2
			C319.1,445.3,335,442.3,344,431.3z"/>
		<path class="st9" d="M344,397.2c8,3,17.3,2.5,25.2-2.2c14-8.2,18.7-26.2,10.5-40.2l-35.7-61l-35.7,61c-8.2,14-3.5,32,10.5,40.2
			C326.7,399.7,336,400.2,344,397.2z"/>
	</g>
	<path class="st2" d="M823.7,293.8h25.5H922h59.5h8.3h47.2l-54.1-4.4c-7.1-3.8-15.2-6.3-22-6.3c-5.1,0-8.6,1.4-10.4,3.6l-2.9-0.2
		c-7.4-3.4-15.2-5.4-22-5.4c-4.7,0-8.3,1-10.7,2.7l-9.6-0.8c-17.3-9.3-36.9-15.3-53.5-15.3c-12.3,0-20.9,3.3-25.4,8.8L819,276
		c-17.9-8.2-37-13.2-53.5-13.2c-26.4,0-38.6,12.8-33.2,31h17.5H823.7z"/>
	<path class="st2" d="M710.6,216.1h15.9H772h37.1h5.2h29.5l-33.8-2.8c-4.4-2.4-9.5-3.9-13.7-3.9c-3.2,0-5.4,0.8-6.5,2.3l-1.8-0.2
		c-4.6-2.1-9.5-3.4-13.7-3.4c-2.9,0-5.2,0.6-6.7,1.7l-6-0.5c-10.8-5.8-23.1-9.6-33.4-9.6c-7.7,0-13.1,2.1-15.9,5.5l-4.5-0.4
		c-11.2-5.1-23.1-8.2-33.4-8.2c-16.5,0-24.1,8-20.7,19.4h10.9H710.6z"/>
	<g>
		<rect x="187.4" y="577.1" class="st10" width="213.9" height="10.9"/>
		<rect x="187.4" y="607" class="st10" width="213.9" height="10.9"/>
		<rect x="187.4" y="577.1" class="st10" width="9.7" height="72.4"/>
		<rect x="273.3" y="577.1" class="st10" width="9.7" height="72.4"/>
		<rect x="359.1" y="577.1" class="st10" width="9.7" height="72.4"/>
	</g>
	<g>
		<path class="st11" d="M628.1,233.3c0.6-2.2,0-4.2-1.2-5.6c-0.6-0.7-1.4-1.2-2.2-1.6c-0.9-0.4-1.8-0.5-2.8-0.4
			c-1.9,0.2-3.7,1.4-4.9,3.8c-0.7,1.4-0.2,3.1,1.2,3.9c1.4,0.7,3.1,0.2,3.9-1.2c0.2-0.4,0.4-0.6,0.5-0.7c0,0,0,0.1,0,0.2
			c-0.1,0.5-0.3,1-0.5,1.5c-0.8,2.3-2,5.4-2,8.5c0,4.5,2,8.2,9.1,8.3c2.1,0,3.7-0.2,5.1-0.7h0c2.3-0.7,3.8-2,4.8-3.6
			c1-1.5,1.3-3.2,1.3-4.8c0-1.5-0.3-3-0.7-4.2c1,0.9,2.6,0.9,3.7,0.1c1.2-1,1.4-2.8,0.4-4c-1.1-1.4-2.7-2-4.3-2h0
			c-0.9,0-1.8,0.2-2.6,0.7c-0.8,0.4-1.6,1.1-2.1,2c-0.8,1.3-1.1,3-0.5,5c0.2,0.7,0.4,1.6,0.4,2.5c0,0.7-0.1,1.3-0.4,1.8
			c-0.3,0.5-0.8,0.9-1.8,1.2c-0.8,0.3-1.9,0.4-3.3,0.4c-2.6,0-3.4-1.1-3.4-2.5c0-2,1-4.6,1.7-6.5C627.7,234.4,628,233.7,628.1,233.3
			z"/>
		<path class="st11" d="M631.4,269.5v-23.9c0-0.8-0.6-1.4-1.4-1.4c-0.8,0-1.4,0.6-1.4,1.4v23.9c0,0.8,0.6,1.4,1.4,1.4
			C630.7,270.9,631.4,270.3,631.4,269.5z"/>
		<path class="st11" d="M616.6,254.6l4.9,2.4v-1.7h12.7c0.3,0.6,0.8,1,1.5,1h5.9c0.9,0,1.6-0.7,1.6-1.6c0-0.9-0.7-1.6-1.6-1.6h-5.9
			c-0.6,0-1.1,0.3-1.4,0.8h-12.8v-1.7L616.6,254.6z"/>
	</g>
	<g>
		<path class="st12" d="M883.5,337h-414c-76.4,25.3-131.5,97.4-131.5,182.3c138,0,276,0,414,0C752,434.4,807.1,362.3,883.5,337z"/>
		<path class="st13" d="M1040.7,649.5V519.3c0-84.9-55.1-156.9-131.5-182.3h-414v312.5h282.5H1040.7z"/>
		<rect x="626.8" y="519.3" class="st14" width="414" height="16.5"/>
		<rect x="690.8" y="337" class="st15" width="3.2" height="312.5"/>
		<rect x="674" y="337" class="st15" width="3.2" height="312.5"/>
		<rect x="657.2" y="337" class="st15" width="3.2" height="312.5"/>
		<rect x="724.4" y="337" class="st15" width="3.2" height="312.5"/>
		<rect x="707.6" y="337" class="st15" width="3.2" height="312.5"/>
		<rect x="741.2" y="337" class="st15" width="3.2" height="312.5"/>
		<rect x="640.4" y="337" class="st15" width="3.2" height="312.5"/>
		<rect x="758" y="337" class="st15" width="3.2" height="312.5"/>
		<rect x="556.4" y="337" class="st15" width="3.2" height="312.5"/>
		<rect x="623.6" y="337" class="st15" width="3.2" height="312.5"/>
		<rect x="522.8" y="337" class="st15" width="3.2" height="312.5"/>
		<rect x="539.6" y="337" class="st15" width="3.2" height="312.5"/>
		<rect x="573.2" y="337" class="st15" width="3.2" height="312.5"/>
		<rect x="606.8" y="337" class="st15" width="3.2" height="312.5"/>
		<rect x="590" y="337" class="st15" width="3.2" height="312.5"/>
		<rect x="506" y="337" class="st15" width="3.2" height="312.5"/>
		<path class="st15" d="M942.8,351.9v297.6h3.2V353.7C944.9,353.1,943.9,352.5,942.8,351.9z"/>
		<path class="st15" d="M959.6,362.5v287h3.2V364.8C961.7,364,960.7,363.3,959.6,362.5z"/>
		<path class="st15" d="M909.2,337L909.2,337l0,312.5h3.2V338.1C911.3,337.7,910.3,337.4,909.2,337z"/>
		<path class="st15" d="M976.4,375.9v273.6h3.2V378.8C978.5,377.8,977.5,376.8,976.4,375.9z"/>
		<path class="st15" d="M926,343.5v306h3.2V344.9C928.1,344.4,927.1,343.9,926,343.5z"/>
		<path class="st15" d="M1026.8,447.3v202.2h3.2V455.8C1029,452.9,1027.9,450.1,1026.8,447.3z"/>
		<path class="st15" d="M1010,415v234.5h3.2V420.1C1012.1,418.4,1011.1,416.7,1010,415z"/>
		<path class="st15" d="M993.2,392.8v256.7h3.2v-253C995.3,395.3,994.3,394,993.2,392.8z"/>
		<rect x="791.6" y="337" class="st15" width="3.2" height="312.5"/>
		<rect x="825.2" y="337" class="st15" width="3.2" height="312.5"/>
		<rect x="808.4" y="337" class="st15" width="3.2" height="312.5"/>
		<polygon class="st15" points="778,337 774.8,337 774.8,649.5 777.7,649.5 778,649.5 		"/>
		<rect x="842" y="337" class="st15" width="3.2" height="312.5"/>
		<rect x="892.4" y="337" class="st15" width="3.2" height="312.5"/>
		<rect x="875.6" y="337" class="st15" width="3.2" height="312.5"/>
		<rect x="858.8" y="337" class="st15" width="3.2" height="312.5"/>
		<path class="st16" d="M495.2,337c-76.4,25.3-131.5,97.4-131.5,182.3v130.2h263V519.3C626.8,434.4,571.6,362.3,495.2,337z"/>
		<path class="st17" d="M363.9,510.9c-0.1,2.1-0.1,4.3-0.2,6.4h263c0-2.1-0.1-4.3-0.2-6.4H363.9z"/>
		<path class="st17" d="M505.8,340.9c-3.5-1.4-7-2.7-10.6-3.9c-76.4,25.3-131.5,97.4-131.5,182.3v130.2h21.2V519.3
			C384.9,438.3,435,369.1,505.8,340.9z"/>
		<path class="st18" d="M363.9,510.9L363.9,510.9l0,1l0,0.1l0,0.1c0,0.6,0,1.3-0.1,1.9l0,0.1l0,0.1l0,0.1c0,0.9,0,1.7,0,2.6l0,0.1
			v0.1l0,0.1v0.1h21.2c0-2.1,0.1-4.3,0.2-6.4H363.9z"/>
		<path class="st18" d="M418,385.5v264h3.2V382.3C420.2,383.3,419.1,384.4,418,385.5z"/>
		<path class="st18" d="M434.8,370.1v279.4h3.2V367.6C437,368.4,435.9,369.3,434.8,370.1z"/>
		<path class="st18" d="M468.4,348.2v301.3h3.2V346.6C470.6,347.2,469.5,347.7,468.4,348.2z"/>
		<path class="st18" d="M451.6,357.9v291.6h3.2V355.9C453.8,356.6,452.7,357.2,451.6,357.9z"/>
		<path class="st18" d="M367.7,480.5v169h3.2V467.3C369.6,471.6,368.6,476,367.7,480.5z"/>
		<path class="st18" d="M485.2,340.6v308.9h3.2V339.4C487.4,339.8,486.3,340.2,485.2,340.6z"/>
		<path class="st18" d="M384.4,432.4v217h3.2V426.4C386.5,428.4,385.5,430.4,384.4,432.4z"/>
		<path class="st18" d="M401.2,405.2v244.2h3.2V401C403.4,402.4,402.3,403.8,401.2,405.2z"/>
		<path class="st18" d="M586,401v248.4h3.2V405.2C588.2,403.8,587.1,402.4,586,401z"/>
		<path class="st18" d="M602.8,426.4v223.1h3.2v-217C605,430.4,603.9,428.4,602.8,426.4z"/>
		<path class="st18" d="M619.6,467.3v182.2h3.2v-169C621.9,476,620.9,471.7,619.6,467.3z"/>
		<path class="st18" d="M569.2,382.3v267.2h3.2v-264C571.4,384.4,570.3,383.3,569.2,382.3z"/>
		<path class="st18" d="M518.8,346.6v302.9h3.2V348.2C521,347.7,519.9,347.2,518.8,346.6z"/>
		<path class="st18" d="M552.4,367.6v281.9h3.2V370.1C554.6,369.3,553.5,368.4,552.4,367.6z"/>
		<path class="st18" d="M502,339.4v310.1h3.2V340.6C504.2,340.2,503.1,339.8,502,339.4z"/>
		<path class="st18" d="M535.6,355.9v293.6h3.2V357.9C537.8,357.2,536.7,356.6,535.6,355.9z"/>
		<g>
			<rect x="459.1" y="415.7" class="st11" width="72.2" height="72.2"/>
			<path class="st19" d="M459.1,412.5h-3.2v78.6h78.6v-78.6H459.1z M480.6,484.8h-18.3v-18.3h18.3V484.8z M480.6,461.7h-18.3v-19.6
				h18.3V461.7z M480.6,437.3h-18.3v-18.3h18.3V437.3z M505,484.8h-19.6v-18.3H505V484.8z M505,461.7h-19.6v-19.6H505V461.7z
				 M505,437.3h-19.6v-18.3H505V437.3z M528.2,484.8h-18.3v-18.3h18.3V484.8z M528.2,461.7h-18.3v-19.6h18.3V461.7z M528.2,437.3
				h-18.3v-18.3h18.3V437.3z"/>
		</g>
		<g>
			<rect x="576.4" y="545.9" class="st11" width="28" height="28"/>
			<path class="st19" d="M576.4,544.3h-1.6v31.3h31.3v-31.3H576.4z M589.3,572.3h-11.3v-11.3h11.3V572.3z M589.3,558.9h-11.3v-11.3
				h11.3V558.9z M602.8,572.3h-11.3v-11.3h11.3V572.3z M602.8,558.9h-11.3v-11.3h11.3V558.9z"/>
		</g>
		<g>
			<rect x="386" y="545.9" class="st11" width="28" height="28"/>
			<path class="st19" d="M386,544.3h-1.6v31.3h31.3v-31.3H386z M399,572.3h-11.3v-11.3H399V572.3z M399,558.9h-11.3v-11.3H399V558.9
				z M412.4,572.3h-11.3v-11.3h11.3V572.3z M412.4,558.9h-11.3v-11.3h11.3V558.9z"/>
		</g>
		<g>
			<rect x="429.2" y="526.9" class="st19" width="132" height="9.2"/>
			<rect x="438.4" y="532.9" class="st16" width="113.6" height="114.2"/>
			<path class="st19" d="M554.4,530.5h-59.2h-56.8H436v119h59.2h59.2V530.5z M492.8,644.7h-52V535.3h52V644.7z M549.6,644.7h-52
				V535.3h52V644.7z"/>
		</g>
		<g>
			<rect x="486.4" y="386.6" class="st11" width="17.6" height="17.6"/>
			<path class="st19" d="M486.4,385.5h-1v19.7h19.7v-19.7H486.4z M503,394.7v1.4v7.1h-7.1h-1.4h-7.1v-7.1v-1.4v-7.1h7.1h1.4h7.1
				V394.7z"/>
		</g>
		<path class="st20" d="M1066.5,519.3c0-84.9-55.1-156.9-131.5-182.3H469.6c76.4,25.3,131.5,97.4,131.5,182.3
			C739.1,519.3,928.5,519.3,1066.5,519.3z"/>
		<path class="st21" d="M1055.7,455.6H590.3c7,19.9,10.8,41.4,10.8,63.7c138,0,327.5,0,465.5,0
			C1066.5,496.9,1062.7,475.5,1055.7,455.6z"/>
		<path class="st22" d="M935,337H469.6c16.1,5.3,31.2,12.7,45,21.9h465.5C966.2,349.7,951.1,342.3,935,337z"/>
		<path class="st16" d="M630.2,298.6h-42.1V337h21c7.2,2.4,14.2,5.2,21,8.4V298.6z"/>
		<rect x="630.2" y="295.6" class="st13" width="42.1" height="49.8"/>
		<polygon class="st22" points="581.6,298.6 630.2,298.6 630.2,262.9 		"/>
		<g>
			<rect x="598.6" y="307.8" class="st11" width="21" height="21"/>
			<path class="st19" d="M598,306.6L598,306.6l-0.6,0v23.5h0.6h22.2h0.6v-23.5h-0.6v0H598z M618.4,327.6h-8.4h-1.6h-8.4v-1.8h18.5
				V327.6z M618.4,323.6h-18.5v-2h18.5V323.6z M618.4,317.5v1.6v0.2h-18.5v-0.2v-1.6v-0.2h18.5V317.5z M618.4,315.1h-18.5v-2h18.5
				V315.1z M618.4,310.9h-18.5v-1.8h8.4h1.6h8.4V310.9z"/>
		</g>
		<g>
			<rect x="640.7" y="307.8" class="st11" width="21" height="21"/>
			<path class="st20" d="M640.1,306.6L640.1,306.6l-0.6,0v23.5h0.6h22.2h0.6v-23.5h-0.6v0H640.1z M660.5,327.6H652h-1.6h-8.4v-1.8
				h18.5V327.6z M660.5,323.6h-18.5v-2h18.5V323.6z M660.5,317.5v1.6v0.2h-18.5v-0.2v-1.6v-0.2h18.5V317.5z M660.5,315.1h-18.5v-2
				h18.5V315.1z M660.5,310.9h-18.5v-1.8h8.4h1.6h8.4V310.9z"/>
		</g>
		<g>
			<g>
				<g>
					<rect x="722.4" y="545.9" class="st11" width="28" height="28"/>
					<path class="st19" d="M722.4,544.3h-1.6v31.3h31.3v-31.3H722.4z M735.4,572.3h-11.3v-11.3h11.3V572.3z M735.4,558.9h-11.3
						v-11.3h11.3V558.9z M748.8,572.3h-11.3v-11.3h11.3V572.3z M748.8,558.9h-11.3v-11.3h11.3V558.9z"/>
				</g>
				<g>
					<rect x="750.5" y="545.9" class="st11" width="28" height="28"/>
					<path class="st19" d="M750.5,544.3h-1.6v31.3h31.3v-31.3H750.5z M763.4,572.3h-11.3v-11.3h11.3V572.3z M763.4,558.9h-11.3
						v-11.3h11.3V558.9z M776.9,572.3h-11.3v-11.3h11.3V572.3z M776.9,558.9h-11.3v-11.3h11.3V558.9z"/>
				</g>
				<g>
					<rect x="778.5" y="545.9" class="st11" width="28" height="28"/>
					<path class="st19" d="M808.2,544.3h-29.7h-1.6v31.3h31.3V544.3z M791.4,572.3h-11.3v-11.3h11.3V572.3z M791.4,558.9h-11.3
						v-11.3h11.3V558.9z M804.9,572.3h-11.3v-11.3h11.3V572.3z M804.9,558.9h-11.3v-11.3h11.3V558.9z"/>
				</g>
				<g>
					<rect x="806.6" y="545.9" class="st11" width="28" height="28"/>
					<path class="st19" d="M806.6,544.3h-1.6v31.3h31.3v-31.3H806.6z M819.5,572.3h-11.3v-11.3h11.3V572.3z M819.5,558.9h-11.3
						v-11.3h11.3V558.9z M833,572.3h-11.3v-11.3H833V572.3z M833,558.9h-11.3v-11.3H833V558.9z"/>
				</g>
			</g>
			<g>
				<g>
					<rect x="859.1" y="545.9" class="st11" width="28" height="28"/>
					<path class="st19" d="M859.1,544.3h-1.6v31.3h31.3v-31.3H859.1z M872,572.3h-11.3v-11.3H872V572.3z M872,558.9h-11.3v-11.3H872
						V558.9z M885.5,572.3h-11.3v-11.3h11.3V572.3z M885.5,558.9h-11.3v-11.3h11.3V558.9z"/>
				</g>
				<g>
					<rect x="887.2" y="545.9" class="st11" width="28" height="28"/>
					<path class="st19" d="M887.2,544.3h-1.6v31.3h31.3v-31.3H887.2z M900.1,572.3h-11.3v-11.3h11.3V572.3z M900.1,558.9h-11.3
						v-11.3h11.3V558.9z M913.5,572.3h-11.3v-11.3h11.3V572.3z M913.5,558.9h-11.3v-11.3h11.3V558.9z"/>
				</g>
				<g>
					<rect x="915.2" y="545.9" class="st11" width="28" height="28"/>
					<path class="st19" d="M915.2,544.3h-1.7v31.3h31.3v-31.3H915.2z M928.1,572.3h-11.3v-11.3h11.3V572.3z M928.1,558.9h-11.3
						v-11.3h11.3V558.9z M941.6,572.3h-11.3v-11.3h11.3V572.3z M941.6,558.9h-11.3v-11.3h11.3V558.9z"/>
				</g>
				<g>
					<rect x="943.2" y="545.9" class="st11" width="28" height="28"/>
					<path class="st19" d="M943.2,544.3h-1.6v31.3h31.3v-31.3H943.2z M956.2,572.3h-11.3v-11.3h11.3V572.3z M956.2,558.9h-11.3
						v-11.3h11.3V558.9z M969.6,572.3h-11.3v-11.3h11.3V572.3z M969.6,558.9h-11.3v-11.3h11.3V558.9z"/>
				</g>
			</g>
		</g>
		<polygon class="st20" points="630.2,298.6 678.7,298.6 630.2,262.9 		"/>
		<path class="st23" d="M716.2,433.2h258.9c16.7,0,27.4-13.7,23.8-30.4c-3.6-16.7-20.3-30.4-37-30.4H703
			c-16.7,0-27.4,13.7-23.8,30.4C682.8,419.5,699.4,433.2,716.2,433.2z"/>
		<path class="st24" d="M790.8,420.4h168.6c10.9,0,17.9-8.9,15.5-19.8c-2.4-10.9-13.2-19.8-24.1-19.8H782.2
			c-10.9,0-17.9,8.9-15.5,19.8C769,411.4,779.9,420.4,790.8,420.4z"/>
	</g>
	<polygon class="st16" points="1180.8,505.2 1018.8,505.2 1003.9,649.5 1195.7,649.5 	"/>
	<polygon class="st25" points="1180.8,505.2 1018.8,505.2 1138.4,649.5 1195.7,649.5 	"/>
	<polygon class="st16" points="1053,355.3 1030.2,505.2 1169.4,505.2 1146.6,355.3 	"/>
	<polygon class="st16" points="1053,355.3 1030.2,505.2 1169.4,505.2 1146.6,355.3 	"/>
	<polygon class="st13" points="1146.6,355.3 1121.7,355.3 1144.5,505.2 1169.4,505.2 	"/>
	<rect x="1000.9" y="501.9" class="st19" width="197.9" height="8.3"/>
	<rect x="1057.7" y="501.9" class="st22" width="84.3" height="8.3"/>
	<rect x="1141.9" y="501.9" class="st20" width="56.8" height="8.3"/>
	<polygon class="st13" points="1181.3,510.2 1159.9,510.2 1174.3,649.5 1195.7,649.5 	"/>
	<path class="st11" d="M1077.6,558.5c-17.2,0-31.3,14.1-31.3,31.3v59.7h62.6v-59.7C1108.9,572.6,1094.8,558.5,1077.6,558.5z"/>
	<path class="st19" d="M1111.7,649.5v-59.7c0-9.4-3.8-17.9-10-24.1c-6.2-6.2-14.7-10-24.1-10s-17.9,3.8-24.1,10
		c-6.2,6.2-10,14.7-10,24.1v59.7h5.7v-59.7c0-7.8,3.2-14.9,8.4-20.1c5.2-5.2,12.3-8.4,20.1-8.4c7.8,0,14.9,3.2,20.1,8.4
		c5.2,5.2,8.4,12.3,8.4,20.1v59.7H1111.7z"/>
	<path class="st11" d="M1078.6,455.3c-6.8,0-12.4,5.6-12.4,12.4v23.7h24.9v-23.7C1091.1,460.9,1085.5,455.3,1078.6,455.3z"/>
	<g>
		<polygon class="st22" points="1038.4,349.3 1161.2,349.3 1099.8,286.4 		"/>
		<polygon class="st20" points="1099.8,286.4 1130.1,349.3 1161.2,349.3 		"/>
		<rect x="1038.4" y="349.3" class="st19" width="122.8" height="5.9"/>
		<rect x="1073.7" y="349.3" class="st22" width="52.3" height="5.9"/>
		<rect x="1125.9" y="349.3" class="st20" width="35.3" height="5.9"/>
	</g>
	<path class="st11" d="M1016.4,354.5l-63.3,63.3l-0.1,0.1l-0.1,0.1l-10.4,10.4l26,26l0,0.1l0,0l0.1,0.1l2,2l1.9-1.9l0.1-0.1
		l95.2-95.2c1.7,1,3.7,1.6,5.8,1.6c2.1,0,4.1-0.6,5.8-1.6l23.4,23.4l-9.9,9.9l-0.1,0.1l-0.1,0.1l-12,12l-2,2l10.4,10.4l0.1,0.1
		l0.1,0.1l10.5,10.5l0,0.1l0.1,0.1l10.5,10.5l0,0.1l0.1,0.1l10.5,10.5l0,0.1l0.1,0.1l10.5,10.5l0,0.1l0.1,0.1l10.5,10.5l0,0.1
		l0.1,0.1l10.4,10.4l26-26l0.1-0.1l0.1-0.1l2-2l-10.4-10.4l0-0.1l-0.1-0.1l-10.5-10.5l0-0.1l-0.1-0.1l-10.5-10.5l0-0.1l-0.1-0.1
		l-10.5-10.5l-0.1-0.1l-0.1-0.1l-10.5-10.5l-0.1-0.1l-0.1-0.1l-10.4-10.4l-0.1-0.1l-0.1-0.1l-10.4-10.4l0,0l-23.4-23.4
		c1-1.7,1.6-3.7,1.6-5.8c0-2.1-0.6-4.1-1.6-5.8l23.4-23.4l9.9,9.9l0.1,0.1l0.1,0.1l12,12l2,2l10.4-10.4l0.1-0.1l0.1-0.1l10.5-10.5
		l0.1-0.1l0.1-0.1l10.5-10.5l0.1-0.1l0-0.1l10.5-10.5l0.1-0.1l0-0.1l10.5-10.5l0.1-0.1l0-0.1l10.5-10.5l0.1-0.1l0-0.1l10.4-10.4
		l-26-26l-0.1-0.1l-0.1-0.1l-1.9-1.9l-31.6,31.6l-0.1,0.1l-0.1,0.1l-10.5,10.5l-0.1,0.1l0,0.1L1124,295l-0.1,0.1l-0.1,0.1
		l-10.5,10.5l-0.1,0.1l-0.1,0.1l-10.4,10.4l0,0l-23.4,23.4c-1.7-1-3.7-1.6-5.8-1.6c-2.1,0-4.1,0.6-5.8,1.6l-23.4-23.4l24-24
		l-10.4-10.4l0-0.1l-0.1-0.1l-10.5-10.5l0-0.1l-0.1-0.1l-10.5-10.5l0-0.1l-0.1,0l-10.5-10.5l0,0l0-0.1l-0.1-0.1l0,0l-10.5-10.5
		l-0.1-0.1l-0.1-0.1l-10.4-10.5l-0.1-0.1l-0.1-0.1l-10.4-10.4l-14,14l-0.1,0.1l0,0.1l-12,12l0,0l-2,2l1.9,1.9l0.1,0.1l95.2,95.2
		c-1,1.7-1.6,3.7-1.6,5.8c0,2.1,0.6,4.1,1.6,5.8l-23.4,23.4L1016.4,354.5z M1016.4,362.6l8,8l-4.4,4.4l-8-8L1016.4,362.6z
		 M1007.9,371l8,8l-6.5,6.5l-8-8L1007.9,371z M997.4,381.6l8,8l-6.5,6.5l-8-8L997.4,381.6z M986.8,392.2l8,8l-6.5,6.5l-8-8
		L986.8,392.2z M976.2,402.7l8,8l-6.5,6.5l-8-8L976.2,402.7z M965.6,413.3l8,8l-6.5,6.5l-8-8L965.6,413.3z M950.6,428.3l4.4-4.4l8,8
		l-4.4,4.4L950.6,428.3z M970.6,448.3l-8-8l4.4-4.4l8,8L970.6,448.3z M979.1,439.9l-8-8l6.5-6.5l8,8L979.1,439.9z M989.7,429.3l-8-8
		l6.5-6.5l8,8L989.7,429.3z M1000.2,418.7l-8-8l6.5-6.5l8,8L1000.2,418.7z M1010.8,408.1l-8-8l6.5-6.5l8,8L1010.8,408.1z
		 M1021.4,397.6l-8-8l6.5-6.5l8,8L1021.4,397.6z M1032,387l-8-8l4.4-4.4l8,8L1032,387z M1086.9,406.6l8-8l4.4,4.4l-8,8L1086.9,406.6
		z M1095.4,415.1l8-8l6.5,6.5l-8,8L1095.4,415.1z M1105.9,425.6l8-8l6.5,6.5l-8,8L1105.9,425.6z M1116.5,436.2l8-8l6.5,6.5l-8,8
		L1116.5,436.2z M1127.1,446.8l8-8l6.5,6.5l-8,8L1127.1,446.8z M1137.6,457.3l8-8l6.5,6.5l-8,8L1137.6,457.3z M1152.6,472.3
		l-4.4-4.4l8-8l4.4,4.4L1152.6,472.3z M1172.6,452.3l-8,8l-4.4-4.4l8-8L1172.6,452.3z M1164.2,443.9l-8,8l-6.5-6.5l8-8L1164.2,443.9
		z M1153.6,433.3l-8,8l-6.5-6.5l8-8L1153.6,433.3z M1143,422.7l-8,8l-6.5-6.5l8-8L1143,422.7z M1132.5,412.2l-8,8l-6.5-6.5l8-8
		L1132.5,412.2z M1121.9,401.6l-8,8l-6.5-6.5l8-8L1121.9,401.6z M1111.3,391l-8,8l-4.4-4.4l8-8L1111.3,391z M1130.9,336.1l-8-8
		l4.4-4.4l8,8L1130.9,336.1z M1139.4,327.6l-8-8l6.5-6.5l8,8L1139.4,327.6z M1149.9,317.1l-8-8l6.5-6.5l8,8L1149.9,317.1z
		 M1160.5,306.5l-8-8l6.5-6.5l8,8L1160.5,306.5z M1171.1,295.9l-8-8l6.5-6.5l8,8L1171.1,295.9z M1181.7,285.3l-8-8l6.5-6.5l8,8
		L1181.7,285.3z M1196.7,270.3l-4.4,4.4l-8-8l4.4-4.4L1196.7,270.3z M1176.7,250.3l8,8l-4.4,4.4l-8-8L1176.7,250.3z M1168.2,258.8
		l8,8l-6.5,6.5l-8-8L1168.2,258.8z M1157.6,269.4l8,8l-6.5,6.5l-8-8L1157.6,269.4z M1147.1,280l8,8l-6.5,6.5l-8-8L1147.1,280z
		 M1136.5,290.5l8,8l-6.5,6.5l-8-8L1136.5,290.5z M1125.9,301.1l8,8l-6.5,6.5l-8-8L1125.9,301.1z M1115.4,311.7l8,8l-4.4,4.4l-8-8
		L1115.4,311.7z M1060.4,292.1l-8,8l-4.4-4.4l8-8L1060.4,292.1z M1052,283.6l-8,8l-6.5-6.5l8-8L1052,283.6z M1041.4,273l-8,8
		l-6.5-6.5l8-8L1041.4,273z M1030.8,262.5l-8,8l-6.5-6.5l8-8L1030.8,262.5z M1020.2,251.9l-8,8l-6.5-6.5l8-8L1020.2,251.9z
		 M1009.7,241.3l-8,8l-6.5-6.5l8-8L1009.7,241.3z M994.7,226.3l4.4,4.4l-8,8l-4.4-4.4L994.7,226.3z M974.7,246.3l8-8l4.4,4.4l-8,8
		L974.7,246.3z M983.1,254.8l8-8l6.5,6.5l-8,8L983.1,254.8z M993.7,265.4l8-8l6.5,6.5l-8,8L993.7,265.4z M1004.3,275.9l8-8l6.5,6.5
		l-8,8L1004.3,275.9z M1014.8,286.5l8-8l6.5,6.5l-8,8L1014.8,286.5z M1025.4,297.1l8-8l6.5,6.5l-8,8L1025.4,297.1z M1036,307.6l8-8
		l4.4,4.4l-8,8L1036,307.6z"/>
	<g>
		<g>
			<circle class="st26" cx="791.3" cy="624.5" r="25"/>
			<ellipse class="st27" cx="794.8" cy="624.5" rx="13.5" ry="15.3"/>
		</g>
		<path class="st28" d="M802.7,622.6c5.2,0,9.4-4.2,9.4-9.4v-20.3c0-5.2-4.2-9.4-9.4-9.4h-64.6c-5.2,0-9.4,4.2-9.4,9.4v20.3
			c0,5.2,4.2,9.4,9.4,9.4H802.7z"/>
		<path class="st29" d="M747.1,613.4v-20.8c0-5.1-4.1-9.2-9.2-9.2c-5.1,0-9.2,4.1-9.2,9.2v20.8c0,5.1,4.1,9.2,9.2,9.2
			C742.9,622.6,747.1,618.5,747.1,613.4z"/>
		<g>
			<circle class="st26" cx="740.8" cy="637.8" r="11.7"/>
			<ellipse class="st20" cx="742.5" cy="637.8" rx="6.3" ry="7.2"/>
		</g>
		<g>
			<path class="st30" d="M739.3,597.5c0.4,0,0.8-0.3,0.8-0.8c0-0.4-0.3-0.8-0.8-0.8H730c-0.4,0-0.7,0.3-0.7,0.8
				c0,0.4,0.3,0.8,0.7,0.8H739.3z"/>
			<path class="st30" d="M739.3,600.1c0.4,0,0.8-0.3,0.8-0.8c0-0.4-0.3-0.8-0.8-0.8H730c-0.4,0-0.7,0.3-0.7,0.8
				c0,0.4,0.3,0.8,0.7,0.8H739.3z"/>
			<path class="st30" d="M739.3,602.7c0.4,0,0.8-0.3,0.8-0.8c0-0.4-0.3-0.8-0.8-0.8H730c-0.4,0-0.7,0.3-0.7,0.8
				c0,0.4,0.3,0.8,0.7,0.8H739.3z"/>
			<path class="st30" d="M739.3,605.3c0.4,0,0.8-0.3,0.8-0.8c0-0.4-0.3-0.8-0.8-0.8H730c-0.4,0-0.7,0.3-0.7,0.8
				c0,0.4,0.3,0.8,0.7,0.8H739.3z"/>
			<path class="st30" d="M739.3,607.9c0.4,0,0.8-0.3,0.8-0.8c0-0.4-0.3-0.8-0.8-0.8H730c-0.4,0-0.7,0.3-0.7,0.8
				c0,0.4,0.3,0.8,0.7,0.8H739.3z"/>
			<path class="st30" d="M739.3,610.6c0.4,0,0.8-0.3,0.8-0.7v0c0-0.4-0.3-0.8-0.8-0.8H730c-0.4,0-0.7,0.3-0.7,0.8v0
				c0,0.4,0.3,0.7,0.7,0.7H739.3z"/>
		</g>
		<g>
			<path class="st20" d="M771.3,574.7c1.5,0,2.7-1.2,2.7-2.7v-5.9c0-1.5-1.2-2.7-2.7-2.7h0c-1.5,0-2.7,1.2-2.7,2.7v5.9
				C768.7,573.5,769.9,574.7,771.3,574.7L771.3,574.7z"/>
			<path class="st11" d="M771.3,589.4c2.5,0,4.6-2.1,4.6-4.6v-10.1c0-2.5-2.1-4.6-4.6-4.6h0c-2.5,0-4.6,2.1-4.6,4.6v10.1
				C766.8,587.4,768.8,589.4,771.3,589.4L771.3,589.4z"/>
		</g>
		<path class="st30" d="M823.9,619.1c1.6,0,3-1.3,3-3v-11c0-1.6-1.3-3-3-3h-51.4c-1.6,0-3,1.3-3,3v11c0,1.6,1.3,3,3,3H823.9z"/>
		<path class="st29" d="M821.7,608.3c2,0,3.9-1.6,4.3-3.6l2.7-15c0.4-2-1-3.6-3-3.6h-1.1c-2,0-3.9,1.6-4.3,3.6l-2.7,15
			c-0.4,2,1,3.6,3,3.6H821.7z"/>
		<g>
			<circle class="st26" cx="817.2" cy="624.5" r="25"/>
			<ellipse class="st20" cx="820.8" cy="624.5" rx="13.5" ry="15.3"/>
		</g>
	</g>
	<path class="st31" d="M215,636.3c-2.1-1-4.5-0.2-5.6,1.9c-1,2.1-0.2,4.5,1.9,5.5c1.3,0.6,3.1,2.5,4.7,4.7c0.2,0.3,0.5,0.7,0.7,1
		H230c0.3-0.2,0.5-0.4,0.8-0.6c1.9-1.5,3.9-2.8,5.1-3.3c2.1-0.8,3.2-3.2,2.4-5.4c-0.8-2.1-3.2-3.2-5.4-2.4c-0.9,0.4-2.1,1-3.3,1.7
		c1.7-4.3,3.5-8.2,4.9-10.4c1.2-1.9,0.7-4.5-1.2-5.7c-1.9-1.3-4.5-0.7-5.7,1.2c-2,3.2-4.6,8.9-6.7,14.5l0,0
		c-0.2,0.5-0.4,1.1-0.6,1.6C218.6,638.8,216.6,637.2,215,636.3z"/>
	<path class="st31" d="M276.3,623.4c-1.9-1.3-4.5-0.7-5.7,1.2c-2,3.1-4.6,8.8-6.6,14.5c-0.2,0.5-0.4,1.1-0.6,1.6
		c-1.8-1.9-3.7-3.5-5.4-4.4c-2.1-1-4.5-0.2-5.6,1.9c-1,2.1-0.2,4.5,1.9,5.5c1.3,0.6,3.1,2.5,4.7,4.7c0.2,0.3,0.5,0.7,0.7,1h13.3
		c0.3-0.2,0.5-0.4,0.8-0.6c1.9-1.5,3.9-2.8,5.1-3.3c2.1-0.8,3.2-3.2,2.4-5.4c-0.8-2.1-3.2-3.2-5.4-2.4c-0.9,0.4-2.1,1-3.3,1.7
		c1.6-4.3,3.5-8.2,4.9-10.5C278.7,627.2,278.2,624.6,276.3,623.4z"/>
	<path class="st31" d="M300.9,636.3c-2.1-1-4.5-0.2-5.6,1.9c-1,2.1-0.2,4.5,1.9,5.5c1.3,0.6,3.1,2.5,4.7,4.7c0.2,0.3,0.5,0.7,0.7,1
		h13.3c0.3-0.2,0.5-0.4,0.8-0.6c1.9-1.5,3.9-2.8,5.1-3.2c2.1-0.8,3.2-3.2,2.4-5.4c-0.8-2.1-3.2-3.2-5.4-2.4c-0.9,0.4-2.1,1-3.3,1.7
		c1.6-4.3,3.5-8.2,4.9-10.4c1.2-1.9,0.7-4.5-1.2-5.7c-1.9-1.3-4.5-0.7-5.7,1.2c-2,3.2-4.6,8.9-6.7,14.5l0,0
		c-0.2,0.5-0.4,1.1-0.6,1.6C304.5,638.8,302.6,637.2,300.9,636.3z"/>
	<path class="st31" d="M343.9,636.3c-2.1-1-4.5-0.2-5.5,1.9c-1,2.1-0.2,4.5,1.9,5.5c1.3,0.6,3.1,2.5,4.7,4.7c0.2,0.3,0.5,0.7,0.7,1
		h13.3c0.3-0.2,0.5-0.4,0.8-0.6c1.9-1.5,3.9-2.8,5.1-3.3c2.1-0.8,3.2-3.2,2.4-5.4c-0.8-2.1-3.2-3.2-5.4-2.4c-0.9,0.4-2.1,1-3.3,1.7
		c1.6-4.3,3.5-8.2,4.9-10.4c1.2-1.9,0.7-4.5-1.2-5.7c-1.9-1.3-4.5-0.7-5.7,1.2c-2,3.2-4.6,8.9-6.7,14.5l0,0
		c-0.2,0.5-0.4,1.1-0.6,1.6C347.5,638.8,345.5,637.2,343.9,636.3z"/>
	<polygon class="st32" points="768.5,790.2 787.7,771 829.5,812.8 917.3,725 741.8,725 748.4,731.7 710,731.7 	"/>
	<polygon class="st32" points="321.1,704.6 461.8,845.3 528.9,778.3 559.7,809 653.4,715.3 591.9,715.3 602.6,704.6 	"/>
	<polygon class="st33" points="1017.7,728.9 1099.7,811 1181.7,728.9 	"/>
	<polygon class="st34" points="433.8,739.2 288.3,739.2 361.1,812 	"/>
	<rect x="165.9" y="649.5" class="st31" width="1072.7" height="52.7"/>
	<rect x="165.9" y="649.5" class="st35" width="713.2" height="19.2"/>
	<rect x="805.9" y="649.5" class="st36" width="432.8" height="52.7"/>
	
		<rect x="773.1" y="805.8" transform="matrix(0.7069 -0.7073 0.7073 0.7069 -345.3911 787.8638)" class="st37" width="9.8" height="9.8"/>
	
		<rect x="780.8" y="764.1" transform="matrix(0.7071 -0.7071 0.7071 0.7071 -316.3643 787.4653)" class="st37" width="23" height="23"/>
	
		<rect x="805.9" y="793.3" transform="matrix(0.7072 -0.7071 0.7071 0.7072 -326.9355 807.0079)" class="st37" width="9.8" height="9.8"/>
	
		<rect x="465.8" y="819.9" transform="matrix(0.707 -0.7072 0.7072 0.707 -445.3606 574.4673)" class="st37" width="9.8" height="9.8"/>
	
		<rect x="413.3" y="800.3" transform="matrix(0.707 -0.7072 0.7072 0.707 -446.8819 531.6183)" class="st37" width="9.8" height="9.8"/>
	<polygon class="st37" points="1238.7,686.6 165.9,686.6 165.9,739.2 272,845.3 378.1,739.2 543.8,739.2 564.7,760.1 585.5,739.2 
		682.6,739.2 736.6,793.2 790.6,739.2 1238.7,739.2 	"/>
	
		<rect x="427.9" y="761.3" transform="matrix(0.707 -0.7072 0.7072 0.707 -419.8289 542.1132)" class="st37" width="32.9" height="32.9"/>
	<polygon class="st34" points="1037.6,739.2 1139.4,739.2 1178.6,778.4 1217.8,739.2 1238.7,739.2 1238.7,686.6 805.9,686.6 
		805.9,739.2 846,739.2 941.8,835 	"/>
	<polygon class="st34" points="612.2,739.2 652.6,779.6 693,739.2 	"/>
	<rect x="805.9" y="649.5" class="st38" width="432.8" height="19.2"/>
	
		<rect x="244.3" y="727.2" transform="matrix(0.7071 -0.7071 0.7071 0.7071 -454.132 413.4183)" class="st39" width="55.5" height="55.5"/>
	
		<rect x="901.9" y="729" transform="matrix(0.7071 -0.7071 0.7071 0.7071 -259.5444 871.1823)" class="st37" width="39.8" height="39.8"/>
	<rect x="1022.3" y="686.6" class="st33" width="216.4" height="29"/>
	<rect x="987.7" y="686.6" class="st33" width="24.2" height="29"/>
	<path class="st31" d="M938.2,623.4c-1.9-1.3-4.5-0.7-5.7,1.2c-2,3.1-4.6,8.8-6.6,14.5c-0.2,0.5-0.4,1.1-0.6,1.6
		c-1.8-1.9-3.7-3.5-5.4-4.4c-2.1-1-4.5-0.2-5.5,1.9c-1,2.1-0.2,4.5,1.9,5.5c1.3,0.6,3.1,2.5,4.7,4.7c0.2,0.3,0.5,0.7,0.7,1h13.3
		c0.3-0.2,0.5-0.4,0.8-0.6c1.9-1.5,3.9-2.8,5.1-3.3c2.1-0.8,3.2-3.2,2.4-5.4c-0.8-2.1-3.2-3.2-5.4-2.4c-0.9,0.4-2.1,1-3.3,1.7
		c1.6-4.3,3.5-8.2,4.9-10.5C940.6,627.2,940.1,624.6,938.2,623.4z"/>
	<path class="st31" d="M876.9,636.3c-2.1-1-4.5-0.2-5.5,1.9c-1,2.1-0.2,4.5,1.9,5.5c1.3,0.6,3.1,2.5,4.7,4.7c0.2,0.3,0.5,0.7,0.7,1
		h13.3c0.3-0.2,0.5-0.4,0.8-0.6c1.9-1.5,3.9-2.8,5.1-3.3c2.1-0.8,3.2-3.2,2.4-5.4c-0.8-2.1-3.2-3.2-5.4-2.4c-0.9,0.4-2.1,1-3.3,1.7
		c1.7-4.3,3.5-8.2,4.9-10.4c1.2-1.9,0.7-4.5-1.2-5.7c-1.9-1.3-4.5-0.7-5.7,1.2c-2,3.2-4.6,8.9-6.7,14.5l0,0
		c-0.2,0.5-0.4,1.1-0.6,1.6C880.5,638.8,878.5,637.2,876.9,636.3z"/>
	<path class="st31" d="M1005.8,636.3c-2.1-1-4.5-0.2-5.6,1.9c-1,2.1-0.2,4.5,1.9,5.5c1.3,0.6,3.1,2.5,4.7,4.7c0.2,0.3,0.5,0.7,0.7,1
		h13.3c0.3-0.2,0.5-0.4,0.8-0.6c1.9-1.5,3.9-2.8,5.1-3.3c2.1-0.8,3.2-3.2,2.4-5.4c-0.8-2.1-3.2-3.2-5.4-2.4c-0.9,0.4-2.1,1-3.3,1.7
		c1.7-4.3,3.5-8.2,4.9-10.4c1.2-1.9,0.7-4.5-1.2-5.7c-1.9-1.3-4.5-0.7-5.7,1.2c-2,3.2-4.6,8.9-6.7,14.5l0,0
		c-0.2,0.5-0.4,1.1-0.6,1.6C1009.4,638.8,1007.4,637.2,1005.8,636.3z"/>
	<path class="st31" d="M962.8,636.3c-2.1-1-4.5-0.2-5.5,1.9c-1,2.1-0.2,4.5,1.9,5.5c1.3,0.6,3.1,2.5,4.7,4.7c0.2,0.3,0.5,0.7,0.7,1
		h13.3c0.3-0.2,0.5-0.4,0.8-0.6c1.9-1.5,3.9-2.8,5.1-3.2c2.1-0.8,3.2-3.2,2.4-5.4c-0.8-2.1-3.2-3.2-5.4-2.4c-0.9,0.4-2.1,1-3.3,1.7
		c1.7-4.3,3.5-8.2,4.9-10.4c1.2-1.9,0.7-4.5-1.2-5.7c-1.9-1.3-4.5-0.7-5.7,1.2c-2,3.2-4.6,8.9-6.7,14.5l0,0
		c-0.2,0.5-0.4,1.1-0.6,1.6C966.4,638.8,964.5,637.2,962.8,636.3z"/>
</g>
</svg>
